<svg xmlns="http://www.w3.org/2000/svg" width="65" height="65" viewBox="0 0 65 65"><path d="M341.521,260.043A9.521,9.521,0,1,0,332,250.521,9.533,9.533,0,0,0,341.521,260.043Z" transform="translate(-289.852 -210.404)" fill="#4fb25d"/><path d="M39.521,19.17a9.533,9.533,0,0,0,9.521-9.521A9.522,9.522,0,1,0,30,9.648,9.533,9.533,0,0,0,39.521,19.17Z" transform="translate(-26.191)" fill="#4fb25d"/><path d="M242.9,3.809a13.592,13.592,0,0,1,13.321,11.553h-1.769a1.9,1.9,0,0,0-1.488,3.094l7.617,9.521a1.907,1.907,0,0,0,2.976,0l7.617-9.521a1.9,1.9,0,0,0-1.488-3.094h-2.01A17.273,17.273,0,0,0,250.648,0H242.9a1.9,1.9,0,0,0,0,3.809Z" transform="translate(-210.404)" fill="#4fb25d"/><path d="M58.691,311.132A13.592,13.592,0,0,1,45.37,299.58h1.769a1.9,1.9,0,0,0,1.488-3.094l-7.617-9.521a1.972,1.972,0,0,0-2.976,0l-7.617,9.521A1.9,1.9,0,0,0,31.9,299.58h2.01a17.273,17.273,0,0,0,17.033,15.361h7.744a1.9,1.9,0,0,0,0-3.809Z" transform="translate(-26.191 -249.941)" fill="#4fb25d"/><path d="M315.33,394.809a13.273,13.273,0,0,1-9.3-3.809A13.57,13.57,0,0,0,302,400.648v3.809a1.9,1.9,0,0,0,1.9,1.9h22.852a1.9,1.9,0,0,0,1.9-1.9v-3.809A13.57,13.57,0,0,0,324.63,391,13.273,13.273,0,0,1,315.33,394.809Z" transform="translate(-263.66 -341.361)" fill="#4fb25d"/><path d="M26.66,164.33v-3.809A13.275,13.275,0,0,0,22.63,151a13.258,13.258,0,0,1-18.6,0A13.275,13.275,0,0,0,0,160.521v3.809a1.9,1.9,0,0,0,1.9,1.9H24.756A1.9,1.9,0,0,0,26.66,164.33Z" transform="translate(0 -131.83)" fill="#4fb25d"/></svg>