<svg xmlns="http://www.w3.org/2000/svg" xmlns:xlink="http://www.w3.org/1999/xlink" width="32" height="30" viewBox="0 0 32 30"><defs><style>.a{fill:none;}.b{clip-path:url(#a);}.c{fill:#fff;}</style><clipPath id="a"><rect class="a" width="32" height="30" transform="translate(0 0)"/></clipPath></defs><g transform="translate(-970 -546)"><g transform="translate(970 546)"><g class="b" transform="translate(0 0)"><path class="c" d="M227.235,296.58a2.177,2.177,0,0,0-2.974-.8l-5.314,3.068a2.16,2.16,0,0,0-1.231-.888l-8.131-2.18a3.814,3.814,0,0,0-1.913-.016l-2.861.718v-.937a.545.545,0,0,0-.545-.545H199.9a.545.545,0,0,0-.545.545v.545h-3.815a.545.545,0,0,0-.545.545v7.63a.545.545,0,0,0,.545.545h3.815v.545a.545.545,0,0,0,.545.545h4.36a.545.545,0,0,0,.545-.545V304.6l.7.351a3.833,3.833,0,0,0,1.706.4h8.162a3.822,3.822,0,0,0,1.907-.511l9.156-5.286a2.186,2.186,0,0,0,.793-2.977Zm-31.145,7.14v-6.54h3.27v6.54Zm7.63,1.09h-3.27v-8.72h3.27Zm22.176-6.194L216.74,303.9a2.725,2.725,0,0,1-1.362.365h-8.161a2.736,2.736,0,0,1-1.218-.288l-1.189-.6v-5.777l3.125-.781a2.736,2.736,0,0,1,1.367.011l8.131,2.18a1.09,1.09,0,1,1-.564,2.105l-6.5-1.743a.545.545,0,0,0-.282,1.053l6.5,1.744a2.207,2.207,0,0,0,.568.075,2.154,2.154,0,0,0,2.161-2.353l5.489-3.169a1.109,1.109,0,0,1,1.486.4,1.094,1.094,0,0,1-.394,1.488Zm0,0" transform="translate(-195 -275.9)"/></g></g><path class="c" d="M351.545,125.355h2.046c.031.078.062.154.095.228l-1.446,1.447a.545.545,0,0,0,0,.771l2.311,2.311a.545.545,0,0,0,.771,0l1.446-1.447c.074.032.15.064.229.095V130.8a.545.545,0,0,0,.545.545h3.27a.545.545,0,0,0,.545-.545v-2.046c.078-.031.154-.062.229-.095l1.446,1.447a.561.561,0,0,0,.771,0l2.311-2.311a.545.545,0,0,0,0-.771l-1.447-1.447c.033-.073.064-.149.095-.228H366.8a.545.545,0,0,0,.545-.545v-3.27a.545.545,0,0,0-.545-.545h-2.046c-.031-.078-.062-.154-.095-.229l1.447-1.446a.545.545,0,0,0,0-.771l-2.311-2.311a.545.545,0,0,0-.771,0l-1.446,1.447c-.074-.032-.15-.064-.229-.095v-2.046a.545.545,0,0,0-.545-.545h-3.27a.545.545,0,0,0-.545.545v2.046c-.078.031-.154.062-.229.095l-1.446-1.447a.561.561,0,0,0-.771,0l-2.311,2.311a.545.545,0,0,0,0,.771l1.446,1.446c-.033.074-.064.15-.095.229h-2.046a.545.545,0,0,0-.545.545v3.27a.545.545,0,0,0,.545.545Zm.545-3.27h1.886a.545.545,0,0,0,.519-.378,4.465,4.465,0,0,1,.33-.788.545.545,0,0,0-.093-.647l-1.334-1.337,1.54-1.54,1.337,1.337a.545.545,0,0,0,.648.093,4.407,4.407,0,0,1,.788-.33.545.545,0,0,0,.375-.519V116.09h2.18v1.886a.546.546,0,0,0,.378.519,4.4,4.4,0,0,1,.788.33.545.545,0,0,0,.647-.093l1.337-1.337,1.54,1.54-1.336,1.337a.545.545,0,0,0-.093.647,4.465,4.465,0,0,1,.33.788.545.545,0,0,0,.519.378h1.886v2.18h-1.886a.545.545,0,0,0-.519.378,4.464,4.464,0,0,1-.33.788.545.545,0,0,0,.093.647l1.336,1.337-1.54,1.54-1.337-1.337a.545.545,0,0,0-.647-.093,4.4,4.4,0,0,1-.788.33.546.546,0,0,0-.378.519v1.886h-2.18v-1.886a.546.546,0,0,0-.378-.519,4.4,4.4,0,0,1-.788-.33.545.545,0,0,0-.647.093l-1.337,1.337-1.537-1.54,1.337-1.337a.545.545,0,0,0,.093-.647,4.462,4.462,0,0,1-.33-.788.546.546,0,0,0-.522-.378H352.09Zm0,0" transform="translate(633.17 433.75)"/><path class="c" d="M408.27,175.54a3.27,3.27,0,1,1,3.27-3.27,3.269,3.269,0,0,1-3.27,3.27Zm0-5.45a2.18,2.18,0,1,0,2.18,2.18,2.18,2.18,0,0,0-2.18-2.18Zm0,0" transform="translate(584.075 384.656)"/><path class="c" d="M225.54,95.9h-2.18a.545.545,0,0,1-.545-.545V94.4l-.677.677a.545.545,0,0,1-.771,0l-1.542-1.542a.545.545,0,0,1,0-.771l.677-.677h-.957A.545.545,0,0,1,219,91.54V89.36a.545.545,0,0,1,.545-.545h.957l-.677-.677a.545.545,0,0,1,0-.771l1.542-1.542a.545.545,0,0,1,.771,0l.677.677v-.957A.545.545,0,0,1,223.36,85h2.18a.545.545,0,0,1,.545.545V86.5l.677-.677a.545.545,0,0,1,.771,0l1.542,1.542a.545.545,0,0,1,0,.771l-.677.677h.957a.545.545,0,0,1,.545.545v2.18a.545.545,0,0,1-.545.545H228.4l.677.677a.545.545,0,0,1,0,.771l-1.542,1.542a.545.545,0,0,1-.771,0l-.677-.677v.957a.545.545,0,0,1-.545.545ZM223.9,94.81h1.09V93.529a.545.545,0,0,1,.388-.522,1.277,1.277,0,0,0,.218-.091.544.544,0,0,1,.638.1l.907.906.772-.772-.907-.906a.546.546,0,0,1-.1-.638,1.228,1.228,0,0,0,.092-.221.545.545,0,0,1,.523-.387h1.281V89.9h-1.281a.545.545,0,0,1-.522-.387,1.208,1.208,0,0,0-.092-.221.545.545,0,0,1,.1-.638l.906-.906-.772-.772-.906.908a.546.546,0,0,1-.638.1,1.246,1.246,0,0,0-.218-.092.545.545,0,0,1-.39-.524V86.09H223.9v1.281a.545.545,0,0,1-.388.522,1.276,1.276,0,0,0-.218.091.544.544,0,0,1-.638-.1l-.908-.906-.772.772.908.906a.546.546,0,0,1,.1.638,1.228,1.228,0,0,0-.092.221.545.545,0,0,1-.522.387H220.09v1.09h1.281a.545.545,0,0,1,.522.387,1.206,1.206,0,0,0,.092.221.545.545,0,0,1-.1.638l-.906.906.772.772.906-.908a.546.546,0,0,1,.638-.1,1.25,1.25,0,0,0,.218.092.545.545,0,0,1,.39.524Zm0,0" transform="translate(753.18 461.025)"/><path class="c" d="M257.18,125.36a2.18,2.18,0,1,1,2.18-2.18,2.18,2.18,0,0,1-2.18,2.18Zm0-3.27a1.09,1.09,0,1,0,1.09,1.09,1.09,1.09,0,0,0-1.09-1.09Zm0,0" transform="translate(720.45 428.296)"/></g></svg>