<svg xmlns="http://www.w3.org/2000/svg" xmlns:xlink="http://www.w3.org/1999/xlink" width="24" height="24" viewBox="0 0 24 24"><defs><style>.a{fill:none;}.b{clip-path:url(#a);}.c{fill:#878787;fill-rule:evenodd;}</style><clipPath id="a"><rect class="a" width="24" height="24"/></clipPath></defs><g class="b"><rect class="a" width="24" height="24"/><path class="c" d="M3.06,7.649V21.417H21.417V7.649ZM19.887,3.06h3.06a1.445,1.445,0,0,1,1.53,1.53V22.946a1.445,1.445,0,0,1-1.53,1.53H1.53A1.445,1.445,0,0,1,0,22.946V4.589A1.445,1.445,0,0,1,1.53,3.06h3.06V1.53A1.445,1.445,0,0,1,6.119,0a1.445,1.445,0,0,1,1.53,1.53V3.06h9.179V1.53a1.53,1.53,0,0,1,3.06,0Zm-1.53,15.3H15.3V15.3h3.06Zm-4.589,0h-3.06V15.3h3.06Zm4.589-4.589H15.3v-3.06h3.06Zm-4.589,0h-3.06v-3.06h3.06ZM9.179,18.357H6.119V15.3h3.06Z"/></g></svg>