<svg xmlns="http://www.w3.org/2000/svg" width="61.333" height="63.933" viewBox="0 0 61.333 63.933"><defs><style>.a{fill:#4fb25d;}.b{fill:#0d004c;}.c{fill:#9e9e9e;}.d{fill:#cbcbcb;}.e{fill:#b9b9b9;}</style></defs><g transform="translate(-726.667 -726)"><path class="a" d="M773.491,834v22.448a1.063,1.063,0,0,1-1.055,1.069H730.221A4.249,4.249,0,0,0,726,861.793v7.483a4.249,4.249,0,0,0,4.221,4.276h6.332v-4.276h-5.277a1.063,1.063,0,0,1-1.055-1.069v-5.345a1.063,1.063,0,0,1,1.055-1.069h42.214a4.249,4.249,0,0,0,4.221-4.276V834Zm0,0" transform="translate(0.667 -88.759)"/><path class="b" d="M16.917,0h1.167a16.917,16.917,0,0,1,0,33.833H16.917A16.917,16.917,0,0,1,16.917,0Z" transform="translate(734 756.1)"/><path class="c" d="M831.379,940.69a10.69,10.69,0,1,1-3.131-7.559,10.69,10.69,0,0,1,3.131,7.559Zm0,0" transform="translate(-69.034 -167.655)"/><path class="d" d="M835.241,945.621A9.621,9.621,0,1,1,825.621,936a9.621,9.621,0,0,1,9.621,9.621Zm0,0" transform="translate(-73.965 -172.586)"/><path class="e" d="M862.276,1004.138a2.138,2.138,0,1,1-2.138-2.138,2.138,2.138,0,0,1,2.138,2.138Zm0,0" transform="translate(-108.483 -226.828)"/><path class="e" d="M841.6,960a1.6,1.6,0,0,1,1.6,1.6v1.069a1.6,1.6,0,0,1-3.207,0V961.6a1.6,1.6,0,0,1,1.6-1.6Zm0,0" transform="translate(-93.69 -192.31)"/><path class="e" d="M883.6,960a1.6,1.6,0,0,1,1.6,1.6v1.069a1.6,1.6,0,1,1-3.207,0V961.6a1.6,1.6,0,0,1,1.6-1.6Zm0,0" transform="translate(-128.207 -192.31)"/><path class="b" d="M944.138,786h19.241a2.138,2.138,0,1,1,0,4.276H944.138a2.138,2.138,0,1,1,0-4.276Zm0,0" transform="translate(-177.517 -49.31)"/><path class="d" d="M968.138,726a2.138,2.138,0,0,1,2.138,2.138v8.552H966v-8.552A2.138,2.138,0,0,1,968.138,726Zm0,0" transform="translate(-197.241)"/><path class="d" d="M1028.138,726a2.138,2.138,0,0,1,2.138,2.138v8.552H1026v-8.552a2.137,2.137,0,0,1,2.138-2.138Zm0,0" transform="translate(-246.552)"/><path class="b" d="M954,810v7.483a9.619,9.619,0,0,0,5.345,8.619v1a4.276,4.276,0,0,0,8.552,0v-1a9.619,9.619,0,0,0,5.345-8.619V810Zm0,0" transform="translate(-187.379 -69.034)"/><path class="d" d="M980.138,830.138h-1.069a1.069,1.069,0,1,1,0-2.138h1.069a1.069,1.069,0,1,1,0,2.138Zm0,0" transform="translate(-207.103 -83.828)"/><path class="d" d="M1013.345,830.138h-4.276a1.069,1.069,0,1,1,0-2.138h4.276a1.069,1.069,0,1,1,0,2.138Zm0,0" transform="translate(-231.759 -83.828)"/><rect class="c" width="4" height="3" transform="translate(769 734)"/><rect class="c" width="4" height="3" transform="translate(780 734)"/></g></svg>