<svg xmlns="http://www.w3.org/2000/svg" width="64" height="62" viewBox="0 0 64 62"><defs><style>.a{fill:#0d004c;}.b{fill:#4fb25d;}.c{fill:#0a0451;}</style></defs><g transform="translate(-726 -731)"><rect class="a" width="64" height="7" transform="translate(726 749)"/><rect class="b" width="7" height="4" transform="translate(767 756)"/><path class="b" d="M961.6,800h-2.117A5.486,5.486,0,0,0,954,805.487h8.779v7.681l4.389,1.1v-8.59a5.753,5.753,0,0,0-1.685-4.069A5.486,5.486,0,0,0,961.6,800Zm0,0" transform="translate(-186.301 -56.381)"/><path class="b" d="M954,870.389v29.565a3.355,3.355,0,0,0,6.708.129l.973-23.11,6.584-2.195v-6.584L960.584,866v4.389Zm0,0" transform="translate(-186.301 -110.31)"/><path class="a" d="M908.195,812a2.19,2.19,0,0,1,2.195,2.195v8.779a2.195,2.195,0,0,1-4.389,0v-8.779A2.19,2.19,0,0,1,908.195,812Zm0,0" transform="translate(-147.08 -66.186)"/><path class="a" d="M752.195,812a2.19,2.19,0,0,1,2.195,2.195v8.779a2.195,2.195,0,0,1-4.389,0v-8.779A2.19,2.19,0,0,1,752.195,812Zm0,0" transform="translate(-19.611 -66.186)"/><rect class="a" width="6" height="6" transform="translate(744 740)"/><rect class="a" width="16" height="3" transform="translate(739 733)"/><rect class="a" width="4" height="4" transform="translate(745 736)"/><path class="a" d="M805.525,800a7.508,7.508,0,0,1,7.524,7.525v2.507a7.525,7.525,0,1,1-15.049,0v-2.507A7.509,7.509,0,0,1,805.525,800Zm0,0" transform="translate(-58.832 -56.381)"/><path class="c" d="M835.372,853.487H835.1a1.1,1.1,0,1,1,0-2.195h.274a1.923,1.923,0,0,0,1.92-1.92V849.1a1.1,1.1,0,0,1,2.195,0v.274a4.12,4.12,0,0,1-4.115,4.115Zm0,0" transform="translate(-88.248 -95.602)"/><path class="a" d="M787.938,734.969a2.469,2.469,0,1,1-2.469-2.469,2.469,2.469,0,0,1,2.469,2.469Zm0,0" transform="translate(-46.575 -1.226)"/><path class="a" d="M877.938,734.969a2.469,2.469,0,1,1-2.469-2.469,2.469,2.469,0,0,1,2.469,2.469Zm0,0" transform="translate(-120.115 -1.226)"/><path class="a" d="M832.938,733.469A2.469,2.469,0,1,1,830.469,731a2.469,2.469,0,0,1,2.469,2.469Zm0,0" transform="translate(-83.345)"/></g></svg>