<svg xmlns="http://www.w3.org/2000/svg" width="62" height="70.47" viewBox="0 0 62 70.47"><defs><style>.a{fill:#4fb25d;}.b{fill:#ff755c;}.c{fill:#0d004c;}</style></defs><g transform="translate(-30.77)"><path class="a" d="M272.788,49.369h-5.969v3.34h5.969a1.8,1.8,0,0,1,1.63,1.683v8.214a2.476,2.476,0,0,1-1.921,2.287l-22.531,3.954a5.8,5.8,0,0,0-4.684,5.577V84.869h3.34V74.423a2.476,2.476,0,0,1,1.921-2.287l22.531-3.953a5.8,5.8,0,0,0,4.683-5.577V54.392A5.127,5.127,0,0,0,272.788,49.369Z" transform="translate(-184.988 -42.574)"/><path class="b" d="M293.67,291.731l1.445-8.7Z" transform="translate(-226.715 -244.075)"/><path class="a" d="M32.44,49.369a1.67,1.67,0,0,0,0,3.34h5.875v-3.34Z" transform="translate(0 -42.574)"/><path class="c" d="M221.161,325.324v19.682a3.131,3.131,0,0,0,3.131,3.131h3.718a3.131,3.131,0,0,0,3.131-3.131V325.324l-4.99-3.34Zm6.66,17.8a1.67,1.67,0,0,1-3.34,0v-2.253a1.67,1.67,0,0,1,3.34,0Z" transform="translate(-164.186 -277.667)"/><path class="c" d="M210.663,283.029l1.445,8.7h9.98l1.445-8.7Z" transform="translate(-155.133 -244.074)"/><path class="a" d="M111.52,12.739a4.191,4.191,0,0,1-4.191,4.191H65.516a4.191,4.191,0,0,1-4.191-4.191V4.191A4.191,4.191,0,0,1,65.516,0h41.814a4.191,4.191,0,0,1,4.191,4.191v8.549Z" transform="translate(-26.349)"/></g></svg>