<svg xmlns="http://www.w3.org/2000/svg" width="312" height="161.357" viewBox="0 0 312 161.357"><g transform="translate(-22.152 -63.3)"><path d="M320.808,118q0-6.722-3.405-10.591a11.747,11.747,0,0,0-9.3-3.879q-6.07,0-9.48,3.849T295.219,118c0,4.521,1.11,8.049,3.356,10.556s5.379,3.775,9.421,3.775q6.033,0,9.426-3.775c2.255-2.507,3.385-6.036,3.385-10.556m13.344,24.621q0,8.024-.953,11.277a13.17,13.17,0,0,1-3.282,5.631,19.618,19.618,0,0,1-8.493,5.281,40.1,40.1,0,0,1-12.565,1.708q-12.355,0-18.758-3.933-6.433-3.916-6.993-11.933H299.3a5.558,5.558,0,0,0,2.685,4.343c1.55.938,3.844,1.4,6.879,1.4q6.011,0,8.666-3.109c1.782-2.063,2.665-5.522,2.665-10.339v-7.255a19.421,19.421,0,0,1-7.111,6.988,20.162,20.162,0,0,1-9.85,2.275q-10.452,0-16.7-7.324-6.27-7.306-6.263-19.716,0-12.621,6.1-19.765,6.092-7.121,16.853-7.131a18.879,18.879,0,0,1,9.85,2.561,20.6,20.6,0,0,1,7.22,7.516V92.723h13.853Zm-106.825.829V92.723h14.42v7.96a27.224,27.224,0,0,1,8.562-7.324,21.89,21.89,0,0,1,10.166-2.349,22.15,22.15,0,0,1,9.9,1.994,14.789,14.789,0,0,1,6.337,6.075,16.123,16.123,0,0,1,1.624,4.782,49.978,49.978,0,0,1,.493,8.35v31.234H264.094V118.37c0-6.233-.725-10.364-2.171-12.357s-3.938-3-7.452-3a12.473,12.473,0,0,0-5.611,1.273,11.835,11.835,0,0,0-6.194,7.728,30.414,30.414,0,0,0-.6,7.077v24.355Zm-20.254,0V92.723h14.687v50.723ZM205.766,71.9a8.687,8.687,0,0,1,8.6-8.6,8.43,8.43,0,0,1,6.119,2.507,8.52,8.52,0,0,1,0,12.18,8.4,8.4,0,0,1-6.119,2.542,8.144,8.144,0,0,1-6.055-2.6A8.315,8.315,0,0,1,205.766,71.9Zm-71.608,71.549H119.417V92.723h14.741v7.96a25.169,25.169,0,0,1,7.733-7.343,18.577,18.577,0,0,1,9.332-2.329q6.3,0,10.255,2.6a13.922,13.922,0,0,1,5.611,7.8,25.273,25.273,0,0,1,8-7.788,19,19,0,0,1,9.791-2.611A19.324,19.324,0,0,1,194.006,93a13.7,13.7,0,0,1,5.823,5.966,17.577,17.577,0,0,1,1.555,4.925,55.4,55.4,0,0,1,.459,8.316v31.234H187.107V118.37c0-6.159-.637-10.275-1.89-12.3s-3.459-3.055-6.6-3.055q-5.663,0-8.242,4.239T167.815,121.1v22.341H153.079V118.37q0-8.95-1.767-12.091c-1.165-2.117-3.178-3.163-6.036-3.163-3.9,0-6.727,1.416-8.493,4.274q-2.62,4.264-2.625,13.715Zm-16.266-25.184a26,26,0,0,1-7.995,19.449q-7.973,7.751-20.244,7.748-12.333,0-20.367-7.748a25.956,25.956,0,0,1-8.015-19.449,25.964,25.964,0,0,1,8.069-19.449Q77.41,91,89.654,91.01q12.311,0,20.278,7.713T117.892,118.262Zm-15-.089q0-6.218-3.617-9.92a13.008,13.008,0,0,0-9.707-3.686c-4.076,0-7.289,1.219-9.673,3.667s-3.563,5.754-3.563,9.939q0,6.2,3.563,9.919c2.384,2.487,5.6,3.726,9.673,3.726a12.939,12.939,0,0,0,9.688-3.726A13.6,13.6,0,0,0,102.89,118.173ZM62.8,141.945A23.8,23.8,0,0,1,56.5,144.61a29.018,29.018,0,0,1-7.25.849q-11.992,0-19.538-7.625T22.152,118q0-11.933,7.61-19.464t19.7-7.521a30.787,30.787,0,0,1,7.235.78,22.721,22.721,0,0,1,6.11,2.433l-.109,14.79a16.269,16.269,0,0,0-11.844-4.975,13.3,13.3,0,0,0-9.915,3.79,13.748,13.748,0,0,0-3.726,10.063q0,6.411,3.8,10.216,3.812,3.79,10.27,3.8a14.8,14.8,0,0,0,6.337-1.283,15.427,15.427,0,0,0,5.083-4.027Z" transform="translate(0 0)" fill="#005a55"/><path d="M253.918,147.779a11.117,11.117,0,0,1,4.269-8.74,15.455,15.455,0,0,1,10.364-3.617A15.658,15.658,0,0,1,279,139.039a11.112,11.112,0,0,1,.015,17.529,16.864,16.864,0,0,1-20.861,0,11.178,11.178,0,0,1-4.234-8.789m1.816-18.2V79.685h25.648v49.894ZM190.1,136.991V83.534h25.189v7.393a23.345,23.345,0,0,1,7.447-6.865,18.7,18.7,0,0,1,9.194-2.241q8.55,0,13.517,5.172,5,5.16,5,14.114v35.883H224.485V110.006c0-2.665-.286-4.481-.829-5.488a3.012,3.012,0,0,0-2.9-1.5,3.913,3.913,0,0,0-3.459,1.767,9.354,9.354,0,0,0-1.179,5.221v26.985Zm.222-26.575a26.877,26.877,0,0,1-2.581,11.523,29.4,29.4,0,0,1-17,15.175,37.2,37.2,0,0,1-23.294.039,29.982,29.982,0,0,1-9.673-5.542,28.221,28.221,0,0,1-7.363-9.584,27.142,27.142,0,0,1,0-23.229,28.9,28.9,0,0,1,7.363-9.584,29.983,29.983,0,0,1,9.673-5.542,37.244,37.244,0,0,1,23.294.035,30.405,30.405,0,0,1,9.692,5.508,28.2,28.2,0,0,1,7.3,9.569A27.306,27.306,0,0,1,190.324,110.416ZM159.08,117.7a5.743,5.743,0,0,0,4.555-2.009,7.714,7.714,0,0,0,1.767-5.276,7.831,7.831,0,0,0-1.732-5.3,6.33,6.33,0,0,0-9.214,0,8.981,8.981,0,0,0,0,10.591A5.843,5.843,0,0,0,159.08,117.7ZM130.5,110.416a26.8,26.8,0,0,1-2.581,11.523,29.412,29.412,0,0,1-16.991,15.175,37.213,37.213,0,0,1-23.3.039,30.035,30.035,0,0,1-9.673-5.542,28.268,28.268,0,0,1-7.358-9.584,27.142,27.142,0,0,1,0-23.229,28.951,28.951,0,0,1,7.358-9.584,30.036,30.036,0,0,1,9.673-5.542,37.259,37.259,0,0,1,23.3.035,30.382,30.382,0,0,1,9.688,5.508,28.139,28.139,0,0,1,7.3,9.569A27.233,27.233,0,0,1,130.5,110.416ZM99.258,117.7a5.75,5.75,0,0,0,4.555-2.009,7.711,7.711,0,0,0,1.762-5.276,7.829,7.829,0,0,0-1.727-5.3,6.33,6.33,0,0,0-9.214,0,8.96,8.96,0,0,0,0,10.591A5.843,5.843,0,0,0,99.258,117.7ZM22.152,133.161l6.884-16.5a47.3,47.3,0,0,0,7.857,4.4,16.151,16.151,0,0,0,6.1,1.5,5.277,5.277,0,0,0,3.144-.795,2.675,2.675,0,0,0,1.091-2.26c0-1.337-1.535-2.329-4.6-2.946-1.026-.2-1.836-.37-2.418-.513-5.049-1.234-8.7-3.07-11-5.5a13.487,13.487,0,0,1-3.44-9.638,16.493,16.493,0,0,1,7-13.749q7.018-5.322,18.284-5.33a53.46,53.46,0,0,1,10.783,1.056,43.141,43.141,0,0,1,9.638,3.178l-6.356,16.078A40.448,40.448,0,0,0,58.617,98.5,13.325,13.325,0,0,0,53.6,97.283a4.9,4.9,0,0,0-2.843.74,2.341,2.341,0,0,0-1.1,1.994q0,2.014,6.11,3.321c.952.192,1.712.365,2.26.508q7.81,1.851,11.489,5.453a12.542,12.542,0,0,1,3.672,9.391,17.766,17.766,0,0,1-7.235,14.647Q58.706,139,46.827,139a54.052,54.052,0,0,1-12.673-1.485A54.755,54.755,0,0,1,22.152,133.161Z" transform="translate(0 64.476)" fill="#ffc434"/></g></svg>