<svg xmlns="http://www.w3.org/2000/svg" xmlns:xlink="http://www.w3.org/1999/xlink" width="49" height="44.125" viewBox="0 0 49 44.125"><defs><style>.a{fill:#fff;}.b{clip-path:url(#a);}</style><clipPath id="a"><rect class="a" width="49" height="44" transform="translate(0 -0.093)"/></clipPath></defs><g transform="translate(-195 -85)"><g transform="translate(195 85.218)"><g class="b" transform="translate(0 0)"><path class="a" d="M242.035,297.306a3.177,3.177,0,0,0-4.34-1.168l-7.754,4.476a3.152,3.152,0,0,0-1.8-1.3l-11.864-3.181a5.564,5.564,0,0,0-2.791-.024l-4.175,1.048V295.8a.8.8,0,0,0-.8-.8h-6.362a.8.8,0,0,0-.8.8v.8H195.8a.8.8,0,0,0-.8.8v11.133a.8.8,0,0,0,.8.8h5.566v.8a.8.8,0,0,0,.8.8h6.362a.8.8,0,0,0,.8-.8v-1.1l1.022.511a5.59,5.59,0,0,0,2.489.588h11.91a5.576,5.576,0,0,0,2.783-.746l13.359-7.713a3.19,3.19,0,0,0,1.157-4.344ZM196.59,307.723v-9.543h4.771v9.543Zm11.133,1.59h-4.771V296.59h4.771Zm32.357-9.038-13.36,7.713a3.976,3.976,0,0,1-1.988.533H212.825a3.992,3.992,0,0,1-1.777-.42l-1.734-.87V298.8l4.559-1.14a3.992,3.992,0,0,1,1.995.017l11.865,3.181a1.59,1.59,0,1,1-.823,3.072l-9.485-2.543a.8.8,0,0,0-.411,1.537l9.483,2.545a3.222,3.222,0,0,0,.828.11,3.143,3.143,0,0,0,3.153-3.433l8.009-4.624a1.618,1.618,0,0,1,2.168.582,1.6,1.6,0,0,1-.575,2.171Zm0,0" transform="translate(-195 -267.386)"/></g></g><path class="a" d="M351.8,130.109h2.985c.045.114.091.225.138.332l-2.111,2.111a.8.8,0,0,0,0,1.124l3.372,3.372a.8.8,0,0,0,1.124,0l2.11-2.111c.108.047.219.093.333.138v2.985a.8.8,0,0,0,.8.8h4.771a.8.8,0,0,0,.8-.8v-2.985c.114-.045.225-.091.333-.138l2.11,2.111a.818.818,0,0,0,1.124,0l3.372-3.372a.8.8,0,0,0,0-1.124l-2.111-2.111c.048-.107.093-.218.138-.332h2.985a.8.8,0,0,0,.8-.8v-4.771a.8.8,0,0,0-.8-.8h-2.985c-.045-.114-.091-.225-.138-.333l2.111-2.11a.8.8,0,0,0,0-1.124l-3.372-3.372a.8.8,0,0,0-1.124,0l-2.11,2.111c-.108-.047-.219-.093-.333-.138V115.8a.8.8,0,0,0-.8-.8h-4.771a.8.8,0,0,0-.8.8v2.985c-.114.045-.225.091-.333.138l-2.11-2.111a.818.818,0,0,0-1.124,0l-3.372,3.372a.8.8,0,0,0,0,1.124l2.111,2.11c-.048.108-.093.219-.138.333H351.8a.8.8,0,0,0-.8.8v4.771a.8.8,0,0,0,.8.8Zm.8-4.771h2.752a.8.8,0,0,0,.757-.552,6.505,6.505,0,0,1,.481-1.15.8.8,0,0,0-.135-.944l-1.946-1.951,2.247-2.247,1.95,1.951a.8.8,0,0,0,.945.135,6.43,6.43,0,0,1,1.15-.481.8.8,0,0,0,.547-.757V116.59h3.181v2.752a.8.8,0,0,0,.551.757,6.417,6.417,0,0,1,1.15.481.8.8,0,0,0,.944-.135l1.951-1.951,2.246,2.247-1.95,1.951a.8.8,0,0,0-.135.944,6.505,6.505,0,0,1,.481,1.15.8.8,0,0,0,.757.552h2.752v3.181h-2.752a.8.8,0,0,0-.757.552,6.506,6.506,0,0,1-.481,1.15.8.8,0,0,0,.135.944l1.95,1.951-2.246,2.247-1.951-1.951a.8.8,0,0,0-.944-.135,6.418,6.418,0,0,1-1.15.481.8.8,0,0,0-.551.757v2.752h-3.181v-2.752a.8.8,0,0,0-.551-.757,6.42,6.42,0,0,1-1.15-.481.8.8,0,0,0-.944.135l-1.951,1.951-2.243-2.247,1.95-1.951a.8.8,0,0,0,.135-.944,6.516,6.516,0,0,1-.481-1.15.8.8,0,0,0-.761-.552H352.59Zm0,0" transform="translate(-135.325 -26.024)"/><path class="a" d="M409.771,178.542a4.771,4.771,0,1,1,4.771-4.771,4.77,4.77,0,0,1-4.771,4.771Zm0-7.952a3.181,3.181,0,1,0,3.181,3.181,3.181,3.181,0,0,0-3.181-3.181Zm0,0" transform="translate(-182.167 -72.867)"/><path class="a" d="M228.543,100.9h-3.181a.8.8,0,0,1-.8-.8v-1.4l-.988.988a.8.8,0,0,1-1.124,0L220.2,97.45a.8.8,0,0,1,0-1.124l.988-.988h-1.4a.8.8,0,0,1-.8-.8V91.362a.8.8,0,0,1,.8-.8h1.4l-.988-.988a.8.8,0,0,1,0-1.124l2.251-2.251a.8.8,0,0,1,1.124,0l.988.988V85.8a.8.8,0,0,1,.8-.8h3.181a.8.8,0,0,1,.8.8v1.4l.988-.988a.8.8,0,0,1,1.124,0l2.251,2.251a.8.8,0,0,1,0,1.124l-.988.988h1.4a.8.8,0,0,1,.8.8v3.181a.8.8,0,0,1-.8.8h-1.4l.988.988a.8.8,0,0,1,0,1.124L231.45,99.7a.8.8,0,0,1-1.124,0l-.988-.988v1.4a.8.8,0,0,1-.8.8Zm-2.386-1.59h1.59V97.445a.8.8,0,0,1,.567-.762,1.861,1.861,0,0,0,.318-.133.794.794,0,0,1,.931.142l1.323,1.322,1.126-1.126-1.323-1.322a.8.8,0,0,1-.142-.931,1.79,1.79,0,0,0,.135-.322.8.8,0,0,1,.763-.565h1.869v-1.59h-1.869a.8.8,0,0,1-.761-.565,1.76,1.76,0,0,0-.134-.322.8.8,0,0,1,.142-.931l1.322-1.322-1.126-1.126-1.322,1.325a.8.8,0,0,1-.931.142,1.82,1.82,0,0,0-.318-.134.8.8,0,0,1-.57-.764V86.59h-1.59v1.869a.8.8,0,0,1-.567.762,1.863,1.863,0,0,0-.318.133.794.794,0,0,1-.931-.142l-1.325-1.322-1.126,1.126,1.325,1.322a.8.8,0,0,1,.142.931,1.788,1.788,0,0,0-.135.322.8.8,0,0,1-.761.565H220.59v1.59h1.869a.8.8,0,0,1,.761.565,1.759,1.759,0,0,0,.134.322.8.8,0,0,1-.142.931l-1.322,1.322,1.126,1.126,1.322-1.325a.8.8,0,0,1,.931-.142,1.822,1.822,0,0,0,.318.134.8.8,0,0,1,.57.764Zm0,0" transform="translate(-20.819)"/><path class="a" d="M258.181,127.361a3.181,3.181,0,1,1,3.181-3.181,3.181,3.181,0,0,1-3.181,3.181Zm0-4.771a1.59,1.59,0,1,0,1.59,1.59,1.59,1.59,0,0,0-1.59-1.59Zm0,0" transform="translate(-52.048 -31.229)"/></g></svg>