<svg xmlns="http://www.w3.org/2000/svg" xmlns:xlink="http://www.w3.org/1999/xlink" width="72.088" height="65" viewBox="0 0 72.088 65"><defs><clipPath id="a"><rect width="71" height="65" transform="translate(0 -0.333)" fill="#fff"/></clipPath></defs><g transform="translate(-256 -25.989)"><g transform="translate(256 26.322)"><g transform="translate(0 0)" clip-path="url(#a)"><path d="M326.486,34.511l-33.931-8.448a2.111,2.111,0,0,0-1.021,0L257.6,34.511a2.112,2.112,0,0,0,0,4.1l33.932,8.448a2.129,2.129,0,0,0,1.021,0l31.309-7.8v9.97a2.112,2.112,0,1,0,4.224,0V36.56a2.112,2.112,0,0,0-1.6-2.049Zm0,0" transform="translate(-255.999 -26.601)" fill="#fff"/></g></g><path d="M358.874,168.49a6.341,6.341,0,0,1-3.062,0L332,162.562v20.2h50.686v-20.2Zm0,0" transform="translate(-65.299 -117.613)" fill="#fff"/><path d="M328.087,338.112A2.112,2.112,0,0,0,325.975,336H266.56a10.56,10.56,0,0,0,0,21.119h59.416a2.112,2.112,0,0,0,0-4.224H266.56a6.336,6.336,0,1,1,0-12.671h59.416a2.112,2.112,0,0,0,2.112-2.112Zm0,0" transform="translate(0 -266.632)" fill="#fff"/><path d="M316,398.112a2.114,2.114,0,0,0,2.112,2.112h57.3V396h-57.3A2.115,2.115,0,0,0,316,398.112Zm0,0" transform="translate(-51.552 -318.184)" fill="#fff"/></g></svg>