<svg xmlns="http://www.w3.org/2000/svg" xmlns:xlink="http://www.w3.org/1999/xlink" width="81.9" height="65" viewBox="0 0 81.9 65"><defs><clipPath id="a"><rect width="81.9" height="65" fill="#4fb25d"/></clipPath></defs><g transform="translate(-459 -214)"><g transform="translate(459 214)"><g transform="translate(0 0)"><g clip-path="url(#a)"><path d="M532.051,254.789l-29-23.91-29,23.91a.581.581,0,0,1-.024.151.775.775,0,0,0-.024.151V279.3a3.277,3.277,0,0,0,3.225,3.228h51.648A3.277,3.277,0,0,0,532.1,279.3V255.091A.705.705,0,0,0,532.051,254.789Zm-29.42,23.888A15.978,15.978,0,1,1,518.609,262.7,15.978,15.978,0,0,1,502.631,278.677Z" transform="translate(-462.393 -217.818)" fill="#4fb25d"/><path d="M539.751,245.523l-11.045-9.18V215.765a1.552,1.552,0,0,0-1.614-1.613h-9.682a1.552,1.552,0,0,0-1.614,1.613V225.6l-12.305-10.289a6.253,6.253,0,0,0-7.665,0L459.56,245.523a1.46,1.46,0,0,0-.553,1.083,1.645,1.645,0,0,0,.354,1.188l3.125,3.73a1.718,1.718,0,0,0,1.058.556,1.875,1.875,0,0,0,1.212-.354l34.9-29.1,34.9,29.1a1.545,1.545,0,0,0,1.058.354h.154a1.724,1.724,0,0,0,1.058-.556l3.128-3.733a1.632,1.632,0,0,0,.35-1.185,1.464,1.464,0,0,0-.556-1.083Zm0,0" transform="translate(-459 -214)" fill="#4fb25d"/></g></g></g><path d="M499.626,268.339v2.737h15.329v-2.737a2.741,2.741,0,0,1,2.738-2.738h.548v-1.643a1.645,1.645,0,0,0-1.643-1.642H497.983a1.644,1.644,0,0,0-1.642,1.642V265.6h.547A2.741,2.741,0,0,1,499.626,268.339Zm19.162-1.643h-1.095a1.644,1.644,0,0,0-1.642,1.643v3.285a.548.548,0,0,1-.548.547H499.078a.547.547,0,0,1-.547-.547v-3.285a1.645,1.645,0,0,0-1.643-1.643h-1.095a1.645,1.645,0,0,0-1.643,1.643v6.57a1.645,1.645,0,0,0,1.643,1.643h.548v1.642a.547.547,0,0,0,.547.548h3.285a.548.548,0,0,0,.548-.548v-1.642H513.86v1.642a.548.548,0,0,0,.548.548h3.285a.548.548,0,0,0,.548-.548v-1.642h.547a1.645,1.645,0,0,0,1.643-1.643v-6.57A1.645,1.645,0,0,0,518.787,266.7Z" transform="translate(-7.951 -10.929)" fill="#4fb25d"/></g></svg>