<svg xmlns="http://www.w3.org/2000/svg" width="64.224" height="74.235" viewBox="0 0 64.224 74.235"><defs><style>.a{fill:#fff;}</style></defs><g transform="translate(-761 -741)"><g transform="translate(761 741)"><path class="a" d="M816.893,746.988h-.547V746.6a5.6,5.6,0,1,0-11.193,0v.392h-6.445V746.6a5.6,5.6,0,0,0-11.193,0v.392h-6.446V746.6a5.6,5.6,0,1,0-11.192,0v.392h-.547A8.331,8.331,0,0,0,761,755.319v51.587a8.33,8.33,0,0,0,8.331,8.33h47.563a8.33,8.33,0,0,0,8.331-8.33V755.319a8.331,8.331,0,0,0-8.331-8.331Zm-7.669-.392a1.526,1.526,0,0,1,3.052,0v7.447a1.526,1.526,0,1,1-3.052,0Zm-17.638,0a1.526,1.526,0,0,1,3.052,0v7.447a1.526,1.526,0,1,1-3.052,0Zm-17.639,0a1.526,1.526,0,0,1,3.053,0v7.447a1.526,1.526,0,0,1-3.053,0Zm44.612,60a1.842,1.842,0,0,1-1.665,1.975H769.331a1.842,1.842,0,0,1-1.666-1.975v-43.52h50.894Zm0,0" transform="translate(-761 -741)"/></g><g transform="translate(776.125 774.986)"><path class="a" d="M837.229,913.719a3.975,3.975,0,0,1-.4-.02,3.86,3.86,0,0,1-2.9-1.794l-7.291-11.564a2.9,2.9,0,0,1,4.906-3.093l5.984,9.491,17.575-18.346a2.9,2.9,0,0,1,4.188,4.012l-19.271,20.116A3.857,3.857,0,0,1,837.229,913.719Z" transform="translate(-826.198 -887.5)"/></g></g></svg>