<svg xmlns="http://www.w3.org/2000/svg" width="31" height="21" viewBox="0 0 31 21"><defs><style>.a,.d{fill:#fff;}.b{fill:#ff6f00;}.c{fill:#109c0c;}.d,.e{stroke:#0090ff;}.e,.g{fill:none;}.f{stroke:none;}</style></defs><g transform="translate(-1011 -436)"><rect class="a" width="31" height="21" rx="4" transform="translate(1011 436)"/><path class="b" d="M4,0H27a4,4,0,0,1,4,4V7a0,0,0,0,1,0,0H0A0,0,0,0,1,0,7V4A4,4,0,0,1,4,0Z" transform="translate(1011 436)"/><path class="c" d="M0,0H31a0,0,0,0,1,0,0V3a4,4,0,0,1-4,4H4A4,4,0,0,1,0,3V0A0,0,0,0,1,0,0Z" transform="translate(1011 450)"/><g class="d" transform="translate(1023 443)"><circle class="f" cx="3.5" cy="3.5" r="3.5"/><circle class="g" cx="3.5" cy="3.5" r="3"/></g><line class="e" y2="6" transform="translate(1026.5 443.5)"/><line class="e" x2="6" transform="translate(1023.5 446.5)"/><line class="e" x2="4" y2="4" transform="translate(1024.5 444.5)"/><line class="e" y1="4" x2="4" transform="translate(1024.5 444.5)"/></g></svg>