<svg xmlns="http://www.w3.org/2000/svg" width="26" height="23.572" viewBox="0 0 26 23.572"><defs><style>.a,.b{fill:#f26666;}.a{stroke:#f26666;}.b{stroke:#f16666;stroke-width:0.6px;}</style></defs><g transform="translate(-1334.5 -367.017)"><g transform="translate(478.921 -315.788)"><path class="a" d="M856.119,685.633a2.706,2.706,0,0,1,2.533-2.323c.1-.005.2-.006.293-.006h19.285a2.733,2.733,0,0,1,2.717,1.9,2.763,2.763,0,0,1,.132.863q0,5.945,0,11.889a2.7,2.7,0,0,1-2.685,2.739c-.708.016-1.416.007-2.124,0a.544.544,0,0,1-.615-.542.552.552,0,0,1,.623-.54c.659,0,1.318,0,1.977,0a1.639,1.639,0,0,0,1.741-1.72q.008-5.884,0-11.767a1.645,1.645,0,0,0-1.734-1.73c-.513-.007-1.025,0-1.538,0q-8.861,0-17.722,0a1.7,1.7,0,0,0-1.664.927,1.775,1.775,0,0,0-.173.826q0,5.859,0,11.718a1.647,1.647,0,0,0,1.762,1.749c.651,0,1.3,0,1.953,0,.383,0,.622.212.627.535a.491.491,0,0,1-.417.524,12.087,12.087,0,0,1-2.966-.074,2.6,2.6,0,0,1-1.991-2.083c-.011-.044.008-.1-.052-.125v-12.5C856.136,685.81,856.078,685.714,856.119,685.633Z" transform="translate(0)"/><path class="a" d="M856.119,719.8a.284.284,0,0,1-.04.255v-.244Z" transform="translate(0 -34.163)"/><path class="a" d="M900.665,725.165a2.991,2.991,0,0,1-1.856-.577q-4.141-2.989-8.28-5.982a.567.567,0,0,1-.209-.835.556.556,0,0,1,.822-.059c.556.4,1.108.8,1.662,1.2l6.561,4.739a1.763,1.763,0,0,0,2.328,0q4.061-2.934,8.123-5.866a1.729,1.729,0,0,1,.29-.177.523.523,0,0,1,.648.177.54.54,0,0,1-.035.655,1.359,1.359,0,0,1-.219.192q-4.1,2.963-8.2,5.925A2.891,2.891,0,0,1,900.665,725.165Z" transform="translate(-31.952 -32.071)"/></g><g transform="translate(524.596 -361.851)"><path class="b" d="M896.338,906.439a.108.108,0,0,1,.138,0Z" transform="translate(-73.636 -154.299)"/><path class="b" d="M901.861,906.446a.11.11,0,0,1,.139,0Z" transform="translate(-78.766 -154.306)"/><path class="b" d="M817.071,826.527c.029.026.023.06.021.093-.008.015-.015.015-.021,0Z" transform="translate(0 -80.087)"/><path class="b" d="M817.09,819.221a.067.067,0,0,1-.019.071v-.069C817.076,819.207,817.083,819.206,817.09,819.221Z" transform="translate(0 -73.29)"/><path class="b" d="M817.09,818.776h-.019v-.046C817.093,818.739,817.092,818.757,817.09,818.776Z" transform="translate(0 -72.845)"/><path class="b" d="M817.071,827.827h.021c0,.019,0,.037-.021.045Z" transform="translate(0 -81.295)"/><path class="b" d="M828.855,745.263a5.205,5.205,0,0,0-.506-1.609,6.039,6.039,0,0,0-1.444-1.893,5.941,5.941,0,0,0-2.139-1.214,3.96,3.96,0,0,0-.863-.2,12.835,12.835,0,0,0-1.346-.031,4.8,4.8,0,0,0-1.423.247,5.873,5.873,0,0,0-1.847,1,6.127,6.127,0,0,0-1.136,1.187,5.985,5.985,0,0,0-.672,1.192,4.9,4.9,0,0,0-.369,1.316c-.02.163-.016.328-.04.49v.139c.015.014.01.033.012.051s.007.046-.012.064v.439c.021.026.007.056.012.084s.005.039-.012.055v.138c.025.166.02.335.042.5a5.166,5.166,0,0,0,.5,1.587,5.873,5.873,0,0,0,.9,1.356,6.328,6.328,0,0,0,.985.9,5.824,5.824,0,0,0,1.171.663,4.931,4.931,0,0,0,1.325.376c.167.021.335.016.5.042h.208a.182.182,0,0,1,.139,0h.254a.181.181,0,0,1,.138,0h.208c.027-.021.059-.009.089-.011a5.232,5.232,0,0,0,.72-.074,5.874,5.874,0,0,0,1.7-.662,6.04,6.04,0,0,0,2.516-2.841,5.9,5.9,0,0,0,.357-1.165,5.112,5.112,0,0,0,.067-.79A7.541,7.541,0,0,0,828.855,745.263Zm-9.446,3.505c-.013.014-.028.026-.047.043a4.084,4.084,0,0,1-.49-.9,4.455,4.455,0,0,1,2.769-5.9,4.352,4.352,0,0,1,1.9-.174,4.518,4.518,0,0,1,1.936.718c.063.042.085.062.019.127Q822.451,745.724,819.409,748.768Zm6.7.591a4.42,4.42,0,0,1-5.692.494l6.186-6.186A4.421,4.421,0,0,1,826.106,749.359Z" transform="translate(0 0)"/></g></g></svg>