<svg xmlns="http://www.w3.org/2000/svg" width="59.151" height="72.108" viewBox="0 0 59.151 72.108"><path d="M526.288,290.5a14.788,14.788,0,1,0,14.788,14.788A14.806,14.806,0,0,0,526.288,290.5Zm5.718,13.112-6.338,6.338a2.111,2.111,0,0,1-2.987,0l-3.169-3.169a2.112,2.112,0,0,1,2.987-2.987l1.675,1.675,4.844-4.843a2.112,2.112,0,0,1,2.987,2.987Zm0,0" transform="translate(-481.924 -247.968)" fill="#fff"/><path d="M398.363,64H356.112A2.111,2.111,0,0,0,354,66.113v59.433a2.111,2.111,0,0,0,2.113,2.113h24.367c-.007-.022-.02-.042-.027-.064a17.427,17.427,0,0,1-1.1-6.274,19.034,19.034,0,0,1,19.013-19.013,18.588,18.588,0,0,1,2.113.214V66.113A2.111,2.111,0,0,0,398.363,64Zm-33.8,42.532a2.113,2.113,0,1,1,2.112-2.113,2.112,2.112,0,0,1-2.112,2.113Zm0-8.45a2.113,2.113,0,1,1,2.112-2.113,2.112,2.112,0,0,1-2.112,2.113Zm0-8.45a2.113,2.113,0,1,1,2.112-2.113,2.112,2.112,0,0,1-2.112,2.113Zm0-8.45a2.113,2.113,0,1,1,2.112-2.113,2.112,2.112,0,0,1-2.112,2.113Zm16.9,25.35h-8.45a2.113,2.113,0,1,1,0-4.225h8.45a2.113,2.113,0,0,1,0,4.225Zm8.45-8.45h-16.9a2.113,2.113,0,0,1,0-4.225h16.9a2.113,2.113,0,0,1,0,4.225Zm0-8.45h-16.9a2.113,2.113,0,0,1,0-4.225h16.9a2.113,2.113,0,0,1,0,4.225Zm0-8.45h-16.9a2.113,2.113,0,1,1,0-4.225h16.9a2.113,2.113,0,1,1,0,4.225Zm0,0" transform="translate(-354 -64)" fill="#fff"/></svg>