<svg xmlns="http://www.w3.org/2000/svg" width="16" height="16" viewBox="0 0 16 16"><defs><style>.a{fill:#fff;}</style></defs><g transform="translate(-119 6)"><path class="a" d="M124.781-1h-4.687A1.1,1.1,0,0,1,119-2.094V-4.906A1.1,1.1,0,0,1,120.094-6h4.688a1.1,1.1,0,0,1,1.094,1.094v2.813A1.1,1.1,0,0,1,124.781-1Zm-4.687-4.063a.156.156,0,0,0-.156.156v2.813a.156.156,0,0,0,.156.156h4.688a.156.156,0,0,0,.156-.156V-4.906a.156.156,0,0,0-.156-.156Zm0,0" transform="translate(0 0)"/><path class="a" d="M124.781,216.082h-4.687A1.1,1.1,0,0,1,119,214.988v-6.562a1.1,1.1,0,0,1,1.094-1.094h4.688a1.1,1.1,0,0,1,1.094,1.094v6.563a1.1,1.1,0,0,1-1.094,1.094Zm-4.687-7.813a.156.156,0,0,0-.156.156v6.563a.156.156,0,0,0,.156.156h4.688a.156.156,0,0,0,.156-.156v-6.562a.156.156,0,0,0-.156-.156Zm0,0" transform="translate(0 -206.082)"/><path class="a" d="M402.113,340.332h-4.687a1.1,1.1,0,0,1-1.094-1.094v-2.812a1.1,1.1,0,0,1,1.094-1.094h4.688a1.1,1.1,0,0,1,1.094,1.094v2.813a1.1,1.1,0,0,1-1.094,1.094Zm-4.687-4.063a.156.156,0,0,0-.156.156v2.813a.156.156,0,0,0,.156.156h4.688a.156.156,0,0,0,.156-.156v-2.812a.156.156,0,0,0-.156-.156Zm0,0" transform="translate(-268.207 -330.332)"/><path class="a" d="M402.113,2.75h-4.687a1.1,1.1,0,0,1-1.094-1.094V-4.906A1.1,1.1,0,0,1,397.426-6h4.688a1.1,1.1,0,0,1,1.094,1.094V1.656a1.1,1.1,0,0,1-1.094,1.094Zm-4.687-7.813a.156.156,0,0,0-.156.156V1.656a.156.156,0,0,0,.156.156h4.688a.156.156,0,0,0,.156-.156V-4.906a.156.156,0,0,0-.156-.156Zm0,0" transform="translate(-268.207 0)"/></g></svg>