<svg xmlns="http://www.w3.org/2000/svg" xmlns:xlink="http://www.w3.org/1999/xlink" width="611.789" height="463.423" viewBox="0 0 611.789 463.423"><defs><style>.a{fill:#bdbdbd;}.b{fill:url(#a);}.c{fill:#dedede;}.d{fill:#f2f2f2;}.e,.g{fill:none;}.e{stroke:#dedede;stroke-miterlimit:10;stroke-width:2px;}.f{fill:#e64d4e;}.g{stroke:#707070;stroke-linecap:round;stroke-width:9px;}.h{fill:#ffd3bc;}.i{fill:url(#b);}.j{fill:#192b59;}.k{fill:url(#c);}.l{fill:url(#d);}.m{fill:url(#e);}.n{fill:url(#f);}.o{fill:#f2dad4;}.p{fill:url(#g);}.q{fill:url(#h);}</style><linearGradient id="a" x1="0.5" y1="-0.227" x2="0.5" y2="0.559" gradientUnits="objectBoundingBox"><stop offset="0" stop-color="#e5e5e5"/><stop offset="0.476" stop-color="#f3f3f3"/><stop offset="1" stop-color="#f9f9f9"/></linearGradient><linearGradient id="b" x1="86.402" y1="0.412" x2="87.007" y2="0.823" gradientUnits="objectBoundingBox"><stop offset="0" stop-color="#4e9cff"/><stop offset="0.984" stop-color="#176ad4"/></linearGradient><linearGradient id="c" x1="1.154" y1="0.568" x2="0.42" y2="0.49" gradientUnits="objectBoundingBox"><stop offset="0" stop-color="#f2bfad"/><stop offset="1" stop-color="#f2dad4"/></linearGradient><linearGradient id="d" x1="0.202" y1="0.241" x2="1.023" y2="0.87" xlink:href="#b"/><linearGradient id="e" x1="0.51" y1="0.622" x2="0.569" y2="1.822" gradientUnits="objectBoundingBox"><stop offset="0" stop-color="#f2bfad"/><stop offset="0.704" stop-color="#f2dad4"/></linearGradient><linearGradient id="f" x1="0.404" y1="0.306" x2="0.835" y2="1.076" xlink:href="#c"/><linearGradient id="g" x1="0.386" y1="0.075" x2="0.681" y2="1.17" gradientUnits="objectBoundingBox"><stop offset="0" stop-color="#f6dbdb"/><stop offset="1" stop-color="#eb9a99"/></linearGradient><linearGradient id="h" x1="0.314" y1="0.412" x2="0.919" y2="0.823" xlink:href="#b"/></defs><g transform="translate(-756 -594)"><g transform="translate(756 787.095)"><path class="a" d="M1776.019,910.486a4.251,4.251,0,0,0-8.4,1.313c.61,3.959,1.386,16.363-2.893,21.353a5.712,5.712,0,0,1-3.451,1.984l.39-23.623a6.144,6.144,0,1,0-12.286.051l1.11,44.831a5.735,5.735,0,0,1-3.6-2c-4.281-4.991-3.5-17.394-2.894-21.353a4.25,4.25,0,1,0-8.4-1.314c-.305,1.951-2.762,19.318,4.828,28.189a14.391,14.391,0,0,0,10.272,5.05l.483,19.513h9.276l.673-40.769a14.363,14.363,0,0,0,10.056-5.033C1778.781,929.8,1776.324,912.437,1776.019,910.486Z" transform="translate(-1272.494 -905.268)"/><path class="a" d="M1213.468,965.915a2.709,2.709,0,1,0-5.354.837c.388,2.524.883,10.43-1.845,13.612a3.643,3.643,0,0,1-2.2,1.265l.248-15.059a3.917,3.917,0,1,0-7.832.033l.708,28.578a3.652,3.652,0,0,1-2.292-1.276c-2.728-3.181-2.234-11.089-1.845-13.612a2.709,2.709,0,1,0-5.354-.837c-.195,1.244-1.762,12.315,3.078,17.969a9.174,9.174,0,0,0,6.548,3.218l.308,12.44h5.913l.429-25.989a9.161,9.161,0,0,0,6.411-3.208C1215.229,978.229,1213.662,967.159,1213.468,965.915Z" transform="translate(-1106 -922.694)"/><ellipse class="b" cx="305.894" cy="108.292" rx="305.894" ry="108.292" transform="translate(0 53.743)"/></g><g transform="translate(808.886 598.117)"><g transform="translate(0 24.579)"><path class="c" d="M2766.385,641.9a2.584,2.584,0,1,0-2.584-2.584A2.587,2.587,0,0,0,2766.385,641.9Zm0-3.787a1.2,1.2,0,1,1-1.2,1.2A1.2,1.2,0,0,1,2766.385,638.117Z" transform="translate(-2718.155 -600.881)"/><path class="c" d="M2527.117,984.572a.594.594,0,0,1,.813-.209l1.969,1.163,1.163-1.968a.593.593,0,0,1,1.021.6l-1.163,1.969,1.969,1.163a.593.593,0,0,1-.6,1.021l-1.969-1.163-1.163,1.969a.593.593,0,1,1-1.021-.6l1.163-1.969-1.969-1.163A.594.594,0,0,1,2527.117,984.572Z" transform="translate(-2429.705 -870.338)"/><path class="c" d="M2567.7,1029.664a2.584,2.584,0,1,0-2.584-2.584A2.587,2.587,0,0,0,2567.7,1029.664Zm0-3.787a1.2,1.2,0,1,1-1.2,1.2A1.2,1.2,0,0,1,2567.7,1025.877Z" transform="translate(-2475.276 -902.397)"/><path class="c" d="M2937.364,1415.492a.593.593,0,0,1,.274.793l-1,2.056,2.056,1a.593.593,0,0,1-.52,1.067l-2.055-1-1,2.056a.593.593,0,1,1-1.066-.52l1-2.056-2.055-1a.6.6,0,0,1-.33-.6.586.586,0,0,1,.056-.191.593.593,0,0,1,.792-.273l2.056,1,1-2.056A.593.593,0,0,1,2937.364,1415.492Z" transform="translate(-2925.768 -1206.383)"/><path class="c" d="M2689.58,1625.694a2.584,2.584,0,1,0-2.584-2.584A2.587,2.587,0,0,0,2689.58,1625.694Zm0-3.787a1.2,1.2,0,1,1-1.2,1.2A1.2,1.2,0,0,1,2689.58,1621.907Z" transform="translate(-2624.268 -1365.861)"/><path class="c" d="M1584.837,1551.861a.593.593,0,0,1,.045.838l-1.526,1.7,1.7,1.526a.593.593,0,0,1-.792.883l-1.7-1.527-1.527,1.7a.593.593,0,0,1-.883-.792l1.526-1.7-1.7-1.526a.594.594,0,0,1-.152-.669.587.587,0,0,1,.106-.169.594.594,0,0,1,.838-.045l1.7,1.526,1.527-1.7A.594.594,0,0,1,1584.837,1551.861Z" transform="translate(-1271.097 -1312.35)"/><path class="c" d="M1798.808,1723.422a2.584,2.584,0,1,0-2.584-2.584A2.587,2.587,0,0,0,1798.808,1723.422Zm0-3.787a1.2,1.2,0,1,1-1.2,1.2A1.2,1.2,0,0,1,1798.808,1719.635Z" transform="translate(-1535.374 -1441.853)"/><path class="c" d="M1601.18,847.436a.593.593,0,0,1,.027.839l-1.564,1.668,1.668,1.564a.593.593,0,1,1-.812.865l-1.667-1.564-1.564,1.668a.593.593,0,0,1-.865-.812l1.564-1.668-1.668-1.564a.593.593,0,0,1,.812-.865l1.668,1.565,1.564-1.668A.594.594,0,0,1,1601.18,847.436Z" transform="translate(-1290.97 -764.593)"/><path class="c" d="M1666.181,911.035a2.584,2.584,0,1,0-2.584-2.584A2.587,2.587,0,0,0,1666.181,911.035Zm0-3.787a1.2,1.2,0,1,1-1.2,1.2A1.2,1.2,0,0,1,1666.181,907.248Z" transform="translate(-1373.248 -810.153)"/><path class="c" d="M2965.242,945.517a.593.593,0,0,1,.5.672l-.326,2.263,2.263.326a.593.593,0,0,1-.169,1.174l-2.263-.327-.327,2.263a.593.593,0,1,1-1.174-.169l.326-2.263-2.263-.326a.593.593,0,0,1,.17-1.174l2.263.326.327-2.263A.594.594,0,0,1,2965.242,945.517Z" transform="translate(-2961.303 -840.979)"/><path class="c" d="M2134.584,475.532a.593.593,0,0,1,.653.527l.242,2.274,2.274-.242a.593.593,0,0,1,.125,1.18l-2.274.242.242,2.274a.593.593,0,0,1-1.18.126l-.242-2.274-2.274.242a.594.594,0,0,1-.6-.335.585.585,0,0,1-.054-.192.594.594,0,0,1,.527-.653l2.274-.242-.242-2.274A.594.594,0,0,1,2134.584,475.532Z" transform="translate(-1946.96 -475.529)"/></g><g transform="translate(61.702 0)"><path class="d" d="M2288.729,365.018a10.732,10.732,0,0,1,10.734,10.732V474.9a14.087,14.087,0,0,0,14.086,14.087H2383.5V378.325a13.307,13.307,0,0,0-13.308-13.307Z" transform="translate(-2288.729 -365.018)"/><path class="c" d="M2443.412,676.04h35.552V616.305a10.733,10.733,0,1,0-21.466,0v45.648A14.087,14.087,0,0,1,2443.412,676.04Z" transform="translate(-2418.592 -552.069)"/><path class="d" d="M1859.4,605.572a10.733,10.733,0,0,1,10.733,10.733V816.144a13.308,13.308,0,0,0,13.307,13.307h103.279a13.307,13.307,0,0,0,13.307-13.307V618.879a13.307,13.307,0,0,0-13.307-13.307Z" transform="translate(-1809.759 -552.069)"/><path class="c" d="M1723.985,1537.107h133.4a13.307,13.307,0,0,0,13.307-13.307v-8.159h-133.4v8.159A13.307,13.307,0,0,1,1723.985,1537.107Z" transform="translate(-1650.306 -1259.725)"/><line class="e" x1="46.863" transform="translate(47.912 53.891)"/></g></g><path class="f" d="M23.795,3.375a20.42,20.42,0,1,0,20.42,20.42A20.417,20.417,0,0,0,23.795,3.375Zm5.174,27.812-5.174-5.174-5.174,5.174A1.569,1.569,0,1,1,16.4,28.969l5.174-5.174L16.4,18.621A1.569,1.569,0,0,1,18.621,16.4l5.174,5.174L28.969,16.4a1.569,1.569,0,0,1,2.219,2.219l-5.174,5.174,5.174,5.174a1.576,1.576,0,0,1,0,2.219A1.558,1.558,0,0,1,28.969,31.187Z" transform="translate(976.51 683.102)"/><line class="g" x2="90.788" transform="translate(951.238 753.98)"/><line class="g" x2="90.788" transform="translate(951.238 791.001)"/><line class="g" x2="90.788" transform="translate(952.119 828.021)"/><line class="g" x2="45.835" transform="translate(951.238 772.491)"/><line class="g" x2="45.835" transform="translate(951.238 809.511)"/><line class="g" x2="35.257" transform="translate(1006.768 772.491)"/><line class="g" x2="35.257" transform="translate(1006.768 809.511)"/><g transform="translate(1071.246 594)"><path class="h" d="M1574.971,949.18s-.177,10.421,0,11.465-4.079,7.151-5.819,6.881-5.219-.851-5.721-1.43-.281-1.947-.1-3.2,1.48-12.6,1.48-13.178S1573.038,947.6,1574.971,949.18Z" transform="translate(-1473.792 -675.951)"/><path class="i" d="M1567.688,964.731c-2.176,1.176-3.4,4.755-3.707,4.8s-.885-.044-.885-.4.088-1.547-.309-1.547-.84,1.945-.928,4.774-1.095,9.576,0,10.434c.686.538,6.985,3.846,7.162,4.288s-.133,3.537.4,4.023,1.768,1.68,2.74,1.725,6.588.619,9.24,0,6.012-1.9,6.1-2.255-.663-7.869-1.5-8.8-6.9-9.239-7.383-9.991a8.579,8.579,0,0,1-.84-3.625c0-1.061-.96-3.376-2.746-3.933A12.491,12.491,0,0,0,1567.688,964.731Z" transform="translate(-1473.256 -680.636)"/><path class="h" d="M1488.806,957.838s0,6.069-.175,7.113,4.08,7.151,5.819,6.881,5.219-.85,5.721-1.43.282-1.947.1-3.2-1.3-8.246-1.3-8.826S1490.739,956.253,1488.806,957.838Z" transform="translate(-1451.147 -678.583)"/><path class="j" d="M1493.117,765.075c-2.462,8.953-7.119,39.627-7.119,54.532s-1.491,52.913-1.491,58.689-.622,20.106.871,20.852,4.976,2.985,9.7,2.239,5.971-3.732,6.095-6.469,1.244-22.39,2.364-29.977,5.1-22.222,7.713-31.635,8.707-28.341,10.324-28.269,11.69,41.54,12.53,43.89,2.439,35.742,2.542,38.543,0,5.5,1.765,6.642,7.16,3.943,9.962,4.151,4.669-4.255,5.189-5.6,1.439-46.011,1.107-58.263.637-35.1.07-42.548-2.388-23.415-3.547-26.774S1493.117,765.075,1493.117,765.075Z" transform="translate(-1449.855 -619.74)"/><path class="k" d="M1466.712,598.984c2.35-2.611,13.317-14.972,15.494-15.407s7.473-1.393,8.654-2.611,6.177-16.9,4.2-19.755-9.609-2.043-11.921,2.812-2.2,7.4-6.012,10.753-20.439,16.945-21.987,18.318,1.523,8.044,3.95,9.2S1466.712,598.984,1466.712,598.984Z" transform="translate(-1440.839 -557.719)"/><path class="l" d="M1490.957,616.821c-5.6,1.175-14.913,2.169-17.986,3.163s-15.184,5.242-15.094,3.435,5.6-9.761,4.61-10.575-6.959-1.807-7.953-3.073-2.35-4.248-3.706-3.886-17.074,15-16,20.607c2.537,13.214,39.685,22.843,40.532,28.606s-2.881,61.024-.848,63.057,23.562,9.832,34.411,10.51,29.879-3.1,30.918-5.958-5.294-57.762-4.559-57.762.942,17.284,9.205,21.753c5.455,2.95,12.959-.089,14.395-1.717s-5.127-24.606-8.1-32.355-5.811-23.761-12.527-29.443-16.194-4.715-19.458-6.051-14.213-.379-16.974-.667S1490.957,616.821,1490.957,616.821Z" transform="translate(-1434.776 -571.79)"/><path class="m" d="M1611.018,700.727s-9.66,2.92-10.414,3.925-2.094,5.024,0,6.7,4.389,2.927,6.873,1,4.748-4.534,6.183-4.862,5.728.289,7.531-.419,5.222-14.372,3.842-15.2S1611.018,700.727,1611.018,700.727Z" transform="translate(-1484.847 -597.922)"/><path class="f" d="M1510.9,600.1c-3.118-.647-9.136-6.533-9.689-12.514-.538-5.828-4.823-22.205,10.094-28.347,14-5.764,28.4.166,30.47,7.274,1.934,6.638-14.5,6.936-20.52,11.259s-6.433,7.193-7.936,6.51S1510.9,600.1,1510.9,600.1Z" transform="translate(-1454.675 -556.912)"/><path class="n" d="M1515.029,600.991c-.2,2.669-.869,15.579.248,17.48,1.027,1.746,2.85,6.819,10,6.595s11.793-7.378,12.184-8.216-.448-11.178-.448-12.911-9.613-5.813-13.469-5.7S1515.214,598.48,1515.029,600.991Z" transform="translate(-1459.057 -569.474)"/><path class="o" d="M1513.253,593.115c.807-.023-.146,4.9,1.316,6.5s7.823,9.993,14.555,9.173c5.821-.709,4.986-5.725,5.825-9.855.761-3.75,3.181-4.072,4.031-13.863.329-3.79,2.119-9.721-1.17-10.817s-15.64-4.02-18.71,0-3.362,13.667-4.97,12.425-4.97-7.309-6.943-4.02S1508.94,593.239,1513.253,593.115Z" transform="translate(-1456.624 -561.56)"/><path class="p" d="M1582.06,673.738l-19.591,24.769a1.946,1.946,0,0,0,1.56,3.153l36.211-.615a1.945,1.945,0,0,0,1.525-.779l18.507-24.732a1.767,1.767,0,0,0-1.429-2.826l-35.273.292A1.945,1.945,0,0,0,1582.06,673.738Z" transform="translate(-1473.467 -592.113)"/><path class="h" d="M1628.68,688.515c-1.906.192-4.675,1.264-4.675,2.261s2.222,1.27,2.835,1.364,1.418.285,1.188.591-.69,1.84-1.916,1.572a75.028,75.028,0,0,0-7.627-.345c-1.034,0-2.261.729-2.337,1.495s-.307.92-.92.958-1.725.613-1.725,1.609,2.462,1.894,2.462,2.246,4.83,3.3,5.776,3.85,2.715,1.943,3.712,1.943a3.019,3.019,0,0,0,2.79-2.316c.125-1.37,2.092-2.366,2.117-3.039s-.623-1.171-.549-1.594,1.794-1.022,1.794-2.092a12.151,12.151,0,0,0-.772-2.964c-.1-.449-.5-1.42-.1-1.544s1.793-1.42,1.544-2.616S1629.561,688.426,1628.68,688.515Z" transform="translate(-1489.11 -596.915)"/><path class="q" d="M1489.663,967.137c2.176,1.176,3.4,4.754,3.707,4.8s.884-.045.884-.4-.088-1.547.31-1.547.84,1.945.928,4.775,1.094,9.576,0,10.433c-.686.538-6.985,3.847-7.162,4.289s.132,3.536-.4,4.023-1.769,1.679-2.741,1.724-6.587.619-9.24,0-6.013-1.9-6.1-2.254.663-7.87,1.5-8.8,6.9-9.24,7.383-9.992a8.576,8.576,0,0,0,.84-3.625c0-1.061.96-3.376,2.746-3.934A12.491,12.491,0,0,1,1489.663,967.137Z" transform="translate(-1445.437 -681.367)"/></g></g></svg>