<svg xmlns="http://www.w3.org/2000/svg" xmlns:xlink="http://www.w3.org/1999/xlink" width="94" height="64" viewBox="0 0 94 64"><defs><clipPath id="b"><rect width="94" height="64"/></clipPath></defs><g id="a" clip-path="url(#b)"><g transform="translate(-2.061 -1.112)"><g transform="translate(17.55 3.313)"><rect width="63.929" height="41.953" rx="2.816" transform="translate(0)" fill="#0d004c"/><path d="M77.928,3.313H75.8V4.378h2.131V3.313Zm-3.2,0H72.6V4.378h2.131V3.313Zm-3.2,0H69.4V4.378h2.131V3.313Zm-3.2,0H66.208V4.378h2.131V3.313Zm-3.2,0H63.012V4.378h2.131V3.313Zm-3.2,0H59.815V4.378h2.131V3.313Zm-3.2,0H56.619V4.378H58.75V3.313Zm-3.2,0H53.422V4.378h2.131V3.313Zm-3.2,0H50.226V4.378h2.131V3.313Zm-3.2,0H47.029V4.378H49.16V3.313Zm-3.2,0H43.833V4.378h2.131V3.313Zm-3.2,0H40.637V4.378h2.131V3.313Zm-3.2,0H37.44V4.378h2.131V3.313Zm-3.2,0H34.244V4.378h2.131V3.313Zm-3.2,0H31.047V4.378h2.131V3.313Zm-3.2,0H27.851V4.378h2.131V3.313Zm-3.2,0H24.654V4.378h2.131V3.313Zm-3.2,0H21.458V4.378h2.131V3.313Zm-3.2,0H19.311l-.009,0h0l-.01,0h-.014l-.009,0h0l-.01,0h0l-.01,0h-.014l-.01,0h0l-.01,0h0l-.01,0h0l-.01,0h0l-.01,0h0l-.01,0h0l-.013,0h0l-.013,0h0a3,3,0,0,0-.77.361l.584.891A1.93,1.93,0,0,1,20,4.378h.392V3.313ZM17.587,4.53a2.861,2.861,0,0,0-.174.262h0l0,0h0l-.006.012h0l0,0h0l0,0h0l0,.007h0l0,0h0l0,0h0l0,.007h0v0h0v0h0l0,0h0l0,0h0l0,0h0v0h0v0l0,0h0l0,0v0h0v0l0,0v0h0v0h0v0h0l0,0h0v0h0v.006h0l0,0v.006h0v0h0l0,0h0v0l0,0h0v0h0l0,.006h0l0,0h0v0h0v0h0l0,.009h0v0h0l0,0h0l0,.01h0l0,0h0V5h0l-.005.01h0v0h0l-.006.013h0l0,0h0v0h0l-.006.013h0l-.007.016h0a2.958,2.958,0,0,0-.184.523h0l0,.017h0l0,.018h0l0,.018h0v0h0l0,.015h0v0h0l0,.014h0v0h0l0,.014h0v0h0l0,.015h0v0h0v0h0l0,.011h0v0h0v0h0l0,.011h0v0h0v0h0v.01h0v0h0v0h0l0,.011h0v0h0v0h0v0h0V5.8h0v.011h0v.005h0v0h0v0h0v0h0l0,.009v.011l0,.009h0v0h0v0h0v0h0v.018h0v.029h0v.053h0v.093h0v.018h0v0h0v.018h0v.018h0v.018h0v.018h0v.014h0v0h0v.014h0v0h0v.01h0v0h0v0h0v.01h0v0h0v0h0v.005h0v0h0v.009h0v0h0v0h0v.009h0v0h0V6.3h0v0h0v.226h1.065V6.312a1.918,1.918,0,0,1,.378-1.149l-.857-.634Zm.478,3.07H17V9.73h1.065V7.6Zm0,3.2H17v2.131h1.065V10.8Zm0,3.2H17v2.131h1.065V13.992Zm0,3.2H17V19.32h1.065V17.189Zm0,3.2H17v2.131h1.065V20.385Zm0,3.2H17v2.131h1.065V23.582Zm0,3.2H17v2.131h1.065V26.778Zm0,3.2H17v2.131h1.065V29.974Zm0,3.2H17V35.3h1.065V33.171Zm0,3.2H17V38.5h1.065V36.367Zm0,3.2H17v2.131h1.065V39.564Zm.026,3.021-1.051.174a2.977,2.977,0,0,0,.645,1.416h0l0,0h0l.026.031h0l0,0h0l0,0h0l.02.023h0l0,0h0l0,0h0l0,0h0l0,0h0l0,0h0l0,0h0l0,0h0l.005.006h0l0,0h0l0,0h0l0,0v0h0v0h0v0h0v0h0l0,0h0l0,0h0l0,0h0l0,0h0v0h0v0h0v0h0l0,0h0l0,0h0v0h0l0,0h0l0,0h0l.009.009h0l0,0h0l0,0h0l0,0h0l0,0h0l0,0h0l0,0h0l0,0h0l.029.029h0c.062.062.127.121.194.177l.684-.817a1.932,1.932,0,0,1-.67-1.167Zm1.263,1.506-.356,1,.06.02h0l.018.005h.007l.015,0h.012l.014,0h.009l.014,0h.013l.014,0h.013l.01,0h.017l.01,0h.039l.01,0h.017l.006,0h.017l.01,0h.067l.011,0h.04l.01,0H21.11V44.2H20a1.924,1.924,0,0,1-.647-.111Zm4.952.111H22.175v1.065h2.131V44.2Zm3.2,0H25.371v1.065H27.5V44.2Zm3.2,0H28.568v1.065H30.7V44.2Zm3.2,0H31.764v1.065H33.9V44.2Zm3.2,0H34.961v1.065h2.131V44.2Zm3.2,0H38.157v1.065h2.131V44.2Zm3.2,0H41.354v1.065h2.131V44.2Zm3.2,0H44.55v1.065h2.131V44.2Zm3.2,0H47.746v1.065h2.131V44.2Zm3.2,0H50.943v1.065h2.131V44.2Zm3.2,0H54.139v1.065H56.27V44.2Zm3.2,0H57.336v1.065h2.131V44.2Zm3.2,0H60.532v1.065h2.131V44.2Zm3.2,0H63.729v1.065H65.86V44.2Zm3.2,0H66.925v1.065h2.131V44.2Zm3.2,0H70.122v1.065h2.131V44.2Zm3.2,0H73.318v1.065h2.131V44.2Zm2.939-.055a1.949,1.949,0,0,1-.459.055H76.514v1.065h1.564a3.211,3.211,0,0,0,.381-.043h0l.014,0h.058l.007,0h.006l.094-.021-.251-1.036Zm1.407-1.369a1.933,1.933,0,0,1-.784,1.093l.6.882.082-.056h0l0,0h0l0,0h0l0,0h0l0,0h0l.016-.012h0l0,0h0l0,0h0l0,0h0l0,0h0l0,0h.005l0,0h0l0,0h0l.005,0h0l0,0h.006l0,0h.005v0h.005l0,0h0l0,0h0l.011-.009h0l0,0h0l0,0h0l0,0h0l0,0h0l0,0h0l0,0h0l0,0h0l.018-.014h0l0,0h0l0,0h0l0,0h0l0,0h0l0,0h0a3.013,3.013,0,0,0,.835-1.129h0v0h0l0,0h0l0,0h0v0h0l.011-.026h0l0,0h0v0h0l0,0h0v0h0v0h0l0,0h0l.006-.017h0v0h0v0h0v-.011h0v0h0v0h0v0h0l0-.009h0l0,0h0v0h0v0h0v0h0v-.03h0v0h0v-.03h0v0h0l.005-.014h0v0h0v0h0v0h0v-.007h0v-.006h0v0h0l.007-.023h0v0h0v0h0v0h0v0h0v0h0l.01-.033h0v0h0l.009-.032-1.028-.28Zm1.134-2.908H79.863V42h1.065V39.868Zm0-3.2H79.863V38.8h1.065V36.672Zm0-3.2H79.863v2.131h1.065V33.476Zm0-3.2H79.863V32.41h1.065V30.279Zm0-3.2H79.863v2.131h1.065V27.083Zm0-3.2H79.863v2.131h1.065V23.886Zm0-3.2H79.863v2.131h1.065V20.69Zm0-3.2H79.863v2.131h1.065V17.493Zm0-3.2H79.863v2.131h1.065V14.3Zm0-3.2H79.863v2.131h1.065V11.1Zm0-3.2H79.863v2.131h1.065V7.9ZM80.51,4.783l-.916.544a1.921,1.921,0,0,1,.27.985v.526h1.065V6.308h0v0h0v0h0v0h0v0h0v0h0v0h0v0h0v0h0v0h0v0h0v0h0v0h0v0h0v0h0v0h0v0h0v0h0v0h0v0h0v0h0v0h0v0h0v0h0v0h0v0h0v0h0v0h0v0h0v0h0V6.159h0v0h0v0h0v0h0v0h0v0h0v0h0v0h0v0h0v0h0v0h0v0h0v0h0v0h0v0h0v0h0v0h0v0h0V6.068h0V6.059h0V6.042h0V6.032h0V6.023h0V6.013h0v0h0V6h0V6h0V5.994h0v0h0V5.981h0V5.971h0V5.962h0V5.952h0V5.943h0v-.01h0l0-.019h0a2.989,2.989,0,0,0-.392-1.13Zm-2.582-1.47V4.378a1.91,1.91,0,0,1,1.218.43l.671-.828A3,3,0,0,0,78.6,3.389h0l-.032-.007h0l-.022-.005h-.01l-.018,0h-.01l-.018,0h-.014l-.018,0h-.01l-.018,0h-.015l-.014,0h-.475Z" transform="translate(-17 -3.312)"/></g><g transform="translate(32.085 9.519)"><path d="M45.056,35.116a2.3,2.3,0,0,1-2.594,2.613h-9.28q-2.54,0-2.539-2.613V11.769q0-2.631,2.539-2.631h9.28a2.309,2.309,0,0,1,2.594,2.631Zm-4.275-1.06V12.81H34.917V34.056Z" transform="translate(-30.642 -9.138)" fill="#fff"/><path d="M61.533,35.116a2.309,2.309,0,0,1-2.611,2.613H49.933q-2.54,0-2.539-2.613V11.769a2.309,2.309,0,0,1,2.593-2.631h8.934a2.316,2.316,0,0,1,2.611,2.631v6.1H57.24V12.81H51.669V34.056H57.24v-8H54.062V22.419h7.471Z" transform="translate(-29.545 -9.138)" fill="#fff"/></g><g transform="translate(8.607 50.097)"><path d="M12.053,57.664a4.525,4.525,0,0,1-1.752-.323,2.614,2.614,0,0,1-1.237-1.055,3.624,3.624,0,0,1-.457-1.94V50.619a3.624,3.624,0,0,1,.457-1.94A2.614,2.614,0,0,1,10.3,47.624a4.525,4.525,0,0,1,1.752-.323,4.568,4.568,0,0,1,1.757.323,2.609,2.609,0,0,1,1.246,1.055,3.634,3.634,0,0,1,.456,1.94v3.727a3.634,3.634,0,0,1-.456,1.94,2.609,2.609,0,0,1-1.246,1.055A4.568,4.568,0,0,1,12.053,57.664Zm0-1.913a1.257,1.257,0,0,0,.928-.337,1.464,1.464,0,0,0,.337-1.069V50.619a1.463,1.463,0,0,0-.337-1.069,1.257,1.257,0,0,0-.928-.337,1.231,1.231,0,0,0-.922.337,1.486,1.486,0,0,0-.33,1.069v3.727a1.487,1.487,0,0,0,.33,1.069A1.231,1.231,0,0,0,12.053,55.751Z" transform="translate(-8.607 -47.217)" fill="#fff"/><path d="M19.428,57.5a3.186,3.186,0,0,1-1.6-.416A3.28,3.28,0,0,1,16.658,56a2.617,2.617,0,0,1-.436-1.448V51.342a.579.579,0,0,1,.324-.465,1.374,1.374,0,0,1,.774-.211,1.349,1.349,0,0,1,.759.211.579.579,0,0,1,.324.465v3.206a.984.984,0,0,0,.141.506,1.175,1.175,0,0,0,.373.393.924.924,0,0,0,1.026,0,1.113,1.113,0,0,0,.365-.393,1.02,1.02,0,0,0,.134-.506V51.327a.555.555,0,0,1,.33-.463,1.47,1.47,0,0,1,.766-.2,1.413,1.413,0,0,1,.781.2.558.558,0,0,1,.3.463v3.221a2.646,2.646,0,0,1-.437,1.463,3.254,3.254,0,0,1-1.16,1.081A3.2,3.2,0,0,1,19.428,57.5Z" transform="translate(-8.108 -46.996)" fill="#fff"/><path d="M24.419,57.365a1.309,1.309,0,0,1-.767-.211.583.583,0,0,1-.3-.465V51.332a.545.545,0,0,1,.3-.477,1.465,1.465,0,0,1,.767-.183,1.242,1.242,0,0,1,.688.183.55.55,0,0,1,.281.477v.52a2.354,2.354,0,0,1,.4-.6,2.415,2.415,0,0,1,.59-.478,1.353,1.353,0,0,1,.682-.19h.408a.689.689,0,0,1,.542.281,1,1,0,0,1,.231.661,1.022,1.022,0,0,1-.231.674.689.689,0,0,1-.542.281h-.408a1.219,1.219,0,0,0-.731.26,1.928,1.928,0,0,0-.576.725,2.528,2.528,0,0,0-.225,1.111v2.109a.579.579,0,0,1-.324.465A1.406,1.406,0,0,1,24.419,57.365Z" transform="translate(-7.642 -47.002)" fill="#fff"/><path d="M34.648,57.664a4.525,4.525,0,0,1-1.752-.323,2.614,2.614,0,0,1-1.237-1.055,3.624,3.624,0,0,1-.457-1.94V50.619a3.624,3.624,0,0,1,.457-1.94,2.619,2.619,0,0,1,1.231-1.055,4.315,4.315,0,0,1,1.688-.323,4.681,4.681,0,0,1,1.806.329,2.951,2.951,0,0,1,1.259.949,2.465,2.465,0,0,1,.463,1.519,1.014,1.014,0,0,1-.267.836,1.364,1.364,0,0,1-.829.2A1.892,1.892,0,0,1,36.25,51a.54.54,0,0,1-.338-.52,2.588,2.588,0,0,0-.063-.548.883.883,0,0,0-.324-.507,1.384,1.384,0,0,0-.864-.21,1.231,1.231,0,0,0-.935.344,1.485,1.485,0,0,0-.33,1.061v3.727a1.485,1.485,0,0,0,.33,1.061,1.213,1.213,0,0,0,.922.344,1.24,1.24,0,0,0,.928-.344,1.467,1.467,0,0,0,.337-1.061v-.478h-.829a.555.555,0,0,1-.486-.26,1.019,1.019,0,0,1-.176-.584,1.03,1.03,0,0,1,.176-.576.552.552,0,0,1,.486-.267h2.362a.605.605,0,0,1,.492.2.742.742,0,0,1,.168.486v1.477a3.624,3.624,0,0,1-.457,1.94A2.607,2.607,0,0,1,36.4,57.341,4.575,4.575,0,0,1,34.648,57.664Z" transform="translate(-7.128 -47.217)" fill="#fff"/><path d="M42.072,57.505a4.31,4.31,0,0,1-1.842-.373,3.016,3.016,0,0,1-1.259-1.047,2.714,2.714,0,0,1-.456-1.561V53.5a2.576,2.576,0,0,1,.436-1.448,3.233,3.233,0,0,1,1.167-1.061,3.512,3.512,0,0,1,3.129-.064,2.9,2.9,0,0,1,1.1.935,2.365,2.365,0,0,1,.422,1.4,1.543,1.543,0,0,1-.2.906.836.836,0,0,1-.52.339,3.3,3.3,0,0,1-.64.063H40.693v.084a1.024,1.024,0,0,0,.394.837,1.614,1.614,0,0,0,1.04.315,1.87,1.87,0,0,0,.746-.134q.308-.133.549-.26a.989.989,0,0,1,.463-.126.621.621,0,0,1,.436.168,1.165,1.165,0,0,1,.367.788.806.806,0,0,1-.324.562,2.606,2.606,0,0,1-.907.5A4.2,4.2,0,0,1,42.072,57.505Zm-1.379-4.162h1.744a.309.309,0,0,0,.225-.071.38.38,0,0,0,.07-.267.737.737,0,0,0-.148-.47.884.884,0,0,0-.379-.282,1.373,1.373,0,0,0-.5-.092,1.339,1.339,0,0,0-.486.092.884.884,0,0,0-.379.282.737.737,0,0,0-.148.47Z" transform="translate(-6.649 -47.002)" fill="#fff"/><path d="M46.381,57.365a1.339,1.339,0,0,1-.781-.211.583.583,0,0,1-.3-.465V51.332a.545.545,0,0,1,.3-.477,1.5,1.5,0,0,1,.781-.183,1.214,1.214,0,0,1,.674.183.55.55,0,0,1,.281.477v.324a1.934,1.934,0,0,1,.689-.739,2.1,2.1,0,0,1,1.2-.329,1.956,1.956,0,0,1,1.189.4,2.913,2.913,0,0,1,.872,1.069,3.327,3.327,0,0,1,.329,1.483v3.15a.541.541,0,0,1-.344.507,1.684,1.684,0,0,1-.753.168,1.667,1.667,0,0,1-.73-.168.539.539,0,0,1-.352-.507v-3.15a1.019,1.019,0,0,0-.133-.506,1.126,1.126,0,0,0-.367-.393.9.9,0,0,0-.512-.156.875.875,0,0,0-.443.127,1.008,1.008,0,0,0-.359.359,1.078,1.078,0,0,0-.141.569v3.15a.58.58,0,0,1-.323.465A1.387,1.387,0,0,1,46.381,57.365Z" transform="translate(-6.205 -47.002)" fill="#fff"/><path d="M53.432,49.576a1.166,1.166,0,0,1-.815-.31.933.933,0,0,1-.338-.7.9.9,0,0,1,.338-.7,1.189,1.189,0,0,1,.815-.3,1.166,1.166,0,0,1,.809.3.91.91,0,0,1,.331.7.94.94,0,0,1-.331.7A1.143,1.143,0,0,1,53.432,49.576Zm0,7.987a1.331,1.331,0,0,1-.78-.211.581.581,0,0,1-.3-.465V51.53a.543.543,0,0,1,.3-.477,1.49,1.49,0,0,1,.78-.183,1.55,1.55,0,0,1,.774.183.543.543,0,0,1,.324.477v5.357a.582.582,0,0,1-.324.465A1.383,1.383,0,0,1,53.432,57.562Z" transform="translate(-5.747 -47.2)" fill="#fff"/><path d="M58.886,57.505a4.31,4.31,0,0,1-1.842-.373,3.012,3.012,0,0,1-1.258-1.047,2.715,2.715,0,0,1-.457-1.561V53.5a2.576,2.576,0,0,1,.436-1.448,3.237,3.237,0,0,1,1.168-1.061,3.512,3.512,0,0,1,3.129-.064,2.913,2.913,0,0,1,1.1.935,2.372,2.372,0,0,1,.421,1.4,1.544,1.544,0,0,1-.2.906.839.839,0,0,1-.521.339,3.3,3.3,0,0,1-.639.063H57.508v.084a1.023,1.023,0,0,0,.393.837,1.617,1.617,0,0,0,1.041.315,1.874,1.874,0,0,0,.746-.134c.206-.088.388-.175.549-.26a.986.986,0,0,1,.463-.126.625.625,0,0,1,.436.168,1.085,1.085,0,0,1,.274.393,1.065,1.065,0,0,1,.092.4.806.806,0,0,1-.324.562,2.6,2.6,0,0,1-.907.5A4.2,4.2,0,0,1,58.886,57.505Zm-1.378-4.162h1.744a.309.309,0,0,0,.225-.071A.38.38,0,0,0,59.546,53a.737.737,0,0,0-.148-.47.875.875,0,0,0-.378-.282,1.383,1.383,0,0,0-.5-.092,1.337,1.337,0,0,0-.485.092.878.878,0,0,0-.379.282.737.737,0,0,0-.148.47Z" transform="translate(-5.548 -47.002)" fill="#fff"/><path d="M65.616,57.585a1.84,1.84,0,0,1-.626-.119,1.631,1.631,0,0,1-.555-.324.6.6,0,0,1-.225-.456.82.82,0,0,1,.028-.156l2.616-8.578a.884.884,0,0,1,.534-.548,2.334,2.334,0,0,1,1.808,0,.884.884,0,0,1,.527.548l2.63,8.578a.82.82,0,0,1,.028.156.6.6,0,0,1-.225.456,1.653,1.653,0,0,1-.549.324,1.809,1.809,0,0,1-.632.119,1.029,1.029,0,0,1-.457-.092.492.492,0,0,1-.261-.316l-.477-1.757H66.811l-.477,1.757a.445.445,0,0,1-.253.316A1.086,1.086,0,0,1,65.616,57.585Zm1.645-3.853h2.053l-1.027-3.769Z" transform="translate(-4.966 -47.222)" fill="#fff"/><path d="M73.607,60.417a1.312,1.312,0,0,1-.767-.212.582.582,0,0,1-.3-.463v-8.41a.544.544,0,0,1,.3-.477,1.409,1.409,0,0,1,.739-.183,1.3,1.3,0,0,1,.717.183.551.551,0,0,1,.28.477v.324a2.325,2.325,0,0,1,.739-.739,2.054,2.054,0,0,1,1.159-.329,2.174,2.174,0,0,1,1.286.4,2.782,2.782,0,0,1,.9,1.069,3.3,3.3,0,0,1,.331,1.483v.985a3.234,3.234,0,0,1-.338,1.455,3.083,3.083,0,0,1-.894,1.1,1.987,1.987,0,0,1-2.341.077,1.939,1.939,0,0,1-.7-.781v3.362a.58.58,0,0,1-.323.463A1.413,1.413,0,0,1,73.607,60.417Zm2.165-4.81a.905.905,0,0,0,.514-.156,1.211,1.211,0,0,0,.379-.407,1.019,1.019,0,0,0,.148-.521v-.985a.984.984,0,0,0-.141-.506,1.137,1.137,0,0,0-.387-.393,1.005,1.005,0,0,0-1.026-.029,1.074,1.074,0,0,0-.387.359,1,1,0,0,0-.156.569v1.168a.73.73,0,0,0,.134.33,1.41,1.41,0,0,0,.373.394A.906.906,0,0,0,75.772,55.608Z" transform="translate(-4.421 -47.002)" fill="#fff"/><path d="M80.641,60.417a1.312,1.312,0,0,1-.767-.212.582.582,0,0,1-.3-.463v-8.41a.544.544,0,0,1,.3-.477,1.409,1.409,0,0,1,.739-.183,1.3,1.3,0,0,1,.717.183.551.551,0,0,1,.28.477v.324a2.325,2.325,0,0,1,.739-.739,2.057,2.057,0,0,1,1.16-.329,2.179,2.179,0,0,1,1.286.4,2.789,2.789,0,0,1,.9,1.069,3.3,3.3,0,0,1,.331,1.483v.985a3.234,3.234,0,0,1-.338,1.455,3.081,3.081,0,0,1-.893,1.1,1.989,1.989,0,0,1-2.342.077,1.939,1.939,0,0,1-.7-.781v3.362a.578.578,0,0,1-.323.463A1.413,1.413,0,0,1,80.641,60.417Zm2.165-4.81a.905.905,0,0,0,.514-.156,1.2,1.2,0,0,0,.379-.407,1.019,1.019,0,0,0,.148-.521v-.985a.984.984,0,0,0-.141-.506,1.138,1.138,0,0,0-.387-.393,1.005,1.005,0,0,0-1.026-.029,1.074,1.074,0,0,0-.387.359,1,1,0,0,0-.156.569v1.168a.73.73,0,0,0,.134.33,1.41,1.41,0,0,0,.373.394A.906.906,0,0,0,82.806,55.608Z" transform="translate(-3.96 -47.002)" fill="#fff"/></g></g></g></svg>