<svg xmlns="http://www.w3.org/2000/svg" width="60" height="49.705" viewBox="0 0 60 49.705"><g transform="translate(-298.167 -187.333)"><g transform="translate(308.986 197.432)"><path d="M370.388,252.607H330.126a4.464,4.464,0,0,1-4.459-4.459V235.3H329.6v12.852a.525.525,0,0,0,.524.525h40.262a.526.526,0,0,0,.525-.525V217.459a.525.525,0,0,0-.525-.524h-22.82V213h22.82a4.464,4.464,0,0,1,4.459,4.459v30.688A4.464,4.464,0,0,1,370.388,252.607Z" transform="translate(-325.667 -213)"/></g><path d="M323.74,197.432h-10.82v-10.1h-3.934v10.1h-10.82v3.934h10.82v11.541h3.934V201.366h10.82Z"/><path d="M351,265.082h29.639v-3.934l-9.7-5.9-5.311,2.623L355.787,250,351,255.246Z" transform="translate(-32.047 -38.011)"/><circle cx="3.738" cy="3.738" r="3.738" transform="translate(341.117 207.399)"/></g></svg>