<svg xmlns="http://www.w3.org/2000/svg" width="67.337" height="76.764" viewBox="0 0 67.337 76.764"><defs><style>.a{fill:#4eb25c;}.b{fill:#0d1139;}</style></defs><g transform="translate(-750 -729)"><path class="a" d="M798,872.387h24.241V867h-2.694v2.694h-2.694V867h-2.693v2.694h-2.693V867h-2.694v2.694h-2.693V867h-2.694v2.694h-2.693V867H798Zm0,0" transform="translate(-37.226 -107.025)"/><rect class="b" width="6" height="3" transform="translate(797 742.764)"/><path class="a" d="M931.467,885.854V867H918v18.854h2.693v-6.734h2.693v6.734h2.693V873.734h2.693v12.121Zm0,0" transform="translate(-130.291 -107.025)"/><path class="a" d="M863.267,1059h-39.7a4.188,4.188,0,0,0,3.689,2.694h32.322a4.191,4.191,0,0,0,3.69-2.694Zm0,0" transform="translate(-57.054 -255.93)"/><path class="b" d="M954.188,813h-8.614l-2.095,9.427h12.8Zm0,0" transform="translate(-150.052 -65.146)"/><path class="a" d="M856.053,903h-5.279v12.121a1.347,1.347,0,0,1-1.347,1.347H833.267a1.347,1.347,0,0,1-1.347-1.347V903H810.48l2.486,32.322h40.6Zm-34.907,29.628h-4.04a1.347,1.347,0,0,1-1.336-1.18l-1.347-10.774,2.672-.333,1.2,9.594h2.851Zm5.387,0h-2.693v-2.693h2.693Zm5.387,0h-2.694v-2.693h2.694Zm0,0" transform="translate(-46.905 -134.945)"/><path class="b" d="M931.016,740.387h3.812a1.347,1.347,0,0,1,1.347,1.347v2.693h8.869l3.646-3.646a1.347,1.347,0,0,1,.952-.395h2.693V735H940.215c-4.21,0-8.215,2.47-9.2,5.387Zm0,0" transform="translate(-140.386 -4.653)"/><path class="a" d="M998.08,867h-2.694v2.694h-2.693V867H990v5.387h8.081Zm0,0" transform="translate(-186.131 -107.025)"/><path class="b" d="M1038,741.317l2.694-.673v-3.282l-2.694-.673Zm0,0" transform="translate(-223.357 -5.962)"/><path class="b" d="M861.274,766.416A3.854,3.854,0,0,0,858.4,762.7v-.115a3.833,3.833,0,1,0-7.665,0v.1a4.789,4.789,0,1,0,5.03,7.174,3.7,3.7,0,0,0,1.677.394,3.838,3.838,0,0,0,3.833-3.833Zm0,0" transform="translate(-75.133 -23.018)"/><path class="b" d="M803.387,815.693A2.693,2.693,0,1,1,800.694,813a2.693,2.693,0,0,1,2.693,2.693Zm0,0" transform="translate(-37.226 -65.146)"/><path class="b" d="M760.774,758.387A5.387,5.387,0,1,1,755.387,753a5.387,5.387,0,0,1,5.387,5.387Zm0,0" transform="translate(0 -18.613)"/><path class="b" d="M815.387,731.694A2.693,2.693,0,1,1,812.694,729a2.693,2.693,0,0,1,2.693,2.694Zm0,0" transform="translate(-46.533)"/><path class="b" d="M1019.387,769.04V765h-2.693v4.04a2.693,2.693,0,0,1-2.694,2.693v2.694a5.387,5.387,0,0,0,5.387-5.387Zm0,0" transform="translate(-204.744 -27.92)"/></g></svg>