<svg xmlns="http://www.w3.org/2000/svg" width="64.146" height="77.025" viewBox="0 0 64.146 77.025"><defs><style>.a{fill:#4fa446;}.b{fill:#0c113a;}.c{fill:#4eb25c;}</style></defs><g transform="translate(-760.556 -732)"><path class="a" d="M915.505,770.751v-1.719A1.033,1.033,0,0,0,914.474,768H900.032A1.033,1.033,0,0,0,899,769.032v2.8a26.768,26.768,0,0,1,7.565-1.084Zm0,0" transform="translate(-105.933 -27.747)"/><path class="b" d="M821.734,918.868l1.453-2.178-3.3-3.294a3.4,3.4,0,0,0-1.543-.892,4.984,4.984,0,0,1-8.792,0,3.4,3.4,0,0,0-1.543.892l-3.3,3.294,1.452,2.178,1.665-.833a1.376,1.376,0,0,1,1.991,1.23v6.877h8.253v-6.877a1.376,1.376,0,0,1,1.991-1.23Zm0,0" transform="translate(-33.265 -139.125)"/><path class="b" d="M921.871,734.063A2.065,2.065,0,0,0,919.808,732h-6.917a2.066,2.066,0,0,0-2.063,2.063V737.5h11.043Zm0,0" transform="translate(-115.049)"/><path class="b" d="M806.009,886.5A16.505,16.505,0,1,0,789.5,903.009,16.506,16.506,0,0,0,806.009,886.5Zm-23.383,8.253v-6.027l-.76.381a1.376,1.376,0,0,1-1.76-.467l-2.751-4.126a1.374,1.374,0,0,1,.172-1.735l4.092-4.092A6.149,6.149,0,0,1,786,876.875a1.374,1.374,0,0,1,1.326,1.011l.027.1a2.235,2.235,0,0,0,4.309,0l.027-.1a1.377,1.377,0,0,1,1.326-1.011,6.149,6.149,0,0,1,4.376,1.813l4.092,4.092a1.375,1.375,0,0,1,.172,1.735l-2.751,4.126a1.376,1.376,0,0,1-1.76.467l-.76-.381v6.027a1.376,1.376,0,0,1-1.375,1.376H784a1.376,1.376,0,0,1-1.375-1.376Zm0,0" transform="translate(-8.815 -106.363)"/><path class="c" d="M874.371,810.157l-8.227-15.426A5.147,5.147,0,0,0,861.592,792H851.07a24.039,24.039,0,0,0-22.416,15.288A19.256,19.256,0,1,1,827,845.2v7.668a2.41,2.41,0,0,0,2.407,2.407h43.326a2.41,2.41,0,0,0,2.407-2.407v-39.63a6.56,6.56,0,0,0-.769-3.076Zm-30.866-5.778h-2.751v-2.751h2.751Zm6.877,44.014h-2.751v2.751h-2.751v-2.751H842.13v-2.751h2.751v-2.751h2.751v2.751h2.751Zm-2.751-39.888h-2.751v-2.751h2.751Zm0-8.253h-2.751V797.5h2.751Zm4.126,4.126h-2.751v-2.751h2.751Zm19.256,24.414a3.1,3.1,0,0,1-3.095,3.095h-5.255a3.077,3.077,0,0,1-2.964-2.206L855.985,817.3a2.409,2.409,0,0,1-.1-.691V804.723a3.1,3.1,0,0,1,3.095-3.095h4.161a3.1,3.1,0,0,1,2.686,1.559l4.871,8.524a2.416,2.416,0,0,1,.316,1.195Zm0,0" transform="translate(-50.438 -46.245)"/><path class="a" d="M775.751,812.253H778.5V809.5h2.751v-2.751H778.5V804h-2.751v2.751H773V809.5h2.751Zm0,0" transform="translate(-8.817 -55.495)"/><rect class="a" width="4" height="2" transform="translate(760.556 796.764)"/><rect class="a" width="4" height="2" transform="translate(764.556 800.764)"/><rect class="a" width="4" height="2" transform="translate(760.556 804.764)"/></g></svg>