<svg xmlns="http://www.w3.org/2000/svg" width="14" height="14" viewBox="0 0 14 14"><defs><style>.a{fill:none;}.b{fill:#878787;}</style></defs><rect class="a" width="14" height="14"/><path class="b" d="M6.808,0a6.808,6.808,0,1,0,6.808,6.808A6.828,6.828,0,0,0,6.808,0ZM6.74,11.3a.953.953,0,1,1,.953-.953A.931.931,0,0,1,6.74,11.3Zm1.838-5.31-.749.817a.832.832,0,0,0-.272.613.828.828,0,0,1-.817.817.787.787,0,0,1-.817-.817A1.519,1.519,0,0,1,6.468,6.2l.613-.749a1.545,1.545,0,0,0,.477-.953.714.714,0,0,0-.749-.749.8.8,0,0,0-.817.613.889.889,0,0,1-.817.477.714.714,0,0,1-.749-.749.74.74,0,0,1,.068-.34,2.269,2.269,0,0,1,2.315-1.43A2.206,2.206,0,0,1,9.191,4.493,2.234,2.234,0,0,1,8.578,5.991Z"/></svg>