<svg xmlns="http://www.w3.org/2000/svg" width="28.153" height="25" viewBox="0 0 28.153 25"><defs><style>.a,.b{fill:#fff;}.b{font-size:9px;font-family:SegoeUI, Segoe UI;}</style></defs><path class="a" d="M181.389,103.462H179.82a1.621,1.621,0,1,1,0-3.242h3.138a.732.732,0,1,0,0-1.465h-1.621V97.133a.732.732,0,1,0-1.465,0v1.621h-.052a3.086,3.086,0,1,0,0,6.172h1.569a1.621,1.621,0,0,1,0,3.242h-3.138a.732.732,0,0,0,0,1.465h1.621v1.621a.732.732,0,1,0,1.465,0v-1.621h.052a3.086,3.086,0,0,0,0-6.172Z" transform="translate(-168.104 -91.694)"/><path class="a" d="M19.063,21.366A11.032,11.032,0,1,1,23.388,10.7a6.09,6.09,0,0,1,1.519.263A12.5,12.5,0,0,0,12.5,0,12.5,12.5,0,0,0,3.661,21.339a12.5,12.5,0,0,0,16.678.9A6.116,6.116,0,0,1,19.063,21.366Z"/><g transform="translate(16.872 10.862)"><path class="a" d="M351.176,233.744a5.641,5.641,0,1,1,5.641-5.641A5.647,5.647,0,0,1,351.176,233.744Zm0-9.963A4.322,4.322,0,1,0,355.5,228.1,4.327,4.327,0,0,0,351.176,223.781Z" transform="translate(-345.535 -222.463)"/></g><text class="b" transform="translate(21.479 19.906)"><tspan x="0" y="0">!</tspan></text></svg>