<svg xmlns="http://www.w3.org/2000/svg" width="24" height="37.236" viewBox="0 0 24 37.236"><defs><style>.a{fill:#fff;}</style></defs><g transform="translate(-209 6)"><g transform="translate(209 -6)"><path class="a" d="M331.033,237.091v1.594a3.272,3.272,0,0,0,1.079,6.362,1.091,1.091,0,1,1-1.091,1.091,1.091,1.091,0,1,0-2.182,0,3.278,3.278,0,0,0,2.193,3.089v.955a1.091,1.091,0,0,0,2.182,0v-.963a3.272,3.272,0,0,0-1.1-6.354,1.091,1.091,0,1,1,1.091-1.091,1.091,1.091,0,0,0,2.182,0,3.278,3.278,0,0,0-2.17-3.081v-1.6a1.091,1.091,0,0,0-2.182,0Zm0,0" transform="translate(-320.124 -218.4)"/><path class="a" d="M220.229-5.68,213.683.865a1.091,1.091,0,0,0,.771,1.862h3.273V7.69a12,12,0,1,0,6.545,0V2.727h3.273a1.091,1.091,0,0,0,.771-1.862L221.771-5.68a1.09,1.09,0,0,0-1.543,0Zm10.589,24.917A9.818,9.818,0,1,1,221,9.418a9.829,9.829,0,0,1,9.818,9.818ZM223.182.545a1.091,1.091,0,0,0-1.091,1.091v5.65c-.359-.032-.723-.05-1.091-.05s-.732.018-1.091.05V1.636A1.091,1.091,0,0,0,218.818.545h-1.73L221-3.366,224.912.545Zm0,0" transform="translate(-209 6)"/></g></g></svg>