<svg xmlns="http://www.w3.org/2000/svg" xmlns:xlink="http://www.w3.org/1999/xlink" width="825.692" height="525.428" viewBox="0 0 825.692 525.428"><defs><style>.a{fill:url(#a);}.b{fill:#b54825;}.c{fill:#f66232;}.d{fill:#e0592e;}.e{fill:#9d9d9c;}.f{fill:#878787;}.g{fill:#b2b2b2;}.h{fill:#c6c6c6;}.i{fill:#ededed;}.j{fill:#ffbb7d;}.k{fill:#e3f7ff;}.l{fill:#c7edff;}.m{fill:#fff;}.n{fill:#bbebff;}.ae,.o{opacity:0.1;}.p{fill:#706f6f;}.q{fill:#465c82;}.r{fill:#cbcbcb;}.s{fill:#8f8f8f;}.t{fill:#fbfbfb;}.u{fill:#acacac;}.v{fill:#ebebeb;}.w{fill:#e52205;}.x{fill:#3f3e3e;}.y{fill:#151515;}.z{fill:#1282d7;}.aa{fill:#1e2e4d;}.ab{fill:#29406a;}.ac,.ae,.af{fill:#1d1d1b;}.ac{opacity:0.3;}.ad{fill:#516a96;}.af{opacity:0.25;}.ag{fill:#005e69;}.ah{fill:#8cdaff;}.ai{fill:#ffa875;}.aj{fill:#09636f;}.ak{fill:#f46c0a;}.al{fill:#c9f0ff;}.am{fill:#abe6ff;}.an{fill:#1e5f99;}.ao{fill:#ffd1b6;}.ap{fill:#263756;}.aq{fill:#2b83c6;}.ar{fill:#e2ab91;}.as{fill:#dedede;}</style><linearGradient id="a" x1="0.5" y1="-0.227" x2="0.5" y2="0.559" gradientUnits="objectBoundingBox"><stop offset="0" stop-color="#e5e5e5"/><stop offset="0.476" stop-color="#f3f3f3"/><stop offset="1" stop-color="#f9f9f9"/></linearGradient></defs><g transform="translate(-547 -246.243)"><ellipse class="a" cx="412.846" cy="149.822" rx="412.846" ry="149.822" transform="translate(547 472.027)"/><g transform="translate(810 253)"><g transform="translate(234.679 180.844)"><path class="b" d="M308.64,64.054c.05.027.1.058.146.088l2.241,1.291-.953,1.656v0c.242,6.979,3.59,10.508,9.543,11.565l2.444,1.411-1.776,3.082-1.13-.653-2.667,22.188-19.651,14.167-2.444-1.41L291.26,95.031c5.953-7.933,9.3-15.323,9.543-22.587a10.25,10.25,0,0,1,4.635-8.029,3.349,3.349,0,0,1,3.132-.392l0-.008Z" transform="translate(-291.26 -63.788)"/><g transform="translate(2.444 1.408)"><path class="c" d="M306.074,64.788c2.56-1.48,4.635-.281,4.635,2.675.246,6.983,3.594,10.508,9.543,11.565l-3.128,26.027-22.1,12.756L291.9,95.4c5.953-7.933,9.3-15.323,9.543-22.587A10.237,10.237,0,0,1,306.074,64.788Z" transform="translate(-291.896 -64.154)"/><path class="b" d="M294.933,69.476c0,1.6,1.122,2.248,2.506,1.449a5.538,5.538,0,0,0,2.51-4.343c0-1.6-1.122-2.248-2.51-1.449A5.544,5.544,0,0,0,294.933,69.476Z" transform="translate(-283.261 -62.343)"/></g><path class="b" d="M291.9,72.284l.686,21,36.892,21.3L323.9,90.761Z" transform="translate(-289.451 -39.63)"/><path class="d" d="M320.252,69.016C308.811,64.243,299.959,72.8,291.9,85.389l32,18.479c9.532-11.561,19.013-19.148,28.356-16.373Z" transform="translate(-289.452 -52.735)"/><path class="b" d="M294.933,69.476c0,1.6,1.122,2.248,2.506,1.449a5.538,5.538,0,0,0,2.51-4.343c0-1.6-1.122-2.248-2.51-1.449A5.544,5.544,0,0,0,294.933,69.476Z" transform="translate(-280.816 -60.935)"/><rect class="b" width="7.093" height="39.777" transform="matrix(0.5, -0.866, 0.866, 0.5, 14.85, 10.166)"/><g transform="translate(34.448 19.888)"><path class="b" d="M317.6,69.23c.05.027.1.054.146.085l2.241,1.3-.953,1.656h0c.242,6.983,3.59,10.508,9.543,11.568l2.448,1.41-1.78,3.082-1.13-.653-2.667,22.188L305.8,124.028l-2.444-1.411-3.132-22.41c5.953-7.933,9.3-15.323,9.543-22.587a10.25,10.25,0,0,1,4.635-8.029,3.338,3.338,0,0,1,3.132-.392l0-.008Z" transform="translate(-300.223 -68.963)"/><g transform="translate(2.444 1.407)"><path class="c" d="M315.037,69.96c2.56-1.476,4.635-.277,4.635,2.679.246,6.979,3.594,10.508,9.547,11.565l-3.132,26.027-22.1,12.756-3.132-22.41c5.953-7.933,9.3-15.323,9.543-22.587A10.25,10.25,0,0,1,315.037,69.96Z" transform="translate(-300.859 -69.329)"/><path class="b" d="M303.9,74.651c0,1.6,1.122,2.248,2.506,1.449a5.538,5.538,0,0,0,2.51-4.343c0-1.6-1.122-2.248-2.51-1.449A5.544,5.544,0,0,0,303.9,74.651Z" transform="translate(-292.224 -67.517)"/></g></g><path class="e" d="M299.619,73.514l-4.352,3.931V75.479Z" transform="translate(-279.866 -36.133)"/><g transform="translate(15.962 41.007)"><path class="f" d="M297.084,74.763l.789,5.027-1.93-4.758Z" transform="translate(-293.907 -73.587)"/><path class="f" d="M296.554,74.457l.789,5.027-1.931-4.758Z" transform="translate(-295.413 -74.457)"/><path class="g" d="M297.344,79.285l2.036,1.176-1.93-4.758-2.036-1.176Z" transform="translate(-295.413 -74.259)"/></g><g transform="translate(15.401 37.38)"><path class="e" d="M300.524,74.048l-4.352,3.931V76.013Z" transform="translate(-292.697 -71.995)"/><path class="h" d="M295.267,75.991l3.475,2.053V76.078l-3.475-2.053Z" transform="translate(-295.267 -72.06)"/><path class="i" d="M298.742,77.532l4.352-1.965-3.475-2.053-4.352,1.965Z" transform="translate(-295.267 -73.514)"/></g></g><path class="j" d="M270.517,64.126a1.905,1.905,0,0,1,2.513,2.214q.225,4.295.45,8.594a4.319,4.319,0,0,1-.454,2.713A4.1,4.1,0,0,1,270.447,79a38.665,38.665,0,0,1-11.361.872q-.68-5.771-1.357-11.545a2.805,2.805,0,0,1,.411-2.306,2.722,2.722,0,0,1,1.633-.626Q265.124,64.608,270.517,64.126Z" transform="translate(-152.087 117.923)"/><g transform="translate(0 197.84)"><path class="k" d="M189.8,102.766c13.674,3.174,17.219,10.66,27.967,12.128S261.29,100.647,288.581,121s-27.388,34.668-25.253,47.077,1.713,32.551-31.83,41.25c-34.495,8.941-72.446-10.336-82.918-7.5s-36.593,3.939-52.978-10.542,6.112-34.282,24.841-44.061-1.383-9.275,10.324-24.726S176.131,99.592,189.8,102.766Z" transform="translate(-86.251 -62.862)"/><path class="l" d="M186.382,102.176c13.368,3.1,16.837,10.421,27.345,11.858s42.56-13.932,69.247,5.973-26.781,33.9-24.692,46.037,1.671,31.833-31.129,40.337c-33.731,8.744-70.842-10.106-81.084-7.331s-35.783,3.851-51.807-10.309,5.979-33.525,24.292-43.087-1.349-9.069,10.1-24.177S173.011,99.071,186.382,102.176Z" transform="translate(-88.719 -64.03)"/><g transform="translate(19.68 56.082)"><path class="m" d="M103.066,123.739a42.165,42.165,0,0,0-3.732,5.688c-1.022,1.9-1.937,4.111-1.583,5.712.346,1.458,2.05,2.235,4.117,2.52a48.365,48.365,0,0,0,6.567.461c4.478.152,8.993-.03,13.523-.2l13.686-.719a79.876,79.876,0,0,1-27.3,4.2,44.655,44.655,0,0,1-7.083-.7,7.313,7.313,0,0,1-1.85-.537,6.571,6.571,0,0,1-1.831-.919,5.079,5.079,0,0,1-2.359-3.729c-.191-3.026,1.41-5.1,2.777-6.974A28.283,28.283,0,0,1,103.066,123.739Z" transform="translate(-95.21 -74.867)"/><path class="m" d="M149.082,107.62a41.918,41.918,0,0,1,13.468,2.65,13.414,13.414,0,0,1,6.155,4.266,6.1,6.1,0,0,1,.919,2.116,6.251,6.251,0,0,1-.185,2.359,10.376,10.376,0,0,1-1.937,3.5c-3.2,3.751-7.037,6.258-10.948,8.629a73.041,73.041,0,0,1-12.328,5.83L155.137,129c3.5-2.7,7.192-5.373,9.805-8.55a7.452,7.452,0,0,0,1.413-2.316c.224-.394.024-.637.143-.967-.2-.3-.1-.631-.406-.964-.843-1.41-2.756-2.6-4.609-3.614A93.18,93.18,0,0,0,149.082,107.62Z" transform="translate(4.387 -107.62)"/><path class="m" d="M117.571,154.918c4.269.47,8.523.879,12.792,1,4.257.215,8.514.315,12.752.124,8.459-.352,16.937-1.155,24.965-3.547a54.146,54.146,0,0,0,5.921-2l2.886-1.185c.952-.415,1.825-.976,2.753-1.437a38.742,38.742,0,0,0,9.969-7.186c2.747-2.817,4.445-6.943,2.292-10.515-1.771-3.644-5.461-6.246-9.108-8.377a24.838,24.838,0,0,1,5.776,2.929,15.989,15.989,0,0,1,4.733,4.657,11.253,11.253,0,0,1,1.361,3.217,9.886,9.886,0,0,1-.049,3.56,13.533,13.533,0,0,1-3.087,6.17c-5.961,6.831-14.187,10.8-22.546,13.329a84.95,84.95,0,0,1-25.863,2.9A107.634,107.634,0,0,1,117.571,154.918Z" transform="translate(-49.773 -78.831)"/></g><g transform="translate(86.123 0)"><path class="n" d="M119.715,89.123s-.467,27.282-1.276,32.375-.127,8.853,1.276,9.1,1.358-17.7,1.358-17.7l-.182-22.919Z" transform="translate(-115.155 -89.123)"/><path class="k" d="M118.952,121.925c-.509-.864-1.046-3.469-.337-7.926.476-3,.831-13.377,1.046-21.612l.1,12.9C119.782,112.2,119.485,119.8,118.952,121.925Z" transform="translate(-114.789 -82.489)"/><path class="n" d="M126.133,89.413s.6,27.26,1.273,32.375c3.629,27.421-.7,27.918-2.1,28.17s-2.932-35.386-2.932-35.386L121.188,90.8Z" transform="translate(-108.866 -88.534)"/><path class="k" d="M124.99,136.366c-.9-3.262-2.013-22.521-2.526-34.537l-.24-6.643S128.574,134.7,124.99,136.366Z" transform="translate(-106.759 -76.803)"/><path class="n" d="M121.065,107s-3.332,7.337-.976,8.708S121.065,107,121.065,107Z" transform="translate(-112.812 -52.804)"/><path class="k" d="M119.848,112.517c-.706-.594-.424-2.653.215-4.772A13.7,13.7,0,0,1,119.848,112.517Z" transform="translate(-112.429 -51.284)"/><path class="n" d="M121.922,91.782c.07-1.516-2.932,11.749-2,17.588.243,1.507,3.229,1.471,2.993,0A85.611,85.611,0,0,1,121.922,91.782Z" transform="translate(-111.798 -83.963)"/><path class="k" d="M121.025,104.4c-.409,0-.873-.173-.925-.491-.406-2.526-.036-6.57.485-10.109a86.857,86.857,0,0,0,1.028,10.348c-.064.155-.264.252-.588.252Z" transform="translate(-111.429 -79.609)"/><path class="n" d="M117.227,110.791c-.685,1.437,2.256,1.931,2.886.612a15.481,15.481,0,0,0,1.489-6.325C121.638,103.557,118.1,108.966,117.227,110.791Z" transform="translate(-117.124 -57.243)"/><path class="k" d="M118.051,109.9a1.018,1.018,0,0,1-.746-.23,34.109,34.109,0,0,1,2.871-4.59,14.722,14.722,0,0,1-1.3,4.481c-.115.237-.5.34-.825.34Z" transform="translate(-116.757 -56.703)"/><path class="n" d="M121.188,118.208c0,1.525,2.993,1.531,2.993,0l-1.81-9.032C122.37,107.651,121.188,118.208,121.188,118.208Z" transform="translate(-108.866 -48.682)"/><path class="k" d="M122.119,115.286c-.194,0-.749-.073-.749-.4.155-1.352.358-3.111.549-4.712l.961,4.857c-.015.133-.479.252-.761.252Z" transform="translate(-108.497 -46.342)"/><path class="n" d="M124.258,101.837a49.938,49.938,0,0,1,.437,7.847c-.036,1.522,2.956,1.531,2.993,0C127.748,107.055,124.055,100.354,124.258,101.837Z" transform="translate(-102.644 -63.719)"/><path class="k" d="M125.391,107.71a.988.988,0,0,1-.661-.206c0-1.792-.064-3.514-.194-5.194a14.394,14.394,0,0,1,1.628,4.985c-.006.3-.479.415-.773.415Z" transform="translate(-102.063 -62.327)"/><path class="n" d="M122.125,100.04c-.188-1.519-1.84,11.224-1.634,16.87.058,1.528,3.05,1.522,2.993,0Q123.174,108.441,122.125,100.04Z" transform="translate(-110.319 -67.194)"/><path class="k" d="M121.462,113.321c-.3,0-.779-.118-.788-.424a90.606,90.606,0,0,1,.725-11.5c.37,3.848.631,7.716.77,11.558A.743.743,0,0,1,121.462,113.321Z" transform="translate(-109.947 -64.191)"/><path class="n" d="M124.655,107.346c.294,1.395.81,9.442.749,10.861-.067,1.516,2.926,1.531,2.99,0C128.463,116.579,124.316,105.749,124.655,107.346Z" transform="translate(-101.861 -52.419)"/><path class="k" d="M125.955,114.872a.94.94,0,0,1-.649-.2c.006-.888-.139-3.584-.324-6.134a34.455,34.455,0,0,1,1.765,5.909c-.012.312-.491.424-.791.424Z" transform="translate(-101.157 -49.672)"/><path class="n" d="M124.148,98.882v.376c0,1.525,2.993,1.528,2.993,0v-.376C127.141,97.357,124.148,97.354,124.148,98.882Z" transform="translate(-102.852 -71.619)"/><path class="k" d="M125.144,99.029c-.194,0-.749-.073-.749-.4v-.373c0-.324.552-.4.749-.4s.749.073.749.4v.373c0,.282-.467.4-.749.4Z" transform="translate(-102.35 -71.366)"/></g><path class="k" d="M130.944,122.616c-14.22,8.208-26.985,19.7-14.268,23.264s22.794-3.56,29.722,0,25.478,1.47,28.17-8.7-16.752-5.694-7.028-10.927,12.219-9.79,3.623-11.755S147.6,113,130.944,122.616Z" transform="translate(-42.52 -39.464)"/></g><g transform="translate(56.675 105.631)"><g transform="translate(25.227 51.454)"><rect class="g" width="24.845" height="41.436" transform="translate(2.237 9.258)"/><ellipse class="g" cx="14.656" cy="8.462" rx="14.656" ry="8.462" transform="translate(0 10.45)"/><rect class="g" width="29.312" height="10.45" transform="translate(0 8.462)"/><circle class="g" cx="12.424" cy="12.424" r="12.424" transform="translate(2.232 38.259)"/><path class="o" d="M276.934,61.414v14.9a10.254,10.254,0,0,1-2.064,1.522c-5.73,3.317-15,3.317-20.716,0a11.411,11.411,0,0,1-2.064-1.5V61.414Z" transform="translate(-249.854 -46.778)"/><path class="g" d="M280.822,70.257V59.807H251.509v10.45c0,2.168,1.43,4.331,4.293,5.984,5.723,3.305,15,3.305,20.727,0C279.389,74.588,280.822,72.425,280.822,70.257Z" transform="translate(-251.509 -51.347)"/><ellipse class="p" cx="14.656" cy="8.462" rx="14.656" ry="8.462"/></g><path class="f" d="M261.621,197.425H244.945l0-103.255c0-6.538,2.74-11.872,7.518-14.628s10.765-2.471,16.43.8l15.312,8.84V44.218h16.672V90.407c0,6.538-2.74,11.868-7.521,14.628s-10.765,2.467-16.43-.8L261.621,95.4Z" transform="translate(-244.945 -44.218)"/><ellipse class="f" cx="8.322" cy="4.805" rx="8.322" ry="4.805" transform="translate(0.001 148.361)"/></g><path class="j" d="M276.863,70.469c1.48-.669,2.8-2.2,2.41-3.774a3.842,3.842,0,0,0-2.318-2.318,19.11,19.11,0,0,0-7.152-1.234,5.21,5.21,0,0,0-2.5.307,7.25,7.25,0,0,0-1.976,1.887,9.247,9.247,0,0,1-6.491,3.04c-1.072.035-2.467.081-2.8,1.107a1.5,1.5,0,0,0,.653,1.607,3.055,3.055,0,0,0,1.776.43c1.76-.027,3.436-.753,5.177-1C268.058,69.885,272.8,72.306,276.863,70.469Z" transform="translate(-156.877 115.173)"/><path class="q" d="M331.772,49.95,306.74,94.4l-41.773,8.1c-3.651,5.1-7.168,13.505-1.018,18.356,21.05,5.527,36.089-.3,54.514-3.225,13.113-10.669,25.3-15.562,35.155-32.688Z" transform="translate(-143.762 77.711)"/><path class="j" d="M254.258,64.753c-.811-.311-1.641.53-1.826,1.38-.45,2.068,1.257,3.9,2.164,5.807.98,2.072.307,5,1.241,7.095,1.641,3.7,6.891,5.338,10.8,4.3.5-2.164,3.432-4.178,2.959-6.345-1.4.553-5.876-.742-6.733-1.983s-1.353-2.733-2.406-3.813c-1.56-1.607-4.239-2.195-5.027-4.293C255.135,66.11,255.054,65.053,254.258,64.753Z" transform="translate(-167.19 119.613)"/><path class="j" d="M254.2,86.119c1.86,1.418,5.815,3.025,8.129,2.663l10.757-1.68c1.234-.192,2.613-.477,3.29-1.526.692-1.065.365-2.464.012-3.682l-2.064-7.183a4.006,4.006,0,0,0-1.245-2.275c-1.034-.749-2.456-.361-3.7-.081-5.577,1.257-11.123-1.23-15.177-5.258-.876.211-2.617,1.749-2.652,2.652s.869,2.006.7,2.89c-.223,1.191-1.353,2.294-.7,3.317a9.465,9.465,0,0,1,.822,1.653c.135.357-.15.972-.4,1.91-.346,1.264.588,2.006,1.061,3.228C253.6,84.243,252.925,85.146,254.2,86.119Z" transform="translate(-170.065 126.469)"/><g transform="translate(26.77 0)"><path class="r" d="M360.53,37.876c0,26.154-40.009,63.3-78.942,47.961-21.331-8.644-32.492-17.745-37.415-42.415V32.349H360.53Z" transform="translate(-217.235 27.666)"/><path class="r" d="M237.164,36.76l75.355,43.505V75.253L237.164,31.747Z" transform="translate(-237.164 25.955)"/><path class="s" d="M256.771,83.214l94-54.267V33.96l-94,54.267Z" transform="translate(-181.416 17.994)"/><path class="t" d="M312.518,115.4l93.994-54.269L331.158,17.627,237.164,71.9Z" transform="translate(-237.164 -14.195)"/><path class="u" d="M251.953,68.674l9.585,5.542,15.608,9.013c8.125,4.689,21.311,4.689,29.455,0l34.928-20.17,9.585-5.542c8.125-4.689,8.125-12.3,0-17.007L325.922,25.975c-8.144-4.693-21.33-4.693-29.478,0l-44.49,25.689C243.809,56.372,243.809,63.982,251.953,68.674Z" transform="translate(-212.482 -0.466)"/><path class="v" d="M249.928,53.449l15.608,9.013c8.125,4.689,21.311,4.689,29.455,0l34.928-20.17-15.608-9.013c-8.144-4.693-21.331-4.693-29.478,0Z" transform="translate(-200.872 20.302)"/><path class="r" d="M251.746,25.69c-2.871,1.656-2.871,4.343,0,6a11.488,11.488,0,0,0,10.392,0c2.867-1.656,2.867-4.343,0-6A11.488,11.488,0,0,0,251.746,25.69Z" transform="translate(-201.825 5.2)"/><rect class="r" width="14.697" height="18.214" transform="translate(47.768 15.674)"/><path class="w" d="M249.615,23.285a3.954,3.954,0,0,0,2.068,2.4,11.48,11.48,0,0,0,10.4,0v1.161c1.68-.976,2.383-2.306,2.068-3.563a4.07,4.07,0,0,0-2.068-2.437,11.456,11.456,0,0,0-10.4,0A4.005,4.005,0,0,0,249.615,23.285Z" transform="translate(-201.762 -8.583)"/><path class="r" d="M249.67,24.132a3.954,3.954,0,0,0,2.068,2.4,11.48,11.48,0,0,0,10.4,0,4.019,4.019,0,0,0,2.068-2.4c.315-1.276-.369-2.6-2.068-3.582a11.456,11.456,0,0,0-10.4,0C250.039,21.53,249.355,22.856,249.67,24.132Z" transform="translate(-201.817 -9.431)"/><path class="r" d="M251.746,17.976c-2.871,1.656-2.871,4.343,0,6a11.488,11.488,0,0,0,10.392,0c2.867-1.656,2.867-4.343,0-6A11.488,11.488,0,0,0,251.746,17.976Z" transform="translate(-201.825 -16.734)"/><rect class="r" width="14.675" height="9.308" transform="translate(47.768 4.497)"/><g transform="translate(56.263 19.425)"><path class="v" d="M257.968,21.788,285.882,34.06c1.322.584,2.625,2.179,3.582,4.389a17.9,17.9,0,0,1,1.445,7.2l0,.169-6.161,3.359c0-.815-2.967-4.412-3.3-5.15s-.215-3.405-.665-3.582l-22.81-11.5L251.8,25.562Z" transform="translate(-251.803 -21.788)"/><path class="s" d="M251.8,22.706l27.918,12.276c1.322.58,2.621,2.175,3.582,4.385a17.964,17.964,0,0,1,1.441,7.2l0,.169L280,43.994a6.137,6.137,0,0,0-.526-2.441,2.679,2.679,0,0,0-1.23-1.434L251.8,29.866Z" transform="translate(-251.803 -19.178)"/></g><g transform="translate(75.135 59.106)"><path class="x" d="M259.44,33.686c-3.636,2.1-3.636,5.5,0,7.6a14.549,14.549,0,0,0,13.163,0c3.636-2.1,3.636-5.5,0-7.6A14.549,14.549,0,0,0,259.44,33.686Z" transform="translate(-256.714 -32.113)"/><g transform="translate(1.951 1.127)"><path class="y" d="M259.495,35.416l4.466-2.575c2.014,1.522,2.014,3.632,0,5.154Z" transform="translate(-250.755 -31.168)"/><path class="y" d="M262.44,35.854l-4.466-2.575a11.845,11.845,0,0,1,8.928,0Z" transform="translate(-255.08 -32.406)"/><path class="y" d="M262.44,33.719,266.9,36.3a11.881,11.881,0,0,1-8.928,0Z" transform="translate(-255.08 -28.672)"/><path class="y" d="M263.2,35.416l-4.466,2.579c-2.014-1.522-2.014-3.632,0-5.154Z" transform="translate(-257.221 -31.168)"/></g></g><g transform="translate(53.876 0.258)"><path class="v" d="M255.727,24.784l18.3,1c.457.027.753-.331.753-.915a3.89,3.89,0,0,0-.738-2.118,2.984,2.984,0,0,0-1.618-1.264l-20.2-4.685v2.256A7.24,7.24,0,0,1,255.727,24.784Z" transform="translate(-248.225 -16.801)"/><path class="v" d="M273.459,27.918l4.154-2.519L255.18,16.8l-4,2.306Z" transform="translate(-251.181 -16.801)"/><path class="s" d="M254.683,25.384l18.3,1c.461.027.753-.331.753-.911A3.916,3.916,0,0,0,273,23.35a3,3,0,0,0-1.618-1.264l-20.2-4.685v2.256A7.226,7.226,0,0,1,254.683,25.384Z" transform="translate(-251.182 -15.095)"/></g><path class="z" d="M251.737,24.122a11.456,11.456,0,0,0,10.4,0V22.961a11.48,11.48,0,0,1-10.4,0,3.954,3.954,0,0,1-2.068-2.4C249.354,21.816,250.057,23.146,251.737,24.122Z" transform="translate(-201.816 -5.857)"/></g><g transform="translate(132.977 79.145)"><path class="aa" d="M278.318,103.665c23.11,11.949,48.714,16.234,75.11,18.967,14.117,0,15.077-30.212,7.825-32.676l-23.34-7.195L273.952,99.418A19.909,19.909,0,0,0,278.318,103.665Z" transform="translate(-238.771 91.859)"/><path d="M299.861,86.251l15.854.857,10.085-.642c8.628,1.068,9.531,22.161,7.479,41.343l-15.854,9.962c-5.4-.288-6.753-.676-10.815-3.747-1.714-3-1.518-6.334,3.963-10.927L309.5,112.063l-10.842-2.033C291.291,107.243,291.721,90.106,299.861,86.251Z" transform="translate(-183.393 101.782)"/><path class="ab" d="M379.168,113.927c-9.67,9.754-47.792,25.593-47.792,25.593l23.637,7.275c2.314.792,3.793,4.439,4.27,9.024,1.022,9.716-2.5,23.66-12.087,23.66-26.408-2.733-52-7.006-75.118-18.967-8.025-5.815-9.774-14.132-3.44-25.7,14.32-15.258,34.475-29.263,56.924-42.792,0,0,55.824-22.695,55.8-20.254,0,.334,3.205,6.353,3.413,7.249l.019.019C386.213,84.891,390.986,101.963,379.168,113.927Z" transform="translate(-264.798 60.074)"/><g transform="translate(5.59)"><path class="ab" d="M365.7,141.692c-4.335,12.218-26.3,22.341-40.551,27.138-.715.177-1.4.407-2.041.561-4.643,1.3-8.6,1.353-10.915-.254a4.215,4.215,0,0,1-.972-.765c-5.354-5.335-14.662-24-23.283-42.5-1.71-3.67-3.394-7.345-5-10.915l-2.014,1.66c-3.14-6.864-6.43-11.837-9.132-16.938-3.421-6.48-.461-14.359,3.978-22.038l1.53-2.525c3.751-5.992,7.245-9.743,10.1-13.594,6.376-4.566,20.992-11.449,20.992-11.449s6.222-1.072,11.73-1.991c2.833-.434,5.511-.869,7.014-1.1,17.729,3.647,20.662,40.474,34.075,78.861C362.359,128.405,366.745,138.633,365.7,141.692Z" transform="translate(-254.736 -9.845)"/><path class="ac" d="M303.722,110.583c2.783,8.9,5.346,18.11,4.635,27.407a45.124,45.124,0,0,1,11.038-10.75c-17.045-20.777-20.427-49.983-36.412-71.582A504.524,504.524,0,0,1,303.722,110.583Z" transform="translate(-218.682 14.796)"/><path class="ad" d="M328.626,61.559,296.442,85.126c-6.48-13.621-15.254-15.25-24.716-8.29l1.53-2.525c3.751-5.992,7.245-9.743,10.1-13.594,6.376-4.566,20.992-11.449,20.992-11.449s6.222-1.072,11.73-1.991C322.123,50.336,327,55.54,328.626,61.559Z" transform="translate(-250.692 -9.034)"/><path class="j" d="M299.249,54.052a58.811,58.811,0,0,1,4.1,9.312,19.818,19.818,0,0,1,.692,10.046,15.039,15.039,0,0,1-6.391,9.151,13.92,13.92,0,0,1-3.205,1.587,8.236,8.236,0,0,1-3.521.515,9.144,9.144,0,0,1-4.893-2.5l-.008-.012c-.319-.277-.626-.557-.926-.849-6.941-6.614-12.195-14.831-16.48-23.414a17.068,17.068,0,0,1-1.553-3.97c-.869-4.116,1.353-8.459,4.708-11.007s7.633-3.57,11.834-3.928a10.738,10.738,0,0,1,3.455.127c1.072.261,2.049.811,3.1,1.161C291.447,40.7,296.927,49.509,299.249,54.052Z" transform="translate(-264.491 -32.839)"/><path class="ae" d="M280.09,52.589c1.03,1.764,2.014,3.559,3,5.354a3.331,3.331,0,0,1,.473,1.222,1.7,1.7,0,0,1-.081.7,13.922,13.922,0,0,1-3.205,1.587,8.236,8.236,0,0,1-3.521.515,9.144,9.144,0,0,1-4.893-2.5l-.008-.012c5.311,1.311,5.869-2.76,1.241-12.56C276.22,50.925,277.519,48.173,280.09,52.589Z" transform="translate(-250.325 -10.138)"/><path class="j" d="M291.494,41.726,270.98,53.64,286.4,80.19l19.613-13.464Z" transform="translate(-252.812 -24.817)"/><path class="j" d="M290.482,47.8c5.362-.015,6.468,1.568,3.8,6.219s-6.9,7.114-14.074,9.274c-5.139,1.545-6.941-2.394-4.27-7.049S285.12,47.81,290.482,47.8Z" transform="translate(-242.204 -7.553)"/><path d="M282.335,71c1.972,4.716,5.335.027,7.721,3.282,9.351,12.768,26.185-.05,24.955-6.065-8.29-40.628-31.415-30.089-34.394-28.483-10.12,5.458-19.809,16.538-10.784,21.811C279.664,56.264,279.918,65.215,282.335,71Z" transform="translate(-266.252 -37.327)"/><path class="j" d="M272.08,44.937a3.206,3.206,0,0,0-1.1,3.386,12.659,12.659,0,0,0,1.868,4.066,11.68,11.68,0,0,0,3.69,4.27,2.216,2.216,0,0,0,1.5.384,2.114,2.114,0,0,0,1.549-1.737,4.668,4.668,0,0,0-.331-2.291A30.393,30.393,0,0,0,276.45,47a5.68,5.68,0,0,0-1.729-1.975A2.562,2.562,0,0,0,272.08,44.937Z" transform="translate(-253.05 -16.614)"/></g><path d="M291.35,91.99l15.854.857,10.085-.638c8.628,1.068,9.532,22.157,7.479,41.343l-15.85,9.962c-5.4-.288-6.757-.676-10.819-3.751-1.714-3-1.518-6.33,3.963-10.923l-1.072-11.034-10.842-2.037C282.78,112.986,283.21,95.849,291.35,91.99Z" transform="translate(-207.593 118.1)"/><path class="af" d="M356.791,108.429C347.121,118.183,309,134.022,309,134.022l23.637,7.275c2.314.792,3.793,4.439,4.27,9.024l-17.3,3.9c-6.315-12.756-25.8-17.464-46.939-19.443,32.6-5.753,52.212-17.426,47.085-38.56,20.385,17.568,42.311-3.586,42.646-22.7l.019.019C363.836,79.392,368.609,96.465,356.791,108.429Z" transform="translate(-242.421 65.572)"/></g><path class="ad" d="M311.337,61.4l-8.279,33.545-43.6,5.258c-3.651,5.1-5.342,16.353.807,21.2,21.05,5.527,37.081,6.026,55.506,3.105,13.113-10.669,19.1-25.5,20.708-45.19C338.471,54.911,317.567,51.618,311.337,61.4Z" transform="translate(-156.323 95.687)"/></g><g transform="translate(1110 518)"><g transform="translate(0 1.067)"><path class="ag" d="M348.723,181.942l2.053-4.479a1.731,1.731,0,0,1,1.542-.712c.948-.014,1.658.46,1.51,1.006l-.865,3.147Z" transform="translate(-317.298 -165.21)"/><path class="ah" d="M362.7,180.694s1.133-1.045.086-1.6l-1.679-.89-.652,1.3-2.692-1.427-1.207,1.168a20.9,20.9,0,0,0-2.895-.523c-.273.09.5,1.191.5,1.191s-3.105.153-3.3.176.56.927.56.927Z" transform="translate(-331.534 -163.474)"/><g transform="translate(0 7.172)"><path class="ai" d="M384.261,182.151a33.861,33.861,0,0,0-7.744,5.059c-2.063,1.718-5.538,2.685-9.046,2.516A21.649,21.649,0,0,1,360,188.1l-.231-.1a8.438,8.438,0,0,0-7.159.467,2.7,2.7,0,0,0-1.5,2.238l.039,1.325c.014.43-.923.65-1.387.328-3.778-2.629-4.086-7.883.116-10.512l4.548-1.138c3.646-2.282,9.7-2.446,13.342-.365,3.094,1.767,8.026,1.952,11.751.442l7.852-3.619c.768.828.206,2.775-.062,3.683A21.183,21.183,0,0,1,384.261,182.151Z" transform="translate(-346.827 -171.832)"/><path class="aj" d="M356.274,179.046c-1.653,1.982-10.826,4.262-14.789,5.878.634-.789.68-.851-.09-1.679l10.1-5.653s3.7-2.655,4.014-2.729A2.787,2.787,0,0,1,356.274,179.046Z" transform="translate(-303.448 -174.861)"/></g><g transform="translate(12.227)"><path class="ak" d="M367.877,177.777c-2.067,1.094-4.125.585-7.536,2.592-1.015.6-1.97,4.245-5.281,3.873-2.113-.238-5.3-1.246-.95-4.969,3.963-3.39,7.619-2.439,10.523-3.677,1.387.509,2.844,1.064,4.192,1.614A10.8,10.8,0,0,1,367.877,177.777Z" transform="translate(-351.939 -166.725)"/><path class="aj" d="M362.4,174.036c-.562.851-3.788,1.475-4.465,1.6-.622.12-3.376,4.329-6.812,6.6-1.348-.55-2.8-1.105-4.192-1.614a5.743,5.743,0,0,0,.828-.43c1.6-1,8.389-8.183,13.518-8.437C362.874,171.682,362.955,173.187,362.4,174.036Z" transform="translate(-334.233 -171.76)"/></g><path class="ag" d="M357.42,178.177c-.3.19-.294.476.019.643a1.226,1.226,0,0,0,1.112-.042.34.34,0,0,0-.021-.643A1.221,1.221,0,0,0,357.42,178.177Z" transform="translate(-341.818 -163.542)"/><path class="ag" d="M354.795,176.221a.985.985,0,0,0-.888.032c-.243.153-.236.382.014.513a.983.983,0,0,0,.89-.032A.271.271,0,0,0,354.795,176.221Z" transform="translate(-330.014 -166.023)"/></g><g transform="translate(18.408 12.328)"><path class="aj" d="M359.691,180.6s2.046-1.822-.2-3.015-6.007-.587-5.517-.018-1.17.939-.13.865a10.432,10.432,0,0,1,4.548,2C358.674,180.891,359.691,180.6,359.691,180.6Z" transform="translate(-353.441 -176.28)"/><path class="ag" d="M359.716,180.33s2.046-1.82-.2-3.013-6.007-.587-5.517-.021-1.17.941-.129.865a10.415,10.415,0,0,1,4.55,2C358.7,180.624,359.716,180.33,359.716,180.33Z" transform="translate(-353.519 -176.63)"/></g><g transform="translate(23.417 11.154)"><path class="aj" d="M359.743,178.663l-10.549-1.6-.162-.661,11.8.927S362.782,178.628,359.743,178.663Z" transform="translate(-349.033 -175.752)"/><path class="ag" d="M359.73,178.374l-10.549-1.6,1.563-.652,9.575,1.232S362.769,178.339,359.73,178.374Z" transform="translate(-349.182 -176.122)"/></g><g transform="translate(0.212 0)"><path class="ag" d="M348.715,181.235l2.053-4.479a1.738,1.738,0,0,1,1.542-.71c1.609-.335,1.741,1.824,1.591,2.37l-.946,1.78Z" transform="translate(-317.593 -165.114)"/><path class="ah" d="M362.735,180.3s1.133-1.047.086-1.6l-1.679-.893-.652,1.3L357.8,177.68l-1.207,1.17a20.937,20.937,0,0,0-2.9-.525c-.273.09.5,1.193.5,1.193s-3.105.153-3.3.173.56.93.56.93Z" transform="translate(-331.879 -162.924)"/><g transform="translate(0 6.98)"><path class="ak" d="M385.252,180.451a33.876,33.876,0,0,0-7.746,5.059c-2.063,1.716-5.536,2.685-9.046,2.516a21.662,21.662,0,0,1-7.473-1.623l-.231-.1a8.431,8.431,0,0,0-7.159.467,2.692,2.692,0,0,0-1.5,2.238l.039,1.325c.012.43-.925.65-1.39.326-3.776-2.629-3.457-6.565.745-9.194l3.919-2.453c3.647-2.282,9.7-2.449,13.344-.365,3.091,1.767,8.024,1.952,11.749.439l3.371-1.367a22.936,22.936,0,0,1,1.975,2.472C385.638,180.28,385.434,180.368,385.252,180.451Z" transform="translate(-348.118 -170.55)"/><path class="ag" d="M358.3,178.081c-1.653,1.984-10.826,4.264-14.792,5.878a22.933,22.933,0,0,0-1.975-2.472l11.982-4.858a16.439,16.439,0,0,1,2.014-2.31C355.851,174.245,360.048,175.991,358.3,178.081Z" transform="translate(-305.778 -174.317)"/></g><g transform="translate(11.925)"><path class="ak" d="M367.917,177.053c-2.07,1.094-4.127.583-7.536,2.592-1.015.6-1.97,4.245-5.283,3.873-2.111-.238-5.3-1.246-.95-4.969,3.966-3.392,7.619-2.442,10.525-3.679,1.385.511,2.844,1.066,4.19,1.616Q368.4,176.8,367.917,177.053Z" transform="translate(-351.978 -166.611)"/><path class="ag" d="M362.549,172.965c-.559.851-3.787,1.473-4.465,1.6-.622.12-3.374,4.326-6.812,6.6-1.346-.55-2.8-1.105-4.19-1.616a5.853,5.853,0,0,0,.828-.428c1.6-1,4.837-5.152,8.7-7.566C357.966,170.71,363.111,172.114,362.549,172.965Z" transform="translate(-334.387 -171.298)"/></g><path class="ag" d="M357.457,177.452c-.3.187-.294.476.019.641a1.225,1.225,0,0,0,1.112-.042.338.338,0,0,0-.018-.641A1.226,1.226,0,0,0,357.457,177.452Z" transform="translate(-342.158 -163.426)"/><path class="ag" d="M354.833,175.5a.983.983,0,0,0-.89.032.271.271,0,0,0,.016.513.983.983,0,0,0,.89-.032C355.09,175.858,355.083,175.629,354.833,175.5Z" transform="translate(-330.352 -165.908)"/><path class="ag" d="M358.855,180.277a4.177,4.177,0,0,0-3.774.143,1.15,1.15,0,0,0,.065,2.178,4.177,4.177,0,0,0,3.774-.141A1.152,1.152,0,0,0,358.855,180.277Z" transform="translate(-336.302 -160.018)"/></g><path class="ak" d="M378.145,180.373c.257.529-1.163,1.36-1.882,1.958-2.063,1.718-5.538,2.685-9.046,2.518a21.7,21.7,0,0,1-7.473-1.623l-.231-.1a8.429,8.429,0,0,0-7.159.467,4.609,4.609,0,0,0-1.575,1.97s.569-4.729,7.933-3.043c2.62.6,5.346,2.3,10.535,1.773a17.5,17.5,0,0,0,4.763-1.378C374.873,182.442,377.97,180.012,378.145,180.373Z" transform="translate(-346.383 -159.438)"/><g transform="translate(4.311 23.277)"><path class="al" d="M373.447,182.018c-.275.049-.444.072-.444.072-.2.021-.4.037-.587.049a17.332,17.332,0,0,1-2.569,0l-1.156.287-14.172,3.519-.069.52a12.845,12.845,0,0,0,11.786-.382c2.569-1.4,4.613-2.56,6.127-3.438C372.76,182.42,373.123,182.21,373.447,182.018Z" transform="translate(-354.449 -180.508)"/><path class="ah" d="M372.792,183a17.33,17.33,0,0,1-2.569,0,27.707,27.707,0,0,1-6.636-1.635l-.384.243-8.308,5.2a12.843,12.843,0,0,0,11.783-.379c2.086-1.138,3.82-2.113,5.21-2.911C372.209,183.333,372.51,183.157,372.792,183Z" transform="translate(-354.826 -181.365)"/></g></g><g transform="translate(1095.94 471.621)"><path class="ai" d="M297.556,228.153l-2.922-2.2s29.8-13.4,32.231-15.2c1.7-1.256,4.678-4.045,6.318-5.612.628-.6,1.625-1.91,2.684-1.541.009,0,.058-1.288,1.457-.648.931.427.253,2.823-.25,3.4a31.688,31.688,0,0,1-6.5,5.841c-2.925,1.707-23.909,12.968-29.937,16.2A2.865,2.865,0,0,1,297.556,228.153Z" transform="translate(-255.525 -197.016)"/><path class="ai" d="M301.386,225.226l-3.533-2.131s16.832-9.078,21.217-11.718,17.838-7.912,18.818-8.22,2.419-2.8,3.062-1.736c1.172,1.936-.707,3.617-1.919,4.286s-12.843,5.914-15.085,6.923c-1.826.82-14.462,9.36-19.1,12.506A3.211,3.211,0,0,1,301.386,225.226Z" transform="translate(-268.421 -200.105)"/><g transform="translate(0 20.603)"><path class="al" d="M308.286,225.73l16.687-1.82,8.039-.25,12.686-7.007s.887-.965.989-1.128,4.056-2.236,4.056-2.236l.331-3.213-21.447,9.081s-9.368,1.125-12.43,2.053-8.589,2.655-8.889,3.187A1.909,1.909,0,0,0,308.286,225.73Z" transform="translate(-308.169 -203.699)"/><path class="am" d="M307.216,225.271l16.687-1.82,8.04-.25,12.686-7.007s.887-.962.989-1.128,7.135-3.943,7.135-3.943L350,209.616,328.558,218.7s-9.368,1.125-12.43,2.053-8.237,3.056-8.537,3.585A3.249,3.249,0,0,0,307.216,225.271Z" transform="translate(-307.075 -204.574)"/><path class="al" d="M345.09,210.055l.02-1.332-16.539,5.408s-1.233,9.456-1.495,9.6a57.139,57.139,0,0,0-1.753,5.612l-14.067-1.907-.023,1.335s.486,1.966,3.748,2.131,8.769,2.442,14.707.547,5.8-4.37,5.8-4.37l1.16-10.77Zm-10.729,5.623c.038.238-1.643-.157-1.643-.157l-.023,1.335s.794,1.349.689,1.809c-.07.32-1.439.291-1.439.291l-.023,1.332s.791,1.352.689,1.806-1.465,1.622-1.465,1.622,1.794,1.227,1.611,1.692a3.554,3.554,0,0,1-2.3.922,3.386,3.386,0,0,1-2.169-1.064c-.166-.465,1.471-1.669,1.471-1.669s-.794-1.349-.686-1.806,1.46-1.625,1.46-1.625l.023-1.335s-.773-.186-.712-.471c.1-.456,1.465-1.622,1.465-1.622l.023-1.335s-1.538.4-1.474.18c.116-.419,1.672-.983,2.407-.96C332.954,214.649,334.3,215.28,334.361,215.678Z" transform="translate(-311.116 -206.278)"/><path class="ah" d="M345.625,209.72l-3.539-1.838L327.694,215.4s-.637,8.464-.9,8.607a57.122,57.122,0,0,0-1.753,5.612l-14.09-.573s.486,1.966,3.748,2.131,8.77,2.442,14.707.55,5.8-4.373,5.8-4.373l1.16-10.77Zm-11.546,6.228c.058.384-1.666,1.178-1.666,1.178s.794,1.352.689,1.811-1.462,1.622-1.462,1.622.791,1.349.689,1.806-1.466,1.62-1.466,1.62,1.794,1.227,1.611,1.692a3.556,3.556,0,0,1-2.306.922A3.385,3.385,0,0,1,328,225.534c-.166-.462,1.468-1.669,1.468-1.669s-.791-1.349-.683-1.806,1.46-1.625,1.46-1.625-.788-1.349-.689-1.806,1.465-1.622,1.465-1.622-1.553-.805-1.451-1.154c.116-.419,1.672-.983,2.408-.957C332.672,214.918,334.015,215.549,334.079,215.948Z" transform="translate(-310.811 -207.882)"/><path class="al" d="M315.138,215.761l.631-2.28s6.528.076,6.845.192,1.259.835.535,1.672a2.381,2.381,0,0,1-2.2,1.041C320.084,216.307,315.138,215.761,315.138,215.761Z" transform="translate(-300.773 -197.201)"/><path class="al" d="M318.555,213.931a2.9,2.9,0,0,0-2.623-.047c-.736.407-.753,1.085-.038,1.515a2.9,2.9,0,0,0,2.623.047C319.253,215.039,319.27,214.361,318.555,213.931Z" transform="translate(-297.11 -196.985)"/></g><path class="ak" d="M297.537,226.256l-2.582-1.945a.423.423,0,0,1,.079-.724c4.376-1.971,29.361-13.268,31.58-14.9,1.7-1.253,4.678-4.045,6.318-5.612a3.269,3.269,0,0,1,3.044-.416c.991.343,1.349,1.05.846,1.622a31.6,31.6,0,0,1-6.5,5.841c-2.969,1.733-24.535,13.3-30.2,16.338A2.414,2.414,0,0,1,297.537,226.256Z" transform="translate(-255.226 -197.611)"/><path class="ak" d="M301.445,223.513l-3.227-1.948a.492.492,0,0,1,.017-.855c3.326-1.8,16.635-9,20.461-11.311,4.385-2.64,17.838-7.912,18.815-8.22s2.067-.779,2.8.227-.442,1.654-1.654,2.326-12.843,5.911-15.085,6.92c-1.884.849-15.271,9.909-19.51,12.788A2.429,2.429,0,0,1,301.445,223.513Z" transform="translate(-268 -200.796)"/></g><g transform="translate(695.392 278.667)"><path class="an" d="M186.007,96.585S162.933,87.1,166.094,81.533s17.611-7.682,19.6-9.065S201.035,53.02,201.035,53.02s6.517,5.738,10.266,1.8,13.835-11.8,9.921.909c-1.169,3.792-25.208,31.085-30.6,35.059S186.007,96.585,186.007,96.585Z" transform="translate(-93.398 -32.821)"/><path class="ao" d="M173.217,157.918c0,2.618,7.8,7.851,13.5,9.185a8.432,8.432,0,0,0,2.006.34c-.091.128.283,1.04,9.046,6.185,15.057,8.838,18.657.981,18.657-1.634,0-2.559-9.958-10.4-12.274-11.092l-.163-.037c-1.963-.329-9.819-12.437-9.819-12.437L180.75,136.97s-2.623,9.819-2.947,10.8a25.622,25.622,0,0,1-1.227,2.3C175.212,152.5,173.217,156.127,173.217,157.918Z" transform="translate(-107.554 114.792)"/><path class="an" d="M173.217,149.95c0,2.618,7.8,7.851,13.5,9.185a8.433,8.433,0,0,0,2.006.34c-.091.128.283,1.04,9.046,6.185,15.057,8.838,18.657.981,18.657-1.634,0-2.559-9.958-10.4-12.274-11.092l-.163-.037s7.118,10.8-9.164,5.238c-6.511-2.23-11.335-6.305-15.18-12.333-3.7-5.8-3.064-3.7-3.064-3.7C175.212,144.53,173.217,148.158,173.217,149.95Z" transform="translate(-107.554 122.76)"/><path class="ap" d="M206.55,88.4s10.228,12.111,9.576,33.711S205,166.618,205,166.618l-14.728,51.71-.655,11.458s-3.928,2.289-10.145,0a13.23,13.23,0,0,1-7.854-8.182s3.925-18,1.963-22.585-.981-18.654-.326-21.272,4.91-8.838,5.562-12.439.329-26.836.329-26.836-11.456-19.309,0-35.348S206.55,88.4,206.55,88.4Z" transform="translate(-103.002 33.434)"/><g transform="translate(31.299 272.135)"><path class="ao" d="M189.877,157.438c0,2.292,2.128,6.872,4.094,9s3.27,8.346,5.725,12.113,7.693,7.2,13.092,8.017,8.509.658,9.982-3.6c.9-2.612-3.252-9.174-7.124-14.458-2.431-3.318-4.757-6.132-5.642-7.142-2.286-2.618-4.089-12.6-4.089-12.6l-11.129-4.174s-1.46,3.139-2.784,6.364C190.894,153.643,189.877,156.392,189.877,157.438Z" transform="translate(-189.877 -144.589)"/><path class="an" d="M189.877,153.453c0,2.292,2.128,6.872,4.094,9s3.27,8.346,5.725,12.113,7.693,7.2,13.092,8.017,8.509.658,9.982-3.6c.9-2.612-3.252-9.175-7.124-14.458,0,0,1.07,6.765-3.348,6.273s-10.311-2.615-13.418-8.017S192,146.969,192,146.969C190.894,149.659,189.877,152.408,189.877,153.453Z" transform="translate(-189.877 -140.605)"/></g><path class="ab" d="M236.048,92.322s-9.477,84.739-12.921,89.01-10.319,13.432-11.3,19.651-9.819,44.265-9.819,44.265-4.909,4.992-9.819,0l-4.909-4.992s-4.581-34.037-4.254-39.928,12.437-27.165,12.437-27.165-6.546-51.057-2.618-61.531S203.318,88.37,203.318,88.37Z" transform="translate(-153.362 33.436)"/><path class="aq" d="M174.665,93.134c.054,1.021.139,1.984.257,2.859.981,7.118,13.009,25.529,15.464,29.211s0,12.274,0,12.274l-1.719.735c-1.717.735-3.837,11.562-3.837,11.562s11.939,16.175,33.54,15.929,26.839-22.729,26.4-23.427-7.5-24.684-7.5-24.684-2.209-8.838,1.473-11.782,2.947-8.346,2.947-12.274S221.07,65.308,221.07,65.308a3.9,3.9,0,0,0-3.57-.834,8.34,8.34,0,0,0-3.377,1.949A15.541,15.541,0,0,0,212,68.731l5.88-10.541s-22.828-1.473-23.563,0c-.521,1.046-3.885,6.284-5.795,9.244L187.2,69.482s-2.348.947-4.88,2.051c-2.781,1.2-5.784,2.588-6.166,3.1C175.5,75.5,174.288,85.81,174.665,93.134Z" transform="translate(-139.612 -18.182)"/><path class="ao" d="M188.179,60.13a8.34,8.34,0,0,0-3.377,1.949Z" transform="translate(-110.291 -13.838)"/><path class="ar" d="M184.67,67.439c-.2.3,2.848,5.968,7.257,8.915s14,4.417,18.346,1.473,0-11.4,0-11.4a15.54,15.54,0,0,0-2.126,2.308l5.88-10.541s-22.828-1.473-23.563,0c-.521,1.046-3.885,6.284-5.795,9.244Z" transform="translate(-135.763 -18.182)"/><path class="ao" d="M196.922,84.371c2.265,1.473,5.161,2.69,8.11,2.12,4.909-.941,1.415-16.568-.46-23.721-2.781,1.2-5.784,2.588-6.166,3.1C197.756,66.736,196.545,77.047,196.922,84.371Z" transform="translate(-161.869 -9.419)"/><path class="ao" d="M173.908,57.381s7.305,1.489,10.461,1.179,24.042,3.7,25.831,2.551,6.763-5.1,6.281-7.693-7.172-7.99-18.389-6.148-26.965,3.388-29.652,3.653S162.514,57.453,173.908,57.381Z" transform="translate(-87.97 -35.995)"/><g transform="translate(73.781 4.017)"><path class="ao" d="M187.16,54.614s1.989-4.942,1.3-6.161c-.979-1.717-4.385-2.559-4.385-2.559a13.483,13.483,0,0,0-2.024-.481c-1.179-.163-.118,2.235,0,2.187.872-.358,3.99,1.864,3.99,1.864Z" transform="translate(-175.657 -42.505)"/><path class="ao" d="M188.042,54.294l-.866-1.84a3.826,3.826,0,0,0,.433-3.658c-.912-1.81-1.527-1.054-1.366-.709s-1.631,2.334-1.631,2.334.73,3.805,1.714,4.663a13.743,13.743,0,0,0,2.9,1.677Z" transform="translate(-184.611 -38.775)"/><path class="ao" d="M187.191,45.929c-.262-.834-3.139-1.554-3.139-1.554s-1.61-.324-.6.6,3.6,2.736,3.6,2.736A4.929,4.929,0,0,0,187.191,45.929Z" transform="translate(-178.634 -44.32)"/></g><path class="ao" d="M219.616,58.053s2.436,11.287.818,13.255-.754,5.805-1.187,7.466a52.594,52.594,0,0,1-1.5,6.4c-.952,2.7-.452,7.862-3.22,8.76s-6.49,1.714-8.739.9-13.418-7.816-13.91-8.92c0,0-9.573-14.851-9.816-19.884s1.227-20.373,13.255-22.582S217.038,49.954,219.616,58.053Z" transform="translate(-135.703 -42.347)"/><path d="M220.186,59.017l6.46,9.573s3.171-9.819-2.23-17.183-18.042-7.835-18.042-7.835-13.4-4.316-19.341,7.712,2.158,27.451,1.177,32.075-6.519,6.725-6.519,6.725,8.362,8.207,14.988,8.7,7.394-.051,6.629,0-4.051-10.434-4.174-13.009,1.719-11.867,1.719-11.867,10.677-.754,14.482-3S220.186,59.017,220.186,59.017Z" transform="translate(-141.364 -42.818)"/><path class="aq" d="M219.369,59.386s11.2.738,14.605,1.6,7.244,1.687,7.551,5.693,5.214,18.731.3,24.868-11.782,4.54-12.643,3.559-7.731-10.431-14.605-13.5-22.336-15.1-17.8-17.673S219.369,59.386,219.369,59.386Z" transform="translate(-195.966 -15.084)"/><path class="ao" d="M260.185,57.212s-.078,1.885-1.6,1.842-4.754,1.824-4.754,1.824l-3.468,2.444s-6.26,8.33-7.856,9.517-15.833,7.434-16.691,7.808-18.534,11.022-20.988,11.407-7.854,4.064-11.782,3.575-7.241-4.666-7.241-5.032,1.842-5.688,5.032-8.305,19.269-7.4,21.355-7.773,21.692-8.1,21.692-8.1,4.206-12.889,4.575-13.378,6.38-7.979,6.626-7.487,4.134-1.754,4.134-1.754,2.861-.773,3.107,0a2.043,2.043,0,0,1-1.532,2.366,9.7,9.7,0,0,0-3.008,1.169l-3.559,3.495,4.744-2.738,5.321-1.187s4.418.489,4.663.858.423,1.936-.858,1.84a4.47,4.47,0,0,0-2.324.508H259.5s1.792,1.334-.909,2.562l-2.7,1.227L250.8,56.6l-3.008,3.749,5.4-1.786,3.925-1.35Z" transform="translate(-184.987 -41.751)"/></g><g transform="translate(-1235.025 -337.029)"><path class="as" d="M3056.189,752.77a4.145,4.145,0,1,1,4.146-4.146A4.15,4.15,0,0,1,3056.189,752.77Zm0-6.075a1.93,1.93,0,1,0,1.93,1.93A1.932,1.932,0,0,0,3056.189,746.694Z" transform="translate(-778.54 -132.686)"/><path class="as" d="M3056.189,752.77a4.145,4.145,0,1,1,4.146-4.146A4.15,4.15,0,0,1,3056.189,752.77Zm0-6.075a1.93,1.93,0,1,0,1.93,1.93A1.932,1.932,0,0,0,3056.189,746.694Z" transform="translate(-1159.54 -65.686)"/><path class="as" d="M2825,1093.1a.952.952,0,0,0-1.3-.335l-3.158,1.866-1.866-3.158a.952.952,0,0,0-1.639.969l1.866,3.158-3.158,1.866a.952.952,0,1,0,.968,1.639l3.158-1.866,1.866,3.159a.952.952,0,0,0,1.638-.968l-1.866-3.158,3.158-1.866A.952.952,0,0,0,2825,1093.1Z" transform="translate(-417.256 -359.567)"/><path class="as" d="M2857.5,1140.53a4.145,4.145,0,1,1,4.146-4.146A4.15,4.15,0,0,1,2857.5,1140.53Zm0-6.075a1.93,1.93,0,1,0,1.93,1.93A1.932,1.932,0,0,0,2857.5,1134.455Z" transform="translate(-539.747 -409.086)"/><path class="as" d="M3223.569,1523.271a.951.951,0,0,0-.438,1.272l1.606,3.3-3.3,1.606a.952.952,0,1,0,.834,1.711l3.3-1.607,1.607,3.3a.952.952,0,0,0,1.711-.833l-1.607-3.3,3.3-1.607a.953.953,0,0,0,.528-.965.942.942,0,0,0-.09-.307.952.952,0,0,0-1.272-.439l-3.3,1.607-1.607-3.3A.952.952,0,0,0,3223.569,1523.271Z" transform="translate(-749.147 -704.529)"/><path class="as" d="M2979.385,1736.56a4.145,4.145,0,1,1,4.145-4.145A4.15,4.15,0,0,1,2979.385,1736.56Zm0-6.075a1.93,1.93,0,1,0,1.93,1.93A1.932,1.932,0,0,0,2979.385,1730.484Z" transform="translate(-529.141 -1047.441)"/><path class="as" d="M1868.7,1659.694a.952.952,0,0,0-.073,1.344l2.449,2.731-2.731,2.449a.952.952,0,0,0,1.271,1.417l2.731-2.449,2.449,2.731a.952.952,0,1,0,1.417-1.271l-2.449-2.731,2.731-2.449a.953.953,0,0,0,.243-1.073.942.942,0,0,0-.171-.27.952.952,0,0,0-1.343-.073l-2.731,2.449-2.449-2.731A.952.952,0,0,0,1868.7,1659.694Z" transform="translate(-23 -825.179)"/><path class="as" d="M2088.613,1834.288a4.145,4.145,0,1,1,4.145-4.145A4.15,4.15,0,0,1,2088.613,1834.288Zm0-6.075a1.93,1.93,0,1,0,1.929,1.93A1.932,1.932,0,0,0,2088.613,1828.212Z" transform="translate(-282.212 -946.298)"/><path class="as" d="M1884.863,955.276a.951.951,0,0,0-.043,1.345l2.51,2.675-2.675,2.509a.952.952,0,0,0,1.3,1.388l2.675-2.51,2.51,2.675a.952.952,0,1,0,1.388-1.3l-2.51-2.675,2.676-2.51a.954.954,0,0,0,.219-1.078.942.942,0,0,0-.177-.267.952.952,0,0,0-1.345-.043l-2.676,2.51-2.51-2.675A.952.952,0,0,0,1884.863,955.276Z" transform="translate(21.498 -333.101)"/><path class="as" d="M1884.863,955.276a.951.951,0,0,0-.043,1.345l2.51,2.675-2.675,2.509a.952.952,0,0,0,1.3,1.388l2.675-2.51,2.51,2.675a.952.952,0,1,0,1.388-1.3l-2.51-2.675,2.676-2.51a.954.954,0,0,0,.219-1.078.942.942,0,0,0-.177-.267.952.952,0,0,0-1.345-.043l-2.676,2.51-2.51-2.675A.952.952,0,0,0,1884.863,955.276Z" transform="translate(-51.502 -255.101)"/><path class="as" d="M1955.986,1021.9a4.146,4.146,0,1,1,4.146-4.146A4.15,4.15,0,0,1,1955.986,1021.9Zm0-6.076a1.93,1.93,0,1,0,1.93,1.93A1.932,1.932,0,0,0,1955.986,1015.824Z" transform="translate(-30.909 -270.785)"/><path class="as" d="M1955.986,1021.9a4.146,4.146,0,1,1,4.146-4.146A4.15,4.15,0,0,1,1955.986,1021.9Zm0-6.076a1.93,1.93,0,1,0,1.93,1.93A1.932,1.932,0,0,0,1955.986,1015.824Z" transform="translate(-97.909 -243.785)"/><path class="as" d="M3254.274,1053.263a.952.952,0,0,0-.806,1.078l.523,3.631-3.63.524a.952.952,0,1,0,.272,1.884l3.631-.524.524,3.631a.952.952,0,1,0,1.884-.272l-.524-3.631,3.631-.524a.952.952,0,0,0-.272-1.884l-3.63.524-.524-3.631A.953.953,0,0,0,3254.274,1053.263Z" transform="translate(-873.569 -433.284)"/><path class="as" d="M2425.875,583.277a.952.952,0,0,0-1.047.846l-.388,3.648-3.647-.389a.952.952,0,0,0-.2,1.893l3.648.388-.389,3.647a.952.952,0,1,0,1.893.2l.389-3.648,3.648.389a.952.952,0,1,0,.2-1.893l-3.647-.389.388-3.647A.952.952,0,0,0,2425.875,583.277Z" transform="translate(-354.852)"/></g></g></svg>