<svg xmlns="http://www.w3.org/2000/svg" width="20.917" height="20.916" viewBox="0 0 20.917 20.916"><defs><style>.a{fill:#fff;}</style></defs><g transform="translate(0 -0.013)"><path class="a" d="M20.262,236.638a1.838,1.838,0,0,0-2.53.153l-1.8,1.934a1.842,1.842,0,0,0-1.756-1.293H10.961c-.244,0-.326-.093-.749-.42a4.3,4.3,0,0,0-5.652.013l-1.181,1.04a1.831,1.831,0,0,0-1.685-.021l-1.355.677a.613.613,0,0,0-.274.822L3.741,246.9a.613.613,0,0,0,.822.274l1.355-.678a1.837,1.837,0,0,0,1.016-1.709h7.241a4.31,4.31,0,0,0,3.431-1.716l2.942-3.922A1.833,1.833,0,0,0,20.262,236.638ZM5.37,245.4l-.807.4-3.129-6.257.807-.4a.612.612,0,0,1,.822.274l2.581,5.161A.613.613,0,0,1,5.37,245.4Zm14.2-6.986-2.942,3.922a3.078,3.078,0,0,1-2.451,1.226H6.506l-2.3-4.593,1.16-1.021a3.071,3.071,0,0,1,4.048,0,2.169,2.169,0,0,0,1.543.712h3.214a.613.613,0,0,1,0,1.226h-3.13a.613.613,0,1,0,0,1.225h3.54a1.843,1.843,0,0,0,1.345-.585l2.7-2.9a.613.613,0,0,1,.939.784Z" transform="translate(0 -226.306)"/><path class="a" d="M186.483,4.194a2.441,2.441,0,0,0,.678-1.69A2.484,2.484,0,0,0,184.71.013,2.525,2.525,0,0,0,182.218,2.5a2.406,2.406,0,0,0,.7,1.694,3.738,3.738,0,0,0-1.926,3.248v.613a.613.613,0,0,0,.613.613h6.168a.613.613,0,0,0,.613-.613V7.448A3.735,3.735,0,0,0,186.483,4.194ZM184.71,1.239A1.263,1.263,0,0,1,185.936,2.5,1.227,1.227,0,0,1,184.71,3.73,1.263,1.263,0,0,1,183.444,2.5,1.3,1.3,0,0,1,184.71,1.239Zm-2.492,6.209a2.525,2.525,0,0,1,2.492-2.492,2.474,2.474,0,0,1,2.451,2.492Z" transform="translate(-173.599 0)"/></g></svg>