<svg xmlns="http://www.w3.org/2000/svg" width="15.4" height="15.4" viewBox="0 0 15.4 15.4"><defs><style>.a{fill:#0d004c;stroke:#0d004c;stroke-width:0.4px;}</style></defs><g transform="translate(0.2 0.2)"><path class="a" d="M115.183,110.933a4.25,4.25,0,1,0,4.25,4.25A4.25,4.25,0,0,0,115.183,110.933Zm0,8a3.75,3.75,0,1,1,3.75-3.75A3.75,3.75,0,0,1,115.183,118.933Z" transform="translate(-107.683 -107.683)"/><path class="a" d="M175.278,204.837l-2.823,2.823-1.323-1.323a.25.25,0,0,0-.354.354l1.5,1.5a.25.25,0,0,0,.354,0l3-3a.25.25,0,1,0-.354-.354Z" transform="translate(-165.705 -198.764)"/><path class="a" d="M14.818,6.758,13.36,6.211c-.039-.176-.086-.352-.141-.525l.989-1.2a.25.25,0,0,0,.034-.264c-.067-.144-.147-.3-.247-.469S13.8,3.43,13.712,3.3a.25.25,0,0,0-.245-.1l-1.538.255c-.122-.133-.25-.261-.383-.383L11.8,1.533a.25.25,0,0,0-.1-.245C11.569,1.2,11.422,1.1,11.25,1s-.326-.18-.469-.247a.25.25,0,0,0-.264.034l-1.2.989c-.173-.055-.349-.1-.525-.141L8.242.182A.25.25,0,0,0,8.03.021C7.872.007,7.7,0,7.5,0s-.372.007-.53.021a.25.25,0,0,0-.212.161L6.211,1.64c-.176.039-.352.086-.525.141L4.483.792A.25.25,0,0,0,4.219.758c-.143.067-.3.147-.469.247s-.319.192-.449.283a.25.25,0,0,0-.1.245l.255,1.538c-.133.122-.261.25-.383.383L1.533,3.2a.25.25,0,0,0-.245.1C1.2,3.43,1.107,3.573,1,3.75s-.18.325-.247.469a.25.25,0,0,0,.034.264l.989,1.2c-.055.173-.1.349-.141.525L.182,6.758a.25.25,0,0,0-.161.212C.007,7.129,0,7.3,0,7.5s.007.371.021.53a.25.25,0,0,0,.161.212l1.458.547c.039.176.086.352.141.525l-.989,1.2a.25.25,0,0,0-.034.264c.067.144.148.3.247.469s.192.319.283.448a.25.25,0,0,0,.245.1l1.538-.255c.122.133.25.261.383.383L3.2,13.467a.25.25,0,0,0,.1.245c.129.091.276.184.448.283s.326.18.469.247a.25.25,0,0,0,.264-.034l1.2-.989c.173.055.349.1.525.141l.547,1.458a.25.25,0,0,0,.212.161c.158.014.331.021.53.021s.372-.007.53-.021a.25.25,0,0,0,.212-.161l.547-1.458c.176-.039.352-.086.525-.141l1.2.989a.25.25,0,0,0,.264.034c.143-.067.3-.147.469-.247s.319-.192.449-.283a.25.25,0,0,0,.1-.245l-.255-1.538c.133-.122.261-.25.383-.383l1.538.255a.25.25,0,0,0,.245-.1c.091-.129.181-.271.283-.449s.179-.325.247-.469a.25.25,0,0,0-.034-.264l-.989-1.2c.055-.173.1-.349.141-.525l1.458-.547a.25.25,0,0,0,.161-.212C14.993,7.871,15,7.7,15,7.5s-.007-.371-.021-.53A.25.25,0,0,0,14.818,6.758ZM14.492,7.83l-1.437.539a.25.25,0,0,0-.157.186,5.492,5.492,0,0,1-.2.73.25.25,0,0,0,.043.24l.975,1.185c-.046.09-.1.186-.158.289s-.118.2-.172.282l-1.516-.252a.249.249,0,0,0-.23.082,5.521,5.521,0,0,1-.533.533.25.25,0,0,0-.082.229l.251,1.516c-.085.055-.178.112-.282.172s-.2.112-.29.158l-1.186-.975a.249.249,0,0,0-.24-.043,5.5,5.5,0,0,1-.73.2.25.25,0,0,0-.187.158L7.83,14.492c-.2.011-.457.011-.66,0l-.539-1.437a.249.249,0,0,0-.187-.158,5.5,5.5,0,0,1-.73-.2.249.249,0,0,0-.24.043L4.29,13.72c-.09-.046-.186-.1-.29-.158s-.2-.117-.281-.172l.251-1.516a.25.25,0,0,0-.082-.229,5.521,5.521,0,0,1-.533-.533.249.249,0,0,0-.23-.082l-1.516.252C1.555,11.2,1.5,11.106,1.438,11s-.112-.2-.158-.29l.975-1.185a.25.25,0,0,0,.043-.24,5.5,5.5,0,0,1-.2-.73.25.25,0,0,0-.157-.186L.508,7.83C.5,7.73.5,7.622.5,7.5s0-.23.008-.33l1.437-.539A.25.25,0,0,0,2.1,6.445a5.5,5.5,0,0,1,.2-.73.25.25,0,0,0-.043-.24L1.28,4.29c.046-.09.1-.186.158-.289s.118-.2.172-.282l1.516.252a.25.25,0,0,0,.23-.082,5.521,5.521,0,0,1,.533-.533.25.25,0,0,0,.082-.229L3.719,1.61C3.8,1.555,3.9,1.5,4,1.438s.2-.112.29-.158l1.186.975a.25.25,0,0,0,.24.043,5.5,5.5,0,0,1,.73-.2.25.25,0,0,0,.187-.158L7.17.508c.2-.011.457-.011.66,0l.539,1.437a.25.25,0,0,0,.187.158,5.5,5.5,0,0,1,.73.2.25.25,0,0,0,.24-.043L10.71,1.28c.09.046.186.1.29.158s.2.117.281.172L11.03,3.125a.25.25,0,0,0,.082.229,5.524,5.524,0,0,1,.533.533.25.25,0,0,0,.229.082l1.516-.252c.054.083.111.176.172.282s.112.2.158.29l-.975,1.185a.25.25,0,0,0-.043.24,5.5,5.5,0,0,1,.2.73.25.25,0,0,0,.157.186l1.437.539c.005.1.008.208.008.33S14.5,7.73,14.492,7.83Z" transform="translate(0 0)"/></g></svg>