<svg xmlns="http://www.w3.org/2000/svg" width="30.958" height="39" viewBox="0 0 30.958 39"><defs><style>.a,.b{fill:#fff;}.b{font-size:19px;font-family:SegoeUI, Segoe UI;}</style></defs><g transform="translate(-1335.742 -538)"><g transform="translate(1318.302 545.502)"><g transform="translate(23.745)"><path class="a" d="M138.868,14.358c-3.76,0-6.819-3.32-6.819-7.4a6.821,6.821,0,1,1,13.638,0C145.687,11.038,142.628,14.358,138.868,14.358Zm0-12.3a4.675,4.675,0,0,0-4.763,4.9c0,2.948,2.137,5.346,4.763,5.346s4.763-2.4,4.763-5.346A4.727,4.727,0,0,0,138.868,2.056Z" transform="translate(-132.049)"/></g><g transform="translate(32.731 15.831)"><g transform="translate(0)"><path class="a" d="M345.521,353.045h-.92a1.351,1.351,0,0,1-1.349-1.349v-.311a5.936,5.936,0,0,1-.919-.381l-.22.22a1.349,1.349,0,0,1-1.908,0l-.65-.65a1.349,1.349,0,0,1,0-1.908l.22-.22a5.909,5.909,0,0,1-.381-.919h-.311a1.351,1.351,0,0,1-1.349-1.349v-.92a1.35,1.35,0,0,1,1.349-1.349h.311a5.909,5.909,0,0,1,.381-.919l-.221-.22a1.349,1.349,0,0,1,0-1.908l.65-.65a1.349,1.349,0,0,1,1.908,0l.22.22a5.929,5.929,0,0,1,.919-.381v-.311a1.35,1.35,0,0,1,1.349-1.349h.92a1.351,1.351,0,0,1,1.349,1.349v.311a5.931,5.931,0,0,1,.919.381l.22-.22a1.349,1.349,0,0,1,1.908,0l.65.65a1.349,1.349,0,0,1,0,1.908l-.22.22a5.891,5.891,0,0,1,.381.919h.311a1.35,1.35,0,0,1,1.349,1.349v.92a1.351,1.351,0,0,1-1.349,1.349h-.311a5.891,5.891,0,0,1-.381.919l.221.22a1.349,1.349,0,0,1,0,1.908l-.65.65a1.349,1.349,0,0,1-1.908,0l-.22-.22a5.949,5.949,0,0,1-.919.381v.311a1.35,1.35,0,0,1-1.349,1.349Zm-3.044-2.943a5.068,5.068,0,0,0,1.312.544.429.429,0,0,1,.322.416v.634a.491.491,0,0,0,.49.49h.92a.491.491,0,0,0,.49-.49v-.634a.429.429,0,0,1,.322-.416,5.069,5.069,0,0,0,1.312-.544.429.429,0,0,1,.522.066l.449.449a.49.49,0,0,0,.693,0l.651-.651a.49.49,0,0,0,0-.693l-.449-.449a.43.43,0,0,1-.066-.522,5.059,5.059,0,0,0,.544-1.312.429.429,0,0,1,.416-.322h.634a.491.491,0,0,0,.49-.491v-.92a.491.491,0,0,0-.49-.49H350.4a.429.429,0,0,1-.416-.322,5.057,5.057,0,0,0-.544-1.312.429.429,0,0,1,.066-.522l.449-.449a.49.49,0,0,0,0-.693l-.65-.65a.49.49,0,0,0-.693,0l-.449.449a.429.429,0,0,1-.522.066,5.059,5.059,0,0,0-1.312-.545.429.429,0,0,1-.322-.416v-.634a.491.491,0,0,0-.49-.49h-.92a.491.491,0,0,0-.49.49v.634a.43.43,0,0,1-.322.416,5.068,5.068,0,0,0-1.312.544.429.429,0,0,1-.522-.066l-.449-.449a.49.49,0,0,0-.693,0l-.65.651a.49.49,0,0,0,0,.693l.449.449a.429.429,0,0,1,.066.522,5.06,5.06,0,0,0-.544,1.312.429.429,0,0,1-.416.322h-.634a.491.491,0,0,0-.49.49v.92a.491.491,0,0,0,.49.49h.634a.43.43,0,0,1,.416.322,5.061,5.061,0,0,0,.544,1.312.43.43,0,0,1-.066.522l-.449.449a.49.49,0,0,0,0,.693l.65.65a.49.49,0,0,0,.693,0l.449-.449a.431.431,0,0,1,.522-.066Zm0,0" transform="translate(-337.228 -337.885)"/><path class="a" d="M340.027,348.059h-.92a1.858,1.858,0,0,1-1.855-1.808q-.156-.06-.309-.128a1.839,1.839,0,0,1-1.276.51h0a1.844,1.844,0,0,1-1.314-.544l-.65-.649a1.856,1.856,0,0,1-.033-2.59q-.068-.153-.128-.309a1.858,1.858,0,0,1-1.808-1.855v-.92a1.858,1.858,0,0,1,1.808-1.855c.04-.1.083-.207.128-.309a1.856,1.856,0,0,1,.034-2.591l.65-.65a1.855,1.855,0,0,1,2.59-.033q.153-.068.309-.128a1.858,1.858,0,0,1,1.855-1.808h.92a1.858,1.858,0,0,1,1.855,1.808q.156.06.309.128a1.84,1.84,0,0,1,1.276-.51h0a1.845,1.845,0,0,1,1.314.544l.65.65a1.855,1.855,0,0,1,.033,2.59c.045.1.088.205.128.309a1.858,1.858,0,0,1,1.808,1.855v.92a1.858,1.858,0,0,1-1.808,1.855q-.06.156-.128.309a1.856,1.856,0,0,1-.033,2.591l-.65.65a1.843,1.843,0,0,1-1.313.543h0a1.84,1.84,0,0,1-1.277-.51q-.153.068-.309.128A1.858,1.858,0,0,1,340.027,348.059Zm-.9-1.872h.888v-.618a.936.936,0,0,1,.7-.906,4.562,4.562,0,0,0,1.181-.49.935.935,0,0,1,1.138.143l.438.438.628-.628-.438-.438a.935.935,0,0,1-.144-1.138,4.554,4.554,0,0,0,.49-1.181.935.935,0,0,1,.906-.7h.618v-.888h-.618a.935.935,0,0,1-.906-.7,4.561,4.561,0,0,0-.49-1.18.935.935,0,0,1,.144-1.138l.437-.438-.628-.628-.438.438a.934.934,0,0,1-1.138.144,4.556,4.556,0,0,0-1.18-.49.935.935,0,0,1-.7-.906v-.618h-.888v.618a.936.936,0,0,1-.7.906,4.56,4.56,0,0,0-1.181.49.936.936,0,0,1-1.138-.143l-.438-.438-.628.628.438.438a.936.936,0,0,1,.144,1.138,4.557,4.557,0,0,0-.49,1.181.936.936,0,0,1-.906.7h-.618v.887h.618a.936.936,0,0,1,.906.7,4.56,4.56,0,0,0,.49,1.181.936.936,0,0,1-.143,1.138l-.438.438.628.628.438-.438a.937.937,0,0,1,1.138-.144,4.559,4.559,0,0,0,1.18.49.936.936,0,0,1,.7.906Zm-3.447-1.421Zm-.651-.651" transform="translate(-331.734 -332.392)"/></g><g transform="translate(4.139 4.138)"><path class="a" d="M389.953,393.8a3.188,3.188,0,1,1,3.188-3.188,3.192,3.192,0,0,1-3.188,3.188Zm0-5.518a2.33,2.33,0,1,0,2.33,2.33,2.332,2.332,0,0,0-2.33-2.33Zm0,0" transform="translate(-386.258 -386.916)"/><path class="a" d="M384.46,388.812a3.695,3.695,0,1,1,3.695-3.7A3.7,3.7,0,0,1,384.46,388.812Zm0-5.518a1.823,1.823,0,1,0,1.823,1.823A1.825,1.825,0,0,0,384.46,383.294Z" transform="translate(-380.765 -381.422)"/></g></g><g transform="translate(17.44 15.866)"><path class="a" d="M35.24,298.635H19.533c.4-5.436,4.11-8.19,11.031-8.19a15.807,15.807,0,0,1,6.228,1.071,7.009,7.009,0,0,1,1.832-1.374,16.586,16.586,0,0,0-8.06-1.753c-8.463,0-13.124,4-13.124,11.274a1.028,1.028,0,0,0,1.028,1.028h17.9A6.973,6.973,0,0,1,35.24,298.635Z" transform="translate(-17.44 -288.389)"/></g></g><text class="b" transform="translate(1357 559)"><tspan x="0" y="0">!</tspan></text></g></svg>