<svg xmlns="http://www.w3.org/2000/svg" width="62.995" height="65.116" viewBox="0 0 62.995 65.116"><g transform="translate(-50.688 -44.03)"><path d="M171.538,368.128a7.7,7.7,0,1,0,7.7,7.7,7.7,7.7,0,0,0-7.7-7.7Z" transform="translate(-95.793 -274.377)" fill="#4fb25d"/><path d="M317.97,368.128a7.7,7.7,0,1,0,7.7,7.7,7.7,7.7,0,0,0-7.7-7.7Z" transform="translate(-219.76 -274.377)" fill="#4fb25d"/><path d="M111.327,85.9H71.189L70.4,81.341h32.99a2.356,2.356,0,0,0,2.2-1.492l7.855-19.794a2.356,2.356,0,0,0-2.2-3.22H66.319l-1.885-10.84a2.356,2.356,0,0,0-2.356-1.964H53.044a2.356,2.356,0,1,0,0,4.713h7.069l6.755,39.9a2.356,2.356,0,0,0,2.356,1.964h42.1a2.356,2.356,0,0,0,0-4.713Z" transform="translate(0 0)" fill="#4fb25d"/></g></svg>