<svg xmlns="http://www.w3.org/2000/svg" xmlns:xlink="http://www.w3.org/1999/xlink" width="41.5" height="35.703" viewBox="0 0 41.5 35.703"><defs><style>.a{fill:#fff;}.b{clip-path:url(#a);}</style><clipPath id="a"><rect class="a" width="41.5" height="35.703"/></clipPath></defs><g transform="translate(-703 -732)"><g transform="translate(703 732)"><g class="b"><path class="a" d="M742.886,734.033l-1.109-.953a4.472,4.472,0,0,0-6.236.4l-18.564,20.584-5.6-4.826a4.472,4.472,0,0,0-6.237.39l-.981,1.086a4.472,4.472,0,0,0,.322,6.319l10.272,9.406a4.473,4.473,0,0,0,6.452-.343l22.161-25.749a4.473,4.473,0,0,0-.475-6.31Zm0,0" transform="translate(-703 -732)"/></g></g></g></svg>