<svg xmlns="http://www.w3.org/2000/svg" xmlns:xlink="http://www.w3.org/1999/xlink" width="42" height="45.073" viewBox="0 0 42 45.073"><defs><style>.a{fill:#fff;}.b{clip-path:url(#a);}</style><clipPath id="a"><rect class="a" width="42" height="45.073" transform="translate(0 0)"/></clipPath></defs><g transform="translate(-719 -707.667)"><g transform="translate(719 707.667)"><g class="b" transform="translate(0 0)"><path class="a" d="M761.36,949.12a6.294,6.294,0,0,0-8.9,0l-3.934,3.934H746.66a6.425,6.425,0,0,0,1.265-3.836,1.311,1.311,0,0,0-1.311-1.311h-4.354a10.29,10.29,0,0,1-4.235-1.329,13.544,13.544,0,0,0-4.92-1.58,13.875,13.875,0,0,0-4.78.521,4.239,4.239,0,0,0-3.028,3.669h-4.236a1.311,1.311,0,0,0-1.311,1.311v10.285a1.311,1.311,0,0,0,1.311,1.311h26.773a5.77,5.77,0,0,0,4.106-1.7l9.42-9.421a1.31,1.31,0,0,0,0-1.854Zm-38.988,2.69h2.908v7.663h-2.908Zm27.714,6.73a3.164,3.164,0,0,1-2.252.932H727.9v-9.912a1.6,1.6,0,0,1,1.151-1.522,11.247,11.247,0,0,1,3.879-.424,11.415,11.415,0,0,1,3.974,1.335,12.4,12.4,0,0,0,5.356,1.58h2.811a3.843,3.843,0,0,1-3.339,2.515c-.063-.009-6.837-.016-6.837-.016a1.318,1.318,0,1,0-.017,2.636l14.19.012a1.309,1.309,0,0,0,.927-.384l4.318-4.318a3.679,3.679,0,0,1,4.1-.757Zm0,0" transform="translate(-719.663 -917.022)"/></g></g><path class="a" d="M820.752,734.729a13.365,13.365,0,1,0-13.365-13.365,13.38,13.38,0,0,0,13.365,13.365Zm0-24.169a10.8,10.8,0,1,1-10.805,10.8,10.817,10.817,0,0,1,10.805-10.8Zm0,0" transform="translate(-77.336 0)"/><path class="a" d="M878.772,781.928a1.645,1.645,0,1,0-1.646-1.645,1.664,1.664,0,0,0,1.646,1.645Zm0,0" transform="translate(-139.667 -62.384)"/><path class="a" d="M943.735,846.162a1.646,1.646,0,1,0,1.646-1.646,1.674,1.674,0,0,0-1.646,1.646Zm0,0" transform="translate(-198.501 -120.574)"/><path class="a" d="M890.577,770.592a1.279,1.279,0,0,0,1.676-.685l5.609-13.364a1.28,1.28,0,0,0-2.36-.991l-5.609,13.364a1.28,1.28,0,0,0,.685,1.675Zm0,0" transform="translate(-150.779 -41.45)"/></g></svg>