<svg xmlns="http://www.w3.org/2000/svg" xmlns:xlink="http://www.w3.org/1999/xlink" width="64" height="62" viewBox="0 0 64 62"><defs><clipPath id="b"><rect width="64" height="62"/></clipPath></defs><g id="a" clip-path="url(#b)"><text transform="translate(-118 -119)" fill="#707070" font-size="20" font-family="SegoeUI, Segoe UI"><tspan x="0" y="22">Pest Control</tspan></text><g transform="translate(0.186 0.635)"><g transform="translate(1.814 0.738)"><path d="M35.192,29.572a4.99,4.99,0,0,1,5.781.908L43,28.457A14.264,14.264,0,0,0,61.8,12.7a1.3,1.3,0,0,0-2.2-.712L56.595,15A6.271,6.271,0,0,1,47.727,6.13l3.007-3.005a1.3,1.3,0,0,0-.712-2.2A14.261,14.261,0,0,0,34.352,19.949L29.96,24.341Zm0,0" transform="translate(-1.987 -0.738)" fill="#4fb25d"/><path d="M27.016,37.727l-5.21-5.21L3.591,50.733a6.065,6.065,0,1,0,8.577,8.577l15.7-15.7a4.993,4.993,0,0,1-.855-5.88Zm0,0" transform="translate(-1.814 -0.933)" fill="#4fb25d"/><path d="M38.634,32.69a1.906,1.906,0,0,0-2.7,0l-1.087,1.087L15.478,14.407l.905-.905a1.909,1.909,0,0,0-.217-2.885L8.262,4.8a1.907,1.907,0,0,0-2.48.188L2.427,8.339a1.908,1.908,0,0,0-.188,2.481l5.821,7.9a1.908,1.908,0,0,0,2.885.218l.905-.905L31.22,37.4l-1.163,1.164a1.906,1.906,0,0,0,0,2.7l17.868,17.87A6.065,6.065,0,0,0,56.5,50.56Zm0,0" transform="translate(-1.814 -0.76)" fill="#0d004c"/></g></g></g></svg>