<svg xmlns="http://www.w3.org/2000/svg" xmlns:xlink="http://www.w3.org/1999/xlink" width="64" height="62" viewBox="0 0 64 62"><defs><clipPath id="b"><rect width="64" height="62"/></clipPath></defs><g id="a" clip-path="url(#b)"><path d="M30.857,2.7V.054A19.952,19.952,0,0,0,26.783.7L27.99,3.04A21.915,21.915,0,0,1,30.857,2.7Zm0,0" fill="#4fb25d"/><path d="M25.708,3.571,24.594,1.413A19.5,19.5,0,0,0,21.022,3.3l1.526,1.479a21.124,21.124,0,0,1,3.16-1.207Zm0,0" fill="#4fb25d"/><path d="M20.459,5.885,19.211,4.677c-.321.272-.648.539-.953.835a18.747,18.747,0,0,0-1.386,1.517l.859.831a20.931,20.931,0,0,1,2.728-1.975Zm0,0" fill="#4fb25d"/><path d="M37.228.688a20.131,20.131,0,0,0-4.085-.65V2.7a22.084,22.084,0,0,1,2.868.338Zm0,0" fill="#4fb25d"/><path d="M49.077,9.869c-.192-.344-.392-.682-.6-1.012l-.566.549c.311.323.62.651.915,1,.088-.179.163-.363.256-.54Zm0,0" fill="#4fb25d"/><path d="M42.987,3.29a19.372,19.372,0,0,0-3.579-1.872L38.293,3.571a21.113,21.113,0,0,1,3.159,1.207Zm0,0" fill="#4fb25d"/><path d="M47.14,7.016A18.964,18.964,0,0,0,44.8,4.661L43.541,5.885A21,21,0,0,1,46.269,7.86Zm0,0" fill="#4fb25d"/><path d="M54.857,0V5.536a1.086,1.086,0,0,1-.335.782A17.406,17.406,0,0,0,49.143,18.9v3.243a1.133,1.133,0,0,1-.022.217l-1.772,8.582a1.934,1.934,0,0,0,1.223,2.186,2.066,2.066,0,0,0,1.642-.064,1.961,1.961,0,0,0,1.041-1.23c0-.016.017-.027.022-.042l-.008,0L54.911,20.7l2.178.671L53.455,32.437l-.924,3.283a1.159,1.159,0,0,1-.1.239s-3.656,6.491-5.643,9.987a1.763,1.763,0,0,0,.143,1.89,1.9,1.9,0,0,0,1.805.732,1.754,1.754,0,0,0,1.172-.761l8.479-12.859,5.436-15.794A3.22,3.22,0,0,0,64,18.1V0Zm0,0" fill="#0d004c"/><path d="M16.094,9.406l-.569-.55c-.212.331-.409.672-.6,1.015.092.177.167.361.255.539.293-.351.6-.679.915-1Zm0,0" fill="#4fb25d"/><path d="M41.143,53.632a18.741,18.741,0,0,1-18.286,0v2.655A22.019,22.019,0,0,1,22.1,62H41.9a22.019,22.019,0,0,1-.757-5.713Zm0,0" fill="#4fb25d"/><path d="M11.568,35.959a1.11,1.11,0,0,1-.1-.239l-.924-3.283L6.911,21.372,9.089,20.7l3.642,11.091-.009,0c.006.015.018.026.023.042a1.957,1.957,0,0,0,1.041,1.229,2.064,2.064,0,0,0,1.641.065,1.935,1.935,0,0,0,1.224-2.187L14.879,22.36a1.133,1.133,0,0,1-.022-.217V18.9A17.408,17.408,0,0,0,9.478,6.318a1.086,1.086,0,0,1-.335-.782V0H0V18.1a3.21,3.21,0,0,0,.176,1.05l5.434,15.8,8.481,12.858a1.746,1.746,0,0,0,1.171.761,1.808,1.808,0,0,0,1.373-.314,1.743,1.743,0,0,0,.575-2.307c-1.987-3.5-5.642-9.987-5.642-9.987Zm0,0" fill="#0d004c"/><path d="M50.14,35.406a4.383,4.383,0,0,1-3.865-1.15,4.071,4.071,0,0,1-1.166-3.749l.755-3.66c-.647.039-1.3.064-1.95.064a31.861,31.861,0,0,1-5.253-.433l.393-2.182a29.6,29.6,0,0,0,7.277.285l.526-2.548v-1.91A12.632,12.632,0,0,0,38,19.242l-.563-2.147a15.21,15.21,0,0,1,9.483.6,19.384,19.384,0,0,1,.92-4.865,18.27,18.27,0,0,0-1.855-2.195c-.158-.163-.3-.3-.452-.438A19.559,19.559,0,0,0,36.39,5.376a19.832,19.832,0,0,0-8.767,0,19.541,19.541,0,0,0-9.133,4.808c-.115.1-.172.155-.231.212s-.139.136-.2.2a18.681,18.681,0,0,0-1.894,2.238,19.368,19.368,0,0,1,.92,4.864,15.2,15.2,0,0,1,9.483-.6L26,19.242a12.633,12.633,0,0,0-8.861.882v1.909l.5,2.443A29.9,29.9,0,0,0,26.09,24.3l.393,2.18a31.976,31.976,0,0,1-5.316.441c-1.021,0-2.038-.066-3.049-.162l.774,3.751a4.073,4.073,0,0,1-1.166,3.749A4.38,4.38,0,0,1,13.861,35.4c.9,1.594,3.7,6.568,5.353,9.472a3.825,3.825,0,0,1,.311,3.1c.2.229.387.462.6.685a15.829,15.829,0,0,0,5.394,3.8,16.51,16.51,0,0,0,12.969,0,15.835,15.835,0,0,0,5.384-3.79c.218-.23.411-.466.612-.7a3.79,3.79,0,0,1,.305-3.093C46.438,41.973,49.241,37,50.14,35.406ZM35.694,42.049a5.436,5.436,0,0,1-5.1,0,1.02,1.02,0,0,1-.354-1.428,1.092,1.092,0,0,1,1.473-.343,3.249,3.249,0,0,0,2.867,0,1.091,1.091,0,0,1,1.473.345A1.019,1.019,0,0,1,35.694,42.049Z" fill="#4fb25d"/></g></svg>