<svg xmlns="http://www.w3.org/2000/svg" width="22.389" height="20" viewBox="0 0 22.389 20"><defs><style>.a{fill:#fff;}</style></defs><path class="a" d="M35.217,60.73a5.587,5.587,0,0,0-6.953-8.722A5.589,5.589,0,0,0,21.3,60.73a7.941,7.941,0,0,0-4.238,7.056v2.4a.8.8,0,0,0,.8.8h20.79a.8.8,0,0,0,.8-.8v-2.4A7.941,7.941,0,0,0,35.217,60.73Zm-3.758-8.136A3.992,3.992,0,0,1,33.1,60.227c-.062.028-.123.054-.186.08a3.914,3.914,0,0,1-.609.19c-.04.009-.08.014-.121.022a4,4,0,0,1-.7.071c-.106,0-.214-.008-.32-.018a.608.608,0,0,1-.12-.008,4.041,4.041,0,0,1-1.307-.385c-.015-.007-.033-.006-.048-.013-.08-.038-.16-.072-.231-.115.006-.008.01-.017.017-.025a5.61,5.61,0,0,0,.856-1.56l.025-.067a5.647,5.647,0,0,0,.212-.823c.007-.041.013-.08.019-.124a5.1,5.1,0,0,0,0-1.718c-.006-.042-.012-.08-.019-.124a5.647,5.647,0,0,0-.212-.823l-.025-.067a5.61,5.61,0,0,0-.856-1.56c-.006-.008-.01-.017-.017-.025A3.972,3.972,0,0,1,31.458,52.594Zm-10.395,4A3.988,3.988,0,0,1,27.811,53.7c.046.045.092.09.137.136a4.108,4.108,0,0,1,.379.46c.035.05.067.1.1.153a3.939,3.939,0,0,1,.293.54c.02.046.035.092.053.138a3.9,3.9,0,0,1,.2.64c.006.024.007.048.012.073a3.764,3.764,0,0,1,0,1.5c0,.025-.006.049-.012.073a3.9,3.9,0,0,1-.2.64c-.018.046-.033.092-.053.138a3.934,3.934,0,0,1-.293.539c-.033.051-.065.1-.1.154a4.108,4.108,0,0,1-.379.46c-.045.046-.09.091-.137.136a3.991,3.991,0,0,1-1.1.745c-.065.03-.13.057-.2.08a4.02,4.02,0,0,1-.593.184c-.05.011-.1.018-.154.026a3.962,3.962,0,0,1-.658.066h-.088a3.961,3.961,0,0,1-.658-.066c-.051-.009-.1-.015-.154-.026a4.02,4.02,0,0,1-.593-.184l-.2-.08A4,4,0,0,1,21.064,56.592Zm-2.4,11.194a6.357,6.357,0,0,1,4.252-6.026,5.58,5.58,0,0,0,4.289,0,6.425,6.425,0,0,1,.779.345c.166.086.32.183.48.281.1.065.21.128.309.2.154.11.3.229.443.351.092.08.183.16.269.24.132.125.256.257.375.392.086.1.169.2.248.3.1.134.2.272.3.413.08.12.151.245.221.369s.154.275.221.418.126.3.184.453c.05.133.1.265.146.4.056.186.1.377.134.569.024.114.055.225.073.34a6.614,6.614,0,0,1,.073.956v1.6H18.665Zm19.19,1.6h-4.8v-1.6c0-.25-.014-.5-.037-.744-.006-.072-.018-.143-.026-.215-.022-.177-.046-.352-.08-.525q-.022-.111-.046-.223-.058-.267-.134-.529c-.017-.058-.032-.116-.05-.173a7.924,7.924,0,0,0-.963-2.021l-.031-.046q-.206-.306-.441-.592l-.006-.007a7.248,7.248,0,0,0-.516-.573h.033a5.659,5.659,0,0,0,.68.048h.044a5.656,5.656,0,0,0,.63-.041c.066-.008.13-.02.2-.03q.255-.039.5-.1c.047-.012.1-.023.143-.037a5.444,5.444,0,0,0,.64-.218,6.357,6.357,0,0,1,4.255,6.027Z" transform="translate(-17.066 -50.985)"/></svg>