<svg xmlns="http://www.w3.org/2000/svg" width="29" height="29" viewBox="0 0 29 29"><defs><style>.a{fill:#fff;}</style></defs><g transform="translate(-183 -58)"><path class="a" d="M337.581,118.305a.425.425,0,0,0,.425-.425v-.6a.425.425,0,0,0-.85,0v.6a.425.425,0,0,0,.425.425Zm0,0" transform="translate(-142.514 -54.41)"/><path class="a" d="M399.649,145.919l.424-.425a.425.425,0,0,0-.6-.6l-.425.425a.425.425,0,0,0,.6.6Zm0,0" transform="translate(-199.617 -80.216)"/><path class="a" d="M269.893,275.074a.425.425,0,0,0,.6,0l.425-.425a.425.425,0,0,0-.6-.6l-.424.424a.425.425,0,0,0,0,.6Zm0,0" transform="translate(-80.216 -199.617)"/><path class="a" d="M242.88,213.006a.425.425,0,0,0,0-.85h-.6a.425.425,0,0,0,0,.85Zm0,0" transform="translate(-54.41 -142.514)"/><path class="a" d="M270.318,145.919a.425.425,0,0,0,.6-.6l-.425-.425a.425.425,0,1,0-.6.6Zm0,0" transform="translate(-80.216 -80.216)"/><g transform="translate(183 58)"><path class="a" d="M337.156,165.683a.425.425,0,0,0,.748.276l1.535-1.8a.425.425,0,0,0-.646-.552l-.787.922v-2.869a.425.425,0,0,0-.85,0v4.02Zm0,0" transform="translate(-325.514 -153.441)"/><path class="a" d="M211.619,78.078l-1.105-.97a.266.266,0,0,1-.085-.142l-.379-1.66a.269.269,0,0,1,.015-.165l.575-1.353a1.117,1.117,0,0,0-.155-1.134l-1.107-1.388a1.116,1.116,0,0,0-1.071-.4l-1.217.218c.028-.338.044-.677.044-1.015a12.017,12.017,0,0,0-3.311-8.3.425.425,0,1,0-.617.585,11.169,11.169,0,0,1,3.077,7.718c0,.273-.011.547-.031.82l-1.091-.525a.264.264,0,0,1-.119-.114L204.367,69a9.362,9.362,0,1,0-18.157,4.108.425.425,0,1,0,.8-.276,8.513,8.513,0,1,1,16.4-4.461c-.072,0,.215,0-1.823,0a1.116,1.116,0,0,0-.983.586l-.7,1.293a.267.267,0,0,1-.119.114l-1.534.739a.268.268,0,0,1-.164.022l-1.447-.26a1.117,1.117,0,0,0-1.072.4l-1.106,1.387a1.116,1.116,0,0,0-.155,1.134l.575,1.353a.265.265,0,0,1,.015.165l-.379,1.66a.266.266,0,0,1-.085.142l-1.105.97a1.133,1.133,0,0,0-.225.271,8.508,8.508,0,0,1-5.411-4.031.425.425,0,0,0-.735.425,9.356,9.356,0,0,0,6.025,4.45l.389,1.7a1.117,1.117,0,0,0,.1.273,11.217,11.217,0,0,1,1.6-22.321,11.1,11.1,0,0,1,6.929,2.4.425.425,0,1,0,.525-.668A11.945,11.945,0,0,0,195.067,58a12.067,12.067,0,1,0,0,24.134c.169,0,.343,0,.518-.012a.27.27,0,0,1,.129.088l1.062,1.331a.267.267,0,0,1,.058.155l.069,1.469a1.117,1.117,0,0,0,.631.955l1.6.77a1.117,1.117,0,0,0,1.14-.1l1.191-.862a.266.266,0,0,1,.157-.051h1.7a.267.267,0,0,1,.157.051l1.191.862a1.116,1.116,0,0,0,1.14.1l1.6-.77a1.116,1.116,0,0,0,.632-.955l.069-1.468a.27.27,0,0,1,.058-.155l.139-.174a.425.425,0,1,0-.664-.53l-.139.174a1.113,1.113,0,0,0-.243.644l-.069,1.469a.268.268,0,0,1-.152.229l-1.6.77a.268.268,0,0,1-.273-.024l-1.191-.862a1.111,1.111,0,0,0-.655-.212h-1.7a1.11,1.11,0,0,0-.655.212l-1.191.862a.268.268,0,0,1-.273.024l-1.6-.77a.268.268,0,0,1-.151-.229l-.069-1.469a1.111,1.111,0,0,0-.242-.645l-1.062-1.331c-.357-.448-.73-.371-1.991-.774a.269.269,0,0,1-.19-.2l-.395-1.73a.268.268,0,0,1,.084-.261l1.105-.969a1.11,1.11,0,0,0,.353-.591l.379-1.66a1.11,1.11,0,0,0-.061-.686l-.575-1.353a.267.267,0,0,1,.037-.272l1.106-1.387a.269.269,0,0,1,.257-.1l1.447.26a1.109,1.109,0,0,0,.682-.093l1.534-.739a1.113,1.113,0,0,0,.5-.476l.7-1.293a.268.268,0,0,1,.236-.14h1.774a.268.268,0,0,1,.236.14l.7,1.293a1.11,1.11,0,0,0,.5.476c1.4.617,1.638.936,2.216.832l1.447-.26a.267.267,0,0,1,.257.1l1.107,1.387a.268.268,0,0,1,.037.272l-.575,1.353a1.112,1.112,0,0,0-.061.686l.379,1.66a1.11,1.11,0,0,0,.353.591l1.105.97a.268.268,0,0,1,.085.261l-.395,1.73a.269.269,0,0,1-.19.2l-1.417.394a1.118,1.118,0,0,0-.295.131.425.425,0,1,0,.452.719.269.269,0,0,1,.071-.032l1.417-.394a1.116,1.116,0,0,0,.79-.828l.395-1.73a1.115,1.115,0,0,0-.353-1.089Zm0,0" transform="translate(-183 -58)"/></g><path class="a" d="M392.5,277.219a3.95,3.95,0,1,0-3.95-3.95h0a3.954,3.954,0,0,0,3.95,3.95Zm-.425-7.02v.955h-.5a.425.425,0,1,0,0,.85h.923a.425.425,0,0,0,.425-.425V270.2a3.105,3.105,0,0,1,2.645,2.645h-1.8v-.308a.425.425,0,0,0-.85,0v.733a.425.425,0,0,0,.425.425h2.221a3.105,3.105,0,0,1-2.645,2.645v-.83h.311a.425.425,0,0,0,0-.85H392.5a.425.425,0,0,0-.425.425v1.254a3.106,3.106,0,0,1-2.645-2.645H390.8a.425.425,0,0,0,0-.85h-1.364a3.106,3.106,0,0,1,2.645-2.646Zm0,0" transform="translate(-190.031 -195.361)"/></g></svg>