<svg xmlns="http://www.w3.org/2000/svg" width="64" height="71.928" viewBox="0 0 64 71.928"><defs><style>.a{fill:#0d004c;}.b{fill:#4fb25d;}.c{fill:#fff;opacity:0.35;}</style></defs><g transform="translate(-746 -727)"><path class="a" d="M771.663,905.678l-.228-5.3-8.165-8.166-16.7,16.7a1.943,1.943,0,0,0,2.193,3.138c1.569-.748,3.715-1.089,4.992,1.6l7.675,16.163,14.7-14.709Zm-6.4,13.209a2.12,2.12,0,0,1-3.416-.59l-5.021-10.571a2.121,2.121,0,1,1,3.832-1.819l5.02,10.571a2.121,2.121,0,0,1-.416,2.409Zm0,0" transform="translate(0 -130.879)"/><path class="b" d="M877,727l-36.662,36.661,5.833,5.833.228,5.3,2.6,5.466,5.924-7.546.269-3.058,3-1.12.251-3.211,3.06-.986h0l.339-3.137,2.966-1.073.011-.012.106-3.175,3.2-1.035.028-.034.082-3.237,3.237-.992.01-.012.025-3.153,3.238-1,.046-.059.016-3.225,3.244-.927.055-.071.421-3.34,2.839-.812.072-.093.094-3.211,3.179-.959.035-.045Zm0,0" transform="translate(-74.736)"/><path class="c" d="M889.5,825.874a1.091,1.091,0,0,1-.771-1.862L902.6,810.137a1.091,1.091,0,1,1,1.546,1.54l-13.875,13.878a1.086,1.086,0,0,1-.771.319Zm0,0" transform="translate(-112.818 -65.608)"/><path class="c" d="M975.669,785.708a1.091,1.091,0,0,1-.771-1.863l1.8-1.8a1.091,1.091,0,1,1,1.543,1.542l-1.8,1.8a1.085,1.085,0,0,1-.771.32Zm0,0" transform="translate(-181.081 -43.345)"/></g></svg>