<svg xmlns="http://www.w3.org/2000/svg" width="62.903" height="65" viewBox="0 0 62.903 65"><defs><style>.a{fill:#0d004c;}.b{fill:#466089;}.c{fill:#edeff1;}.d{fill:#4fb25d;}</style></defs><g transform="translate(-660 -652)"><path class="a" d="M950.994,841.242h.1l.123-.616A3.154,3.154,0,0,1,954.3,838.1h3.608a3.153,3.153,0,0,1,3.084,2.528l.124.617h.1a6.263,6.263,0,0,1,2.116.374l-.28-1.4a5.256,5.256,0,0,0-5.14-4.213H954.3a5.255,5.255,0,0,0-5.14,4.214l-.28,1.4a6.252,6.252,0,0,1,2.115-.374Zm0,0" transform="translate(-251.022 -159.887)"/><path class="a" d="M927.258,911.645H900V895.919l2.307-14.61A6.291,6.291,0,0,1,908.52,876h10.218a6.291,6.291,0,0,1,6.214,5.309l2.307,14.61Zm0,0" transform="translate(-208.548 -194.645)"/><path class="a" d="M872.194,1043.726h-2.1a2.1,2.1,0,0,1-2.1-2.1V1030.1a2.1,2.1,0,0,1,2.1-2.1h2.1Zm0,0" transform="translate(-180.742 -326.726)"/><path class="a" d="M1108,1043.726h2.1a2.1,2.1,0,0,0,2.1-2.1V1030.1a2.1,2.1,0,0,0-2.1-2.1H1108Zm0,0" transform="translate(-389.29 -326.726)"/><path class="b" d="M980.387,920.194A4.194,4.194,0,1,1,976.194,916a4.194,4.194,0,0,1,4.194,4.194Zm0,0" transform="translate(-271.113 -229.403)"/><path class="c" d="M986.29,927.145A3.145,3.145,0,1,1,983.145,924a3.145,3.145,0,0,1,3.145,3.145Zm0,0" transform="translate(-278.065 -236.355)"/><path class="d" d="M760.694,692.887H746.016a8.4,8.4,0,0,1-8.387-8.387V660.911a4.718,4.718,0,1,0-9.435,0v9.96a2.1,2.1,0,1,1-4.194,0v-9.96a8.911,8.911,0,1,1,17.823,0V684.5a4.2,4.2,0,0,0,4.194,4.194h14.677a2.1,2.1,0,0,1,0,4.194Zm0,0" transform="translate(-55.613)"/><path class="a" d="M661.271,1054.6l6.068-2.6h6.29l6.068,2.6a2.1,2.1,0,0,1,1.271,1.927v1.762a1.049,1.049,0,0,1-1.048,1.048H661.048A1.049,1.049,0,0,1,660,1058.29v-1.762a2.1,2.1,0,0,1,1.271-1.927Zm0,0" transform="translate(0 -347.581)"/><path class="b" d="M717.048,1020h4.194a1.049,1.049,0,0,1,1.048,1.048v3.145H716v-3.145a1.049,1.049,0,0,1,1.048-1.048Zm0,0" transform="translate(-48.661 -319.774)"/><rect class="d" width="5" height="35" transform="translate(668 665)"/><rect class="b" width="5" height="1" transform="translate(668 699)"/><path class="a" d="M668,1108h18.871v1.048a1.049,1.049,0,0,1-1.048,1.048H669.048a1.049,1.049,0,0,1-1.048-1.048Zm0,0" transform="translate(-6.952 -396.242)"/><rect class="a" width="1" height="2" transform="translate(676 715)"/><rect class="a" width="1" height="2" transform="translate(673 715)"/><rect class="a" width="1" height="2" transform="translate(670 715)"/><rect class="a" width="1" height="2" transform="translate(667 715)"/><rect class="a" width="1" height="2" transform="translate(664 715)"/><path class="d" d="M981.435,1032.718a4.718,4.718,0,1,1-4.718-4.718,4.718,4.718,0,0,1,4.718,4.718Zm0,0" transform="translate(-271.113 -326.726)"/><path class="c" d="M993.242,1046.621a2.621,2.621,0,1,1-2.621-2.621,2.621,2.621,0,0,1,2.621,2.621Zm0,0" transform="translate(-285.016 -340.629)"/></g></svg>