<svg xmlns="http://www.w3.org/2000/svg" xmlns:xlink="http://www.w3.org/1999/xlink" width="64" height="62" viewBox="0 0 64 62"><defs><clipPath id="b"><rect width="64" height="62"/></clipPath></defs><g id="a" clip-path="url(#b)"><text transform="translate(-118 -119)" fill="#707070" font-size="20" font-family="SegoeUI, Segoe UI"><tspan x="0" y="22">Pest Control</tspan></text><g transform="translate(2 0)"><path d="M55.121,2.25c-4.768-2.885-11.333-3-17.137-.317-5.372,2.49-9.248,7.977-11.534,12.1a2.268,2.268,0,0,0-2.609,1.3,2.484,2.484,0,0,0,.57,2.855c-.212.489-.335.812-.385.94L12.912,44.732A2.249,2.249,0,0,0,9.9,45.842a2.468,2.468,0,0,0,1.036,3.227l.073.04-2.5,5.764H2.3a2.408,2.408,0,0,0,0,4.811H13.769a2.408,2.408,0,0,0,0-4.811H13.55l1.592-3.666a2.238,2.238,0,0,0,.632.106,2.292,2.292,0,0,0,2.062-1.335,2.465,2.465,0,0,0-.824-3.084L28.534,20.357a2.237,2.237,0,0,0,.958.222,2.281,2.281,0,0,0,2.068-1.362,2.459,2.459,0,0,0-.941-3.126c1.966-3.472,5.108-7.849,9.219-9.753,4.42-2.05,9.518-2.02,12.986.083a9.107,9.107,0,0,1,4.358,7.3c.643,6.186.1,10.334-1.608,12.326a3.9,3.9,0,0,1-.505.493v5.387a8.97,8.97,0,0,0,3.922-2.666c2.649-3.1,3.551-8.349,2.756-16.057A14.089,14.089,0,0,0,55.121,2.25Zm0,0" fill="#0d004c"/><path d="M48.583,42.84a9.5,9.5,0,0,1,4.19.981V24.792c0-1.334.118-1.2-1.148-1.2H47.132c-1.272,0-14.055,1.106-17.432,18.613L27.532,56.676c0,1.328,1.025,3.008,2.3,3.008h10.89a10.7,10.7,0,0,1-2.1-6.392A10.228,10.228,0,0,1,48.583,42.84Zm0,0" fill="#4fb25d"/><path d="M53.922,47.522a7.952,7.952,0,0,0-1.149-.962,7.363,7.363,0,0,0-4.19-1.316,7.875,7.875,0,0,0-7.669,8.048,8.156,8.156,0,0,0,3.032,6.392,7.55,7.55,0,0,0,2.128,1.205,7.192,7.192,0,0,0,5.019,0,7.666,7.666,0,0,0,2.23-1.282,7.874,7.874,0,0,0,1.617-1.815,8.329,8.329,0,0,0,.129-8.782,7.91,7.91,0,0,0-1.147-1.488Zm-5.339,1.735a4.041,4.041,0,1,1-3.849,4.035,3.945,3.945,0,0,1,3.849-4.035Zm0,0" fill="#4fb25d"/></g></g></svg>