<svg xmlns="http://www.w3.org/2000/svg" xmlns:xlink="http://www.w3.org/1999/xlink" width="64" height="62" viewBox="0 0 64 62"><defs><clipPath id="a"><rect width="64.036" height="63.018" transform="translate(-0.036 -1.018)" fill="none"/></clipPath><clipPath id="d"><rect width="64" height="62"/></clipPath></defs><g id="c" clip-path="url(#d)"><text transform="translate(-118 -119)" fill="#707070" font-size="20" font-family="SegoeUI, Segoe UI"><tspan x="0" y="22">Pest Control</tspan></text><g transform="translate(0.036 -1.982)"><path d="M39.955,16.729a1.841,1.841,0,0,0,.665-.864,1.763,1.763,0,0,0-.066-1.386L39.7,12.694a1.809,1.809,0,0,0-1.045-.937,1.893,1.893,0,0,0-.861-.1l1.913,4.46q.129.3.249.608Zm0,0" fill="#4fb25d"/><path d="M17.464,9.63a10.061,10.061,0,0,0-.687,2.017h0l-.25,2.3h0A9.893,9.893,0,0,0,17.7,18.575l.466.874,2.82,5.336a16.545,16.545,0,0,0,.891,1.492l.011.019a18.168,18.168,0,0,0,5.683,5.511l.976-.095a1.093,1.093,0,0,1,.115-.006h9.081a6.729,6.729,0,0,0,.708-.754,9.651,9.651,0,0,0,1.926-4.216,15.591,15.591,0,0,0,.235-1.839v-.014A17.687,17.687,0,0,0,39.825,18a15.124,15.124,0,0,0-.609-1.642l-2.374-5.54-.4-.916a10.164,10.164,0,0,0-2.876-3.839h0L31.613,4.78h0a10.138,10.138,0,0,0-2.148-.8h0l-2.273-.3h0a10.22,10.22,0,0,0-3.652.536h0l-2.064.955h0A10.207,10.207,0,0,0,18.633,7.7M33.695,27.655a8.876,8.876,0,0,1-3.5.819l-.187,0-.051-2.244.187-.005a6.59,6.59,0,0,0,3.991-1.486l1.459,1.723a8.793,8.793,0,0,1-1.894,1.188Zm3.612-10.38a10.07,10.07,0,0,0-4.24,1.963L31.638,17.49a12.369,12.369,0,0,1,5.212-2.412Zm-.465-5.157-.687,2.14a3.976,3.976,0,0,0-4.933,2.3l-2.1-.884a6.278,6.278,0,0,1,7.716-3.553Zm-7.018,5.243L32.8,23.585l-2.064.955-2.973-6.223Zm-6.963,6.447-1.429-1.749a12.376,12.376,0,0,1,5.213-2.411l.457,2.2a10.057,10.057,0,0,0-4.241,1.963Zm4.023-7.1-.646,2.152a3.973,3.973,0,0,0-4.944,2.272l-2.113-.844a6.278,6.278,0,0,1,7.7-3.58Zm0,0" fill="#4fb25d"/><path d="M18.182,23.441l.438.918a1.827,1.827,0,0,0,1.05.944,1.847,1.847,0,0,0,1.1.043c-.116-.2-.221-.4-.314-.568l-.177-.336-2.1-3.972a1.827,1.827,0,0,0-.415,2.119Zm0,0" fill="#4fb25d"/><path d="M44.832,37.457,30.078,39.533,14.524,45.17h9.384l6.662-2.229a1.16,1.16,0,0,1,.468-.055L57.21,45.17h2.344a4.489,4.489,0,0,0,.467-8.948,4.025,4.025,0,0,0-.479-.028h-.177L44.832,37.458Zm0,0" fill="#4fb25d"/><path d="M31.4,45.17l-.325-.028-.085.028Zm0,0"/><g clip-path="url(#a)"><path d="M41.2,31.707a1.15,1.15,0,0,1,.684.224l4.28,3.159,11.971-1.041-2.7-4.274A8.131,8.131,0,0,0,48.574,26.1H42.78c-.046.361-.1.712-.166,1.05a11.878,11.878,0,0,1-1.907,4.56Zm0,0" fill="#4fb25d"/><path d="M4.314,45.169H7.932L29.4,37.385a1.152,1.152,0,0,1,.233-.058l13.236-1.86-2.054-1.516h-12.1l-19.372,1.9A29.768,29.768,0,0,0,3,37.192,4.079,4.079,0,0,0,.367,42.37a4.156,4.156,0,0,0,3.947,2.8Zm0,0" fill="#4fb25d"/><path d="M7.16,59.976c-.067,0-.135,0-.2-.006a1.048,1.048,0,0,0-.305,1.264,1.45,1.45,0,0,0,1.805.672A2.535,2.535,0,0,0,9.8,60.748q.017-.042.036-.081a2.214,2.214,0,0,0,.16-1.52,5.2,5.2,0,0,1-2.835.829Zm0,0" fill="#0d004c"/></g><path d="M24.151,32.144a20.5,20.5,0,0,1-3.619-3.82,4.15,4.15,0,0,1-5.471-1.964l-.11-.23a8,8,0,0,0-6.175,3.777L6.282,34.034q1.409-.267,2.834-.41Zm0,0" fill="#4fb25d"/><path d="M11.015,52.1a1.408,1.408,0,0,0-1.849.373,2.238,2.238,0,0,0-.306,1.723,2.546,2.546,0,0,0,.9,1.4,4.657,4.657,0,0,1,1.875-2.274,1.171,1.171,0,0,0-.617-1.227Zm0,0" fill="#0d004c"/><g clip-path="url(#a)"><path d="M14.884,57.134a1.235,1.235,0,0,0,1.2-.874,1.07,1.07,0,0,0-.144-.824,1.371,1.371,0,0,0-.869-.6A2.753,2.753,0,0,0,12,56.143a5.985,5.985,0,0,1,2.885.991Zm0,0" fill="#0d004c"/><path d="M12.154,58.4a4.417,4.417,0,0,1-.089,2.823,1.385,1.385,0,0,0,1.35.764,1.313,1.313,0,0,0,.927-.439,1.079,1.079,0,0,0,.263-.814,2.57,2.57,0,0,0-.9-1.66,2.842,2.842,0,0,0-.737-.459,2.9,2.9,0,0,0-.815-.215Zm0,0" fill="#0d004c"/></g><path d="M61.72,47.414H2.435A2.266,2.266,0,0,0,.154,49.658v4.488A2.265,2.265,0,0,0,2.435,56.39h.019a3.254,3.254,0,0,1,1.2-2.885c.027-.025.054-.05.083-.072a3.7,3.7,0,0,1,2.9-.74,4.543,4.543,0,0,1,.605-1.425,3.711,3.711,0,0,1,4.923-1.109,3.487,3.487,0,0,1,1.712,2.39,5.332,5.332,0,0,1,1.713.1,3.639,3.639,0,0,1,2.293,1.6,3.274,3.274,0,0,1,.492,2.135H61.72A2.264,2.264,0,0,0,64,54.146V49.658a2.265,2.265,0,0,0-2.28-2.244Zm0,0" fill="#0d004c"/><path d="M8.447,57.44a4.824,4.824,0,0,1-1.7-2.36,1.4,1.4,0,0,0-1.537.065c-.024.022-.048.044-.073.064a1.069,1.069,0,0,0-.418.753,1.032,1.032,0,0,0,.269.77l.024.026.114.123a2.657,2.657,0,0,0,1.669.829,2.962,2.962,0,0,0,1.653-.27Zm0,0" fill="#0d004c"/></g></g></svg>