<svg xmlns="http://www.w3.org/2000/svg" width="47.124" height="65" viewBox="0 0 47.124 65"><g transform="translate(-986.876 -871)"><g transform="translate(231.784 114.667)"><path d="M856.878,794.083c5.931,0,10.738-5.839,10.738-13.042S866.037,768,856.878,768s-10.737,5.839-10.737,13.042,4.807,13.042,10.737,13.042Zm0,0" transform="translate(-81.506)" fill="#50a547"/><path d="M839.443,920.451c-.2-12.547-1.837-16.122-14.377-18.385,0,0-1.766,2.249-5.88,2.249s-5.88-2.249-5.88-2.249c-12.4,2.238-14.141,5.761-14.37,17.978-.018,1-.027,1.05-.03.933,0,.218,0,.619,0,1.319,0,0,2.985,6.019,20.279,6.019s20.279-6.019,20.279-6.019v-.975a8.027,8.027,0,0,1-.023-.87Zm0,0" transform="translate(-43.814 -106.982)" fill="#50a547"/></g><rect width="23" height="20" rx="5" transform="translate(1011 871)" fill="#080e3a"/><text transform="translate(1019 885)" fill="#fff" font-size="11" font-family="Montserrat-Regular, Montserrat"><tspan x="0" y="0">8</tspan></text></g></svg>