<svg xmlns="http://www.w3.org/2000/svg" width="62.744" height="53.333" viewBox="0 0 62.744 53.333"><defs><style>.a{fill:#50a547;}.b{fill:#080e3a;}</style></defs><g transform="translate(-744 -768)"><path class="a" d="M856.878,794.083c5.931,0,10.738-5.839,10.738-13.042S866.037,768,856.878,768s-10.737,5.839-10.737,13.042,4.807,13.042,10.737,13.042Zm0,0" transform="translate(-81.506)"/><path class="a" d="M839.443,920.451c-.2-12.547-1.837-16.122-14.377-18.385,0,0-1.766,2.249-5.88,2.249s-5.88-2.249-5.88-2.249c-12.4,2.238-14.141,5.761-14.37,17.978-.018,1-.027,1.05-.03.933,0,.218,0,.619,0,1.319,0,0,2.985,6.019,20.279,6.019s20.279-6.019,20.279-6.019v-.975a8.027,8.027,0,0,1-.023-.87Zm0,0" transform="translate(-43.814 -106.982)"/><path class="b" d="M957.334,801.907c4.816,0,8.721-4.742,8.721-10.592s-1.282-10.593-8.721-10.593a12.453,12.453,0,0,0-3.255.386c1.718,3.168,1.954,7.015,1.954,10.085a17.888,17.888,0,0,1-2.678,9.546,7.471,7.471,0,0,0,3.979,1.168Zm0,0" transform="translate(-167.061 -10.152)"/><path class="b" d="M987.907,904.542c-.162-10.191-1.492-13.095-11.677-14.933a6.106,6.106,0,0,1-4.775,1.827c-.138,0-.272,0-.4-.01a13.4,13.4,0,0,1,5.477,4.241c2.459,3.371,3.025,7.9,3.141,14.555,6.852-1.354,8.257-4.182,8.257-4.182,0-.368,0-.621,0-.794a5.675,5.675,0,0,1-.019-.7Zm0,0" transform="translate(-181.182 -97.042)"/><path class="b" d="M791.084,801.907a7.471,7.471,0,0,0,3.979-1.168,17.878,17.878,0,0,1-2.678-9.545c0-3.071.235-6.918,1.953-10.086a12.443,12.443,0,0,0-3.254-.386c-7.439,0-8.721,4.743-8.721,10.593s3.9,10.592,8.721,10.592Zm0,0" transform="translate(-30.613 -10.152)"/><path class="b" d="M760.875,891.426c-.132.006-.266.01-.4.01a6.106,6.106,0,0,1-4.776-1.827c-10.184,1.838-11.515,4.741-11.676,14.932a6.536,6.536,0,0,1-.019.7c0,.173,0,.425,0,.794,0,0,1.4,2.828,8.256,4.182.117-6.654.682-11.184,3.142-14.556a13.4,13.4,0,0,1,5.477-4.24Zm0,0" transform="translate(0 -97.042)"/></g></svg>