<svg xmlns="http://www.w3.org/2000/svg" width="102.113" height="76.584" viewBox="0 0 102.113 76.584"><defs><style>.a{fill:#0d1139;}.b{fill:#4eb25c;}</style></defs><g transform="translate(-708 -756)"><path class="a" d="M753.167,759.39h-9.06c.008-.2.014-.244.014-.337A3.046,3.046,0,0,0,741.13,756h-6.54a3.046,3.046,0,0,0-2.992,3.054c0,.093.006.137.013.337h-9.059a15.24,15.24,0,0,0-13.846,8.775h58.307a15.24,15.24,0,0,0-13.847-8.775Zm0,0" transform="translate(-0.519 0)"/><path class="b" d="M980.667,825H951.75v16.915a6.854,6.854,0,0,1,1.741-.162h27.177a8.376,8.376,0,1,0,0-16.753Zm0,0" transform="translate(-178.932 -50.652)"/><path class="b" d="M708,824.25v53.868a9.032,9.032,0,0,0,7.77,4.567h43.143a9.035,9.035,0,0,0,7.922-4.839v-53.6Zm0,0" transform="translate(0 -50.101)"/></g></svg>