<svg xmlns="http://www.w3.org/2000/svg" width="72.201" height="76.764" viewBox="0 0 72.201 76.764"><defs><style>.a{fill:#4eb25c;}.b{fill:#080e3a;}</style></defs><g transform="translate(-719 -708)"><path class="a" d="M788.952,708a2.248,2.248,0,0,0-2.249,2.249V713.3H728.468a9.468,9.468,0,1,0,0,18.937h4.146V771.27h44.973V732.234h4.83a2.249,2.249,0,0,0,0-4.5h-4.83v-2.177a2.249,2.249,0,0,0-2.249-2.249H734.863a2.249,2.249,0,0,0-2.249,2.249v2.177h-4.146a4.971,4.971,0,0,1,0-9.942H786.7v3.048a2.249,2.249,0,1,0,4.5,0V710.249A2.248,2.248,0,0,0,788.952,708Zm0,0" transform="translate(0)"/><path class="b" d="M832.075,1047H787.1v6.747a2.248,2.248,0,0,0,2.249,2.249h40.475a2.248,2.248,0,0,0,2.249-2.249Zm0,0" transform="translate(-54.488 -271.232)"/></g></svg>