<svg xmlns="http://www.w3.org/2000/svg" xmlns:xlink="http://www.w3.org/1999/xlink" width="39" height="77" viewBox="0 0 39 77"><defs><style>.a{fill:none;}.b{fill:#0d1138;}.c{fill:#50a445;}.d{clip-path:url(#a);}</style><clipPath id="a"><rect class="a" width="39" height="77" transform="translate(-0.238 -0.236)"/></clipPath></defs><g transform="translate(-803.762 -707.349)"><path class="b" d="M887.285,887.652v1.366h8.2v-1.366a1.367,1.367,0,0,0-1.367-1.367h-5.466a1.367,1.367,0,0,0-1.367,1.367Zm0,0" transform="translate(-66.687 -142.676)"/><path class="c" d="M892.4,708a4.1,4.1,0,0,0-3.848,2.733h7.7A4.1,4.1,0,0,0,892.4,708Zm0,0" transform="translate(-67.697 0.077)"/><rect class="c" width="2.733" height="2.733" transform="translate(823.325 738.142)"/><g transform="translate(804 707.585)"><g class="d" transform="translate(0 0)"><path class="b" d="M869.085,913.715H858.767A8.825,8.825,0,0,0,853,921.574c0,5.069,5.057,15.374,10.933,15.374s10.933-10.3,10.933-15.374a8.84,8.84,0,0,0-5.781-7.859Zm-7.79,17.507a1.378,1.378,0,0,1-1.913-.3,18.972,18.972,0,0,1-3.649-8.938,1.368,1.368,0,1,1,2.733-.136,16.32,16.32,0,0,0,3.115,7.461,1.367,1.367,0,0,1-.287,1.914Zm0,0" transform="translate(-843.234 -872.225)"/><path class="b" d="M878.27,1073.451l-5.056-2.021h-7.67l-5.056,2.021a1.078,1.078,0,0,0,.4,2.079h16.976a1.078,1.078,0,0,0,.4-2.079Zm0,0" transform="translate(-848.688 -998.508)"/><path class="b" d="M896.878,1042.03a8.114,8.114,0,0,1-2.732-.49v3.224h5.466v-3.224a8.116,8.116,0,0,1-2.733.49Zm0,0" transform="translate(-876.18 -974.574)"/><path class="c" d="M810.45,764.375V757.3h31.443a.684.684,0,0,0,.547-1.084A51.074,51.074,0,0,1,834.092,736a.684.684,0,0,0-.674-.568H817.533a.684.684,0,0,0-.672.565,50.785,50.785,0,0,1-8.228,20.015c-.2.313-.418.62-.642.923a1.379,1.379,0,0,0-.273.821v6.621a4.1,4.1,0,0,0-2.507,5.22,4,4,0,0,0,2.548,2.516,4.1,4.1,0,0,0,2.692-7.736ZM830.184,738.2a1.367,1.367,0,0,1,1.641,1.011,55.924,55.924,0,0,0,5.015,13.338,1.369,1.369,0,1,1-2.419,1.284,59.216,59.216,0,0,1-5.261-13.994,1.366,1.366,0,0,1,1.024-1.64Zm-6.068,4.059a1.367,1.367,0,1,1,2.733,0V753.2a1.367,1.367,0,1,1-2.733,0Zm-10,10.291a55.973,55.973,0,0,0,5.016-13.338,1.369,1.369,0,0,1,2.665.629,59.242,59.242,0,0,1-5.262,13.994,1.369,1.369,0,1,1-2.419-1.284Zm-5.029,17.041a1.366,1.366,0,1,1,1.367-1.366,1.366,1.366,0,0,1-1.367,1.366Zm0,0" transform="translate(-804.784 -729.472)"/></g></g></g></svg>