<svg xmlns="http://www.w3.org/2000/svg" width="37.216" height="75.764" viewBox="0 0 37.216 75.764"><defs><style>.a{fill:#18114a;}.b{fill:#080e3a;}.c{fill:#4eb25c;}</style></defs><g transform="translate(-103.131 -21.67)"><path class="a" d="M181.668,443.149h7.115a2.811,2.811,0,0,0,2.808-2.808v-6.29H178.86v6.29A2.811,2.811,0,0,0,181.668,443.149Z" transform="translate(-63.487 -345.715)"/><path class="b" d="M158.985,187.961l4.665-40.313-30.413,25.326,1.734,14.987a3.644,3.644,0,0,0,3.638,3.638h16.739a3.644,3.644,0,0,0,3.638-3.638Z" transform="translate(-25.239 -105.612)"/><path class="c" d="M140.347,25.308a3.637,3.637,0,0,0-3.638-3.638H106.768a3.637,3.637,0,0,0-3.637,3.638l4.215,36.42L139.2,35.2Z" transform="translate(0 0)"/></g></svg>