<svg xmlns="http://www.w3.org/2000/svg" width="16" height="16" viewBox="0 0 16 16"><defs><style>.a{fill:none;}.b{fill:#878787;fill-rule:evenodd;}</style></defs><rect class="a" width="16" height="16"/><path class="b" d="M5.832,7.808A1.832,1.832,0,0,1,7.5,9.76a1.832,1.832,0,0,1-1.666,1.952A1.832,1.832,0,0,1,4.166,9.76,1.832,1.832,0,0,1,5.832,7.808Zm0-5.856A1.832,1.832,0,0,0,4.166,3.9H7.5A1.832,1.832,0,0,0,5.832,1.952ZM10,15.616H1.666A1.832,1.832,0,0,1,0,13.664V5.856A1.832,1.832,0,0,1,1.666,3.9H2.5A3.663,3.663,0,0,1,5.832,0,3.663,3.663,0,0,1,9.165,3.9H10a1.832,1.832,0,0,1,1.666,1.952v7.808A1.832,1.832,0,0,1,10,15.616Z" transform="translate(1.976)"/></svg>