<svg xmlns="http://www.w3.org/2000/svg" width="9.429" height="22" viewBox="0 0 9.429 22"><defs><style>.a{fill:#fff;}</style></defs><path class="a" d="M332,237.571v2.3a4.714,4.714,0,0,0,1.555,9.164,1.571,1.571,0,1,1-1.571,1.571,1.571,1.571,0,1,0-3.143,0,4.721,4.721,0,0,0,3.16,4.449v1.376a1.571,1.571,0,0,0,3.143,0v-1.387a4.714,4.714,0,0,0-1.588-9.152,1.571,1.571,0,1,1,1.571-1.571,1.571,1.571,0,1,0,3.143,0,4.721,4.721,0,0,0-3.126-4.438v-2.308a1.571,1.571,0,1,0-3.143,0Zm0,0" transform="translate(-328.84 -236)"/></svg>