<svg xmlns="http://www.w3.org/2000/svg" xmlns:xlink="http://www.w3.org/1999/xlink" width="64" height="71" viewBox="0 0 64 71"><defs><clipPath id="a"><rect width="48.216" height="71.211" transform="translate(0.786 0.201)" fill="none"/></clipPath><clipPath id="c"><rect width="64" height="71"/></clipPath></defs><g id="b" clip-path="url(#c)"><g transform="translate(1.214 -0.201)"><g clip-path="url(#a)"><path d="M28.608,49.844a9.577,9.577,0,0,1-7.62-.04.3.3,0,0,1,.176-.564,18.311,18.311,0,0,0,7.274.039.3.3,0,0,1,.17.565ZM46.783,12.022a15.954,15.954,0,0,0-9.657-7.046,1.188,1.188,0,0,0-.245-1.982C28.869-.861,17.983-1.274,11.195,5.27c-5.5,5.3-5.947,12.843-5.882,15.854,0,6.647,0,6.211,0,6.365a.666.666,0,0,0,1.33-.044V21.753a10.694,10.694,0,0,1,10.681-10.68h15.13a10.693,10.693,0,0,1,10.68,10.68v5.692a.666.666,0,0,0,1.331.044c.006-.156,0,.4,0-8.308a7.754,7.754,0,0,1,2.243-5.474,1.2,1.2,0,0,0,.334-.691,1.268,1.268,0,0,0-.268-.994Zm2.141,51.193v7.01a1.186,1.186,0,0,1-1.187,1.187H2.05A1.186,1.186,0,0,1,.863,70.225v-7.01A12.243,12.243,0,0,1,13.111,50.967a4.935,4.935,0,0,0,2.713-.8,1.182,1.182,0,0,1,1.392.086,11.984,11.984,0,0,0,15.3-.035,1.182,1.182,0,0,1,1.4-.083,4.923,4.923,0,0,0,2.76.836A12.242,12.242,0,0,1,48.924,63.215ZM38.1,66.517a1.188,1.188,0,0,0-1.187-1.187h-3.56a1.187,1.187,0,1,0,0,2.374h3.56A1.188,1.188,0,0,0,38.1,66.517Zm-5.637-53.07H17.329a8.317,8.317,0,0,0-8.308,8.306v9.808A15.873,15.873,0,0,0,40.766,31.5V21.753a8.316,8.316,0,0,0-8.307-8.306Zm0,0" fill="#4fb25d"/></g><path d="M48.543,34.535a3.013,3.013,0,0,0,1.137-.269l2.955,5.612-.257.391s-7.77,9.284-3.718,13.189c.476.08,5.091-10.1,5.091-10.1l.353-.695.236.449s4.793,10.1,5.267,10.013c3.982-3.972-3.947-13.119-3.947-13.119l-.122-.183,2.736-5.412a3.2,3.2,0,0,0,.631.051c1.947-.06,3.473-2.035,3.4-4.4s-1.715-4.248-3.663-4.186-3.479,2.033-3.408,4.4a4.65,4.65,0,0,0,1.493,3.362l-2.65,4.041L51.02,33.181a4.808,4.808,0,0,0,.93-3.047c-.071-2.366-1.718-4.245-3.669-4.188s-3.476,2.038-3.4,4.4,1.715,4.242,3.666,4.185Zm7.83-4.3c-.053-1.742.979-3.193,2.3-3.228s2.442,1.343,2.5,3.084-.981,3.189-2.307,3.231-2.441-1.344-2.494-3.087Zm-2.535,9.5a.8.8,0,1,1-.778.824.8.8,0,0,1,.778-.824ZM48.315,27.084c1.325-.041,2.445,1.341,2.5,3.084s-.983,3.19-2.3,3.228-2.446-1.341-2.5-3.083.983-3.19,2.3-3.229Zm0,0" fill="#0d004c"/></g></g></svg>