<svg xmlns="http://www.w3.org/2000/svg" xmlns:xlink="http://www.w3.org/1999/xlink" width="16" height="16.243" viewBox="0 0 16 16.243"><defs><style>.a{fill:#0d004c;stroke:#0d004c;stroke-width:0.5px;}.b{clip-path:url(#a);}</style><clipPath id="a"><rect class="a" width="16" height="16" transform="translate(0 0)"/></clipPath></defs><g transform="translate(-183 -57.73)"><path class="a" d="M367.328,271.133a.328.328,0,0,1-.328-.328v-.493a.328.328,0,1,1,.656,0v.493a.328.328,0,0,1-.328.328Zm0,0" transform="translate(-176.451 -203.307)"/><path class="a" d="M344.477,189.938h-1.149a.328.328,0,1,1,0-.656h1.149a.492.492,0,1,0,0-.985h-.328a1.149,1.149,0,1,1,0-2.3H345.3a.328.328,0,0,1,0,.656h-1.149a.492.492,0,0,0,0,.985h.328a1.149,1.149,0,0,1,0,2.3Zm0,0" transform="translate(-153.436 -122.769)"/><path class="a" d="M367.328,171.149a.328.328,0,0,1-.328-.328v-.493a.328.328,0,1,1,.656,0v.493a.328.328,0,0,1-.328.328Zm0,0" transform="translate(-176.451 -107.425)"/><path class="a" d="M282.938,145.877a3.938,3.938,0,1,1,3.938-3.938,3.942,3.942,0,0,1-3.938,3.938Zm0-7.22a3.282,3.282,0,1,0,3.282,3.282,3.286,3.286,0,0,0-3.282-3.282Zm0,0" transform="translate(-92.062 -76.738)"/><path class="a" d="M367.328,233.549a.328.328,0,1,1,0-.656,6.571,6.571,0,0,0,6.564-6.564.328.328,0,0,1,.656,0,7.229,7.229,0,0,1-7.22,7.22Zm0,0" transform="translate(-176.451 -161.128)"/><path class="a" d="M274.406,63.284a.33.33,0,0,1-.31-.221,6.557,6.557,0,0,0-6.194-4.407,6.4,6.4,0,0,0-4.048,1.417.328.328,0,1,1-.411-.511A7.044,7.044,0,0,1,267.9,58a7.216,7.216,0,0,1,6.815,4.848.329.329,0,0,1-.2.418.341.341,0,0,1-.108.018Zm0,0" transform="translate(-77.024 -0.02)"/><path class="a" d="M203.923,142.932a.331.331,0,0,1-.109-.018,7.212,7.212,0,0,1-4.814-6.8,7.1,7.1,0,0,1,1.252-4.045.328.328,0,1,1,.54.372,6.454,6.454,0,0,0-1.136,3.674,6.554,6.554,0,0,0,4.376,6.182.328.328,0,0,1-.109.638Zm0,0" transform="translate(-15.344 -70.912)"/><g transform="translate(183 57.972)"><g class="b" transform="translate(0 0)"><path class="a" d="M360.636,365.292a.33.33,0,0,1-.232-.1l-1.313-1.313a.328.328,0,0,1,0-.464l1.313-1.313a.328.328,0,1,1,.464.464l-1.08,1.08,1.08,1.08a.329.329,0,0,1-.232.561Zm0,0" transform="translate(-351.775 -349.531)"/><path class="a" d="M185.741,126.228a.328.328,0,0,1-.317-.243L185,124.4l-1.585.425a.328.328,0,0,1-.169-.634l1.9-.509a.33.33,0,0,1,.4.232l.509,1.9a.328.328,0,0,1-.232.4.351.351,0,0,1-.085.011Zm0,0" transform="translate(-183.001 -120.969)"/><path class="a" d="M487.466,140.354a.325.325,0,0,1-.164-.044l-1.705-.985a.328.328,0,1,1,.328-.568l1.421.82.82-1.421a.328.328,0,1,1,.569.328l-.985,1.705a.329.329,0,0,1-.284.164Zm0,0" transform="translate(-473.025 -134.703)"/></g></g></g></svg>