<svg xmlns="http://www.w3.org/2000/svg" xmlns:xlink="http://www.w3.org/1999/xlink" width="64" height="62" viewBox="0 0 64 62"><defs><clipPath id="b"><rect width="64" height="62"/></clipPath></defs><g id="a" clip-path="url(#b)"><g transform="translate(0.563 0.792)"><path d="M28.534,15.127a7.351,7.351,0,0,0,3.418.691,7.357,7.357,0,0,0,3.418-.691,30.325,30.325,0,0,1,16.181-3.708l10.916.39L42.181,1.331a6.427,6.427,0,0,0-7.729.354l-2.5,2.081-2.506-2.08a6.424,6.424,0,0,0-7.728-.355L1.437,11.806l10.916-.387a30.325,30.325,0,0,1,16.181,3.708Zm0,0" fill="#4fb25d"/><path d="M62.467,15.4l-11.129-.412a26.762,26.762,0,0,0-14.271,3.287,10.724,10.724,0,0,1-5.115,1.119,10.722,10.722,0,0,1-5.115-1.119,26.76,26.76,0,0,0-14.271-3.287L1.437,15.41a35.438,35.438,0,0,0,11.43,10.2l.1.04a6.821,6.821,0,0,1,11.021-1.977l8.547,8.548S54.881,31.645,62.467,15.4Zm0,0" fill="#4fb25d"/><path d="M32.086,55.206l5.746,6.032H62.467v-3.3L45.914,41.379Zm0,0" fill="#0d004c"/><path d="M26.33,44.293l8.686-8.684,5.668,5.669L32,49.963Zm0,0" fill="#0d004c"/><path d="M26.9,31.645a6.821,6.821,0,0,1-4.586,4.59l3.514,3.516,4.589-4.589Zm0,0" fill="#0d004c"/><path d="M22.661,31.992a3.243,3.243,0,0,1-4.589,0l-1.238-1.238a3.245,3.245,0,0,1,4.589-4.589L22.661,27.4a3.244,3.244,0,0,1,0,4.588Zm0,0" fill="#0d004c"/></g></g></svg>