<svg xmlns="http://www.w3.org/2000/svg" width="33" height="33" viewBox="0 0 33 33"><defs><style>.a{fill:#4caf50;}.b{fill:#fafafa;}</style></defs><path class="a" d="M16.5,0H16.5A16.49,16.49,0,0,0,3.141,26.171L1.085,32.3l6.342-2.027A16.5,16.5,0,1,0,16.5,0Z" transform="translate(0)"/><path class="b" d="M126.456,132.841a4.656,4.656,0,0,1-3.238,2.329c-.862.184-1.988.33-5.779-1.242-4.849-2.009-7.972-6.936-8.215-7.256a9.424,9.424,0,0,1-1.959-4.977,5.268,5.268,0,0,1,1.687-4.016,2.4,2.4,0,0,1,1.687-.592c.2,0,.388.01.553.019.485.021.728.049,1.048.815.4.959,1.367,3.327,1.483,3.57a.982.982,0,0,1,.07.893,2.851,2.851,0,0,1-.534.757c-.243.281-.474.5-.718.8-.223.262-.474.542-.194,1.027a14.645,14.645,0,0,0,2.677,3.327,12.13,12.13,0,0,0,3.869,2.386,1.043,1.043,0,0,0,1.163-.184,19.963,19.963,0,0,0,1.289-1.708.921.921,0,0,1,1.184-.359c.446.155,2.8,1.32,3.288,1.561s.8.359.922.563A4.109,4.109,0,0,1,126.456,132.841Z" transform="translate(-100.35 -109.541)"/></svg>