<svg xmlns="http://www.w3.org/2000/svg" xmlns:xlink="http://www.w3.org/1999/xlink" width="42" height="42" viewBox="0 0 42 42"><defs><style>.a{fill:#fff;}.b{clip-path:url(#a);}</style><clipPath id="a"><rect class="a" width="42" height="42"/></clipPath></defs><g transform="translate(-644 -645)"><g transform="translate(644 645)"><g class="b" transform="translate(0 0)"><path class="a" d="M660.721,679.711h-13.2a1.205,1.205,0,0,1-.945-.455,1.289,1.289,0,0,1-.263-1.081,15.312,15.312,0,0,1,20.546-11.206,1.641,1.641,0,0,0,1.181-3.062c-.192-.074-.385-.144-.578-.211a9.926,9.926,0,1,0-12.311.014,18.645,18.645,0,0,0-12.05,13.8,4.56,4.56,0,0,0,.931,3.819,4.484,4.484,0,0,0,3.49,1.665h13.2a1.641,1.641,0,0,0,0-3.281Zm.574-30.433a6.645,6.645,0,1,1-6.644,6.645,6.652,6.652,0,0,1,6.644-6.645Zm13.781,18.867A9.926,9.926,0,1,0,685,678.07a9.937,9.937,0,0,0-9.926-9.926Zm0,16.57a6.645,6.645,0,1,1,6.645-6.645,6.652,6.652,0,0,1-6.645,6.645Zm4.02-6.645a1.641,1.641,0,0,1-1.641,1.641h-2.379a1.641,1.641,0,0,1-1.641-1.641v-3.363a1.641,1.641,0,0,1,3.281,0v1.723h.739a1.641,1.641,0,0,1,1.641,1.641Zm0,0" transform="translate(-643.084 -645.914)"/></g></g></g></svg>