<svg xmlns="http://www.w3.org/2000/svg" xmlns:xlink="http://www.w3.org/1999/xlink" width="42.587" height="44.941" viewBox="0 0 42.587 44.941"><defs><style>.a{fill:#fff;}.b{clip-path:url(#a);}</style><clipPath id="a"><rect class="a" width="20.016" height="17.22"/></clipPath></defs><g transform="translate(-643.002 -645.996)"><g transform="translate(643.002 645.996)"><g transform="translate(0 0)"><path class="a" d="M664.8,686.951H648.56a1.489,1.489,0,0,1-1.163-.552,1.552,1.552,0,0,1-.324-1.314,18.919,18.919,0,0,1,25.275-13.613,2.026,2.026,0,0,0,2.609-1.143,1.985,1.985,0,0,0-1.157-2.576q-.354-.134-.711-.256a11.987,11.987,0,0,0,4.627-9.443,12.211,12.211,0,0,0-24.421,0,11.989,11.989,0,0,0,4.649,9.461,22.782,22.782,0,0,0-14.824,16.761,5.487,5.487,0,0,0,1.145,4.639,5.543,5.543,0,0,0,4.294,2.022H664.8a1.993,1.993,0,1,0,0-3.986Zm.706-36.969a8.072,8.072,0,1,1-8.173,8.072,8.132,8.132,0,0,1,8.173-8.072Z" transform="translate(-643.002 -645.996)"/></g></g><g transform="translate(665.574 672.381)"><g transform="translate(0 0)"><g class="b" transform="translate(0)"><path class="a" d="M877.238,900.981l-.535-.46a2.157,2.157,0,0,0-3.008.192l-8.954,9.927-2.7-2.327a2.157,2.157,0,0,0-3.008.188l-.473.524a2.157,2.157,0,0,0,.155,3.048l4.954,4.537a2.157,2.157,0,0,0,3.112-.165l10.688-12.419a2.157,2.157,0,0,0-.229-3.043Zm0,0" transform="translate(-858 -900)"/></g></g></g></g></svg>