<svg xmlns="http://www.w3.org/2000/svg" width="42" height="42" viewBox="0 0 42 42"><defs><style>.a{fill:#fff;}</style></defs><g transform="translate(-708 -708)"><path class="a" d="M750,713.207H735.456V708H722.582v5.207H708v29.942h10.162a12.028,12.028,0,0,0,21.714,0H750Zm-24.955-2.744h7.947v2.745h-7.947Zm22.492,5.208v3.583H710.463v-3.583ZM730.25,747.458v-2.681h-2.463v2.681a9.588,9.588,0,0,1-8.249-8.2h2.726V736.79h-2.74a9.586,9.586,0,0,1,8.263-8.308v2.785h2.464v-2.785a9.586,9.586,0,0,1,8.262,8.308h-2.74v2.463H738.5a9.588,9.588,0,0,1-8.249,8.2Zm10.49-6.772a12.03,12.03,0,1,0-23.442,0h-6.835V721.717h2.665v2.931h2.463v-2.931h26.856v2.931h2.463v-2.931h2.627v18.969Zm0,0"/><path class="a" d="M871.645,951.066l-2.7,2.291,1.937,2.279,3.749-3.187v-6.621h-2.991Zm0,0" transform="translate(-143.819 -213.143)"/></g></svg>