<svg xmlns="http://www.w3.org/2000/svg" xmlns:xlink="http://www.w3.org/1999/xlink" width="27" height="42" viewBox="0 0 27 42"><defs><style>.a{fill:#fff;}.b{clip-path:url(#a);}</style><clipPath id="a"><rect class="a" width="27" height="42" transform="translate(-0.273 0)"/></clipPath></defs><g transform="translate(-733.727 -644)"><g transform="translate(734 644)"><g class="b"><path class="a" d="M856.282,887.214v1.775a3.643,3.643,0,0,0,1.2,7.082,1.214,1.214,0,1,1-1.214,1.214,1.214,1.214,0,0,0-2.429,0,3.648,3.648,0,0,0,2.442,3.438v1.063a1.214,1.214,0,0,0,2.429,0v-1.072a3.643,3.643,0,0,0-1.227-7.073,1.214,1.214,0,1,1,1.214-1.214,1.214,1.214,0,0,0,2.429,0,3.649,3.649,0,0,0-2.416-3.43v-1.784a1.214,1.214,0,0,0-2.429,0Zm0,0" transform="translate(-844.138 -866.407)"/><path class="a" d="M746.5,644.356l-7.286,7.286a1.214,1.214,0,0,0,.859,2.073h3.643v5.525a13.359,13.359,0,1,0,7.286,0v-5.525h3.643a1.214,1.214,0,0,0,.859-2.073l-7.286-7.286a1.214,1.214,0,0,0-1.717,0Zm11.788,27.738a10.93,10.93,0,1,1-10.93-10.93,10.942,10.942,0,0,1,10.93,10.93Zm-8.5-20.807a1.214,1.214,0,0,0-1.214,1.214v6.29c-.4-.036-.8-.056-1.214-.056s-.814.02-1.214.056V652.5a1.214,1.214,0,0,0-1.214-1.214H743l4.354-4.354,4.355,4.354Zm0,0" transform="translate(-734 -644)"/></g></g></g></svg>