<svg xmlns="http://www.w3.org/2000/svg" width="48.5" height="44.52" viewBox="0 0 48.5 44.52"><defs><style>.a{fill:#fff;}</style></defs><g transform="translate(-708 -724)"><path class="a" d="M848.453,781.349a2.7,2.7,0,0,1-2.7-2.7.663.663,0,0,0-.663-.663h-9.152a.663.663,0,0,0-.663.663,2.7,2.7,0,0,1-2.7,2.7.663.663,0,0,0-.663.663v26.621a.663.663,0,0,0,.663.663,2.7,2.7,0,0,1,2.7,2.7.663.663,0,0,0,.663.663h9.152a.663.663,0,0,0,.663-.663,2.7,2.7,0,0,1,2.7-2.7.663.663,0,0,0,.663-.663V782.012a.663.663,0,0,0-.663-.663Zm-.663,26.675a4.034,4.034,0,0,0-3.305,3.305h-7.935a4.033,4.033,0,0,0-3.305-3.305v-25.4a4.033,4.033,0,0,0,3.305-3.305h7.935a4.033,4.033,0,0,0,3.305,3.305Zm0,0" transform="translate(-108.267 -47.169)"/><path class="a" d="M865.157,890.944v-.574a2.181,2.181,0,0,0-2.179-2.179h-1.493a.663.663,0,0,0-.663.663V893.7h-.83a.854.854,0,0,1-.853-.853v-3.99a.663.663,0,0,0-1.326,0v2.09h-1.233a.663.663,0,1,0,0,1.326h1.233v.574a2.181,2.181,0,0,0,2.179,2.179h1.493a.663.663,0,0,0,.663-.663v-4.843h.83a.854.854,0,0,1,.853.853v3.99a.663.663,0,0,0,1.326,0v-2.09h1.233a.663.663,0,1,0,0-1.326Zm0,0" transform="translate(-129.236 -143.453)"/><path class="a" d="M886.014,838.779a2.022,2.022,0,1,0-2.022-2.023,2.023,2.023,0,0,0,2.022,2.023Zm0-2.718a.7.7,0,1,1-.7.7.7.7,0,0,1,.7-.7Zm0,0" transform="translate(-153.764 -96.749)"/><path class="a" d="M886.014,963.722a2.022,2.022,0,1,0,2.022,2.023,2.022,2.022,0,0,0-2.022-2.023Zm0,2.718a.7.7,0,1,1,.7-.7.7.7,0,0,1-.7.7Zm0,0" transform="translate(-153.764 -209.445)"/><path class="a" d="M755.837,724H708.663a.663.663,0,0,0-.663.662v12.872a.663.663,0,0,0,.663.663H720.62v29.66a.663.663,0,0,0,.663.663h21.934a.663.663,0,0,0,.663-.663V738.2h11.957a.663.663,0,0,0,.663-.663V724.662a.663.663,0,0,0-.663-.662Zm-35.217,9.082H715.1a1.984,1.984,0,0,1,0-3.967h5.521Zm21.934,34.11H721.946V729.115h20.607Zm6.848-38.077a1.984,1.984,0,0,1,0,3.967H743.88v-3.967Zm5.772,7.756H743.88v-2.463H749.4a3.31,3.31,0,0,0,0-6.619H715.1a3.31,3.31,0,0,0,0,6.619h5.521v2.463H709.326V725.326h45.848Zm0,0"/></g></svg>