<svg xmlns="http://www.w3.org/2000/svg" xmlns:xlink="http://www.w3.org/1999/xlink" width="42" height="42" viewBox="0 0 42 42"><defs><style>.a{fill:#fff;}.b{clip-path:url(#a);}</style><clipPath id="a"><rect class="a" width="42" height="42"/></clipPath></defs><g transform="translate(-644 -644)"><g transform="translate(644 644)"><g class="b"><path class="a" d="M685.1,668.958a19.986,19.986,0,0,1-9.917,11.366,22.78,22.78,0,0,1-18.324.884L646.3,685.861a1.641,1.641,0,0,1-2.183-2.116l3.725-9.215A18.144,18.144,0,0,1,644,663.359a18.5,18.5,0,0,1,5.424-12.987,21.608,21.608,0,0,1,13.191-6.249,1.64,1.64,0,1,1,.34,3.263c-8.936.932-15.674,7.8-15.674,15.972a15,15,0,0,0,3.7,9.825,1.64,1.64,0,0,1,.273,1.679l-2.573,6.365,7.493-3.3a1.642,1.642,0,0,1,1.306-.008,19.066,19.066,0,0,0,7.525,1.52,19.268,19.268,0,0,0,8.691-2.037,16.68,16.68,0,0,0,8.29-9.468,1.641,1.641,0,1,1,3.117,1.025ZM664.59,654.705a10.705,10.705,0,1,1,10.705,10.705,10.717,10.717,0,0,1-10.705-10.705Zm3.281,0a7.424,7.424,0,1,0,7.424-7.424,7.432,7.432,0,0,0-7.424,7.424Zm4.553,2.112a1.641,1.641,0,0,0,1.107,2.851h3.938a1.641,1.641,0,0,0,0-3.281h-.13a5.936,5.936,0,0,0,1.688-3.49,3.569,3.569,0,0,0-3.565-3.564h-.046a3.55,3.55,0,0,0-3.187,1.971,1.641,1.641,0,1,0,2.933,1.472.291.291,0,0,1,.255-.162h.046a.293.293,0,0,1,.281.243,15.215,15.215,0,0,1-3.319,3.96Zm0,0" transform="translate(-644 -644)"/></g></g></g></svg>