<svg xmlns="http://www.w3.org/2000/svg" width="43.119" height="44.077" viewBox="0 0 43.119 44.077"><defs><style>.a,.b{fill:#fff;}.b{stroke:#fff;}</style></defs><g transform="translate(-643.002 -645.996)"><g transform="translate(643.002 645.996)"><g transform="translate(0 0)"><path class="a" d="M663.367,684.744H648.195a1.385,1.385,0,0,1-1.086-.522,1.482,1.482,0,0,1-.3-1.243A17.6,17.6,0,0,1,670.419,670.1a1.886,1.886,0,0,0,1.357-3.519c-.221-.085-.443-.165-.664-.242a11.408,11.408,0,1,0-14.149.017,21.43,21.43,0,0,0-13.849,15.858,5.24,5.24,0,0,0,1.07,4.389,5.154,5.154,0,0,0,4.011,1.913h15.172a1.886,1.886,0,1,0,0-3.771Zm.66-34.977a7.637,7.637,0,1,1-7.636,7.637,7.645,7.645,0,0,1,7.636-7.637Z" transform="translate(-643.002 -645.996)"/></g></g><path class="b" d="M895.2,896.812l-5.446-.752-2.155-5.15a1.479,1.479,0,0,0-2.73,0l-2.155,5.15-5.446.752a1.484,1.484,0,0,0-.782,2.577l4.1,3.659-.843,5.742a1.481,1.481,0,0,0,2.3,1.443l4.193-2.851,4.193,2.854a1.481,1.481,0,0,0,2.3-1.443l-.843-5.744,4.1-3.659a1.484,1.484,0,0,0-.782-2.577Zm-4.59,5.41a.732.732,0,0,0-.236.653l.878,6.148-4.6-3.131a.732.732,0,0,0-.823,0L881.195,909l.9-6.131a.732.732,0,0,0-.236-.65l-4.391-3.958,5.861-.809a.732.732,0,0,0,.575-.443l2.34-5.549a.031.031,0,0,1,.006.011l2.316,5.535a.732.732,0,0,0,.575.443l5.868.845Z" transform="translate(-210.979 -220.955)"/></g></svg>