<svg xmlns="http://www.w3.org/2000/svg" xmlns:xlink="http://www.w3.org/1999/xlink" width="64" height="62" viewBox="0 0 64 62"><defs><clipPath id="b"><rect width="64" height="62"/></clipPath></defs><g id="a" clip-path="url(#b)"><text transform="translate(-118 -119)" fill="#707070" font-size="20" font-family="SegoeUI, Segoe UI"><tspan x="0" y="22">Pest Control</tspan></text><g transform="translate(0 4.233)"><path d="M58.413.767H5.587A5.592,5.592,0,0,0,0,6.354v14.73a5.592,5.592,0,0,0,5.587,5.587H9.651a1.524,1.524,0,0,1-1.524-1.524V19.052a1.524,1.524,0,0,1,1.524-1.524h44.7a1.524,1.524,0,0,1,1.524,1.524v6.095a1.524,1.524,0,0,1-1.524,1.524h4.064A5.592,5.592,0,0,0,64,21.084V6.354A5.592,5.592,0,0,0,58.413.767ZM48.762,3.814a1.524,1.524,0,1,1-1.524,1.524,1.524,1.524,0,0,1,1.524-1.524Zm5.587,9.143H9.651a1.524,1.524,0,1,1,0-3.048h44.7a1.524,1.524,0,1,1,0,3.048Zm.508-6.095a1.524,1.524,0,1,1,1.524-1.524,1.524,1.524,0,0,1-1.524,1.524Zm0,0" fill="#4fb25d"/><rect width="42.667" height="6.603" transform="translate(10.667 20.068)" fill="#4fb25d"/><path d="M12.9,30.6a1.263,1.263,0,0,0-1.056-1.4c-.584,0-1.056.625-1.056,1.4V36.6a9.119,9.119,0,0,1-1.718,5.487,3.028,3.028,0,0,1-5.015,0,3.17,3.17,0,0,1,.007-3.614,1.742,1.742,0,0,1,1.319-.744,1.747,1.747,0,0,1,1.409.754l.087.113a.886.886,0,0,0,1.493-.044,1.739,1.739,0,0,0-.008-1.944L8.277,36.5A3.589,3.589,0,0,0,5.426,34.93h-.09c-2.233.061-4.006,2.507-3.959,5.462A6.3,6.3,0,0,0,2.56,44.066a4.745,4.745,0,0,0,8,0A12.412,12.412,0,0,0,12.9,36.6Z" fill="#0d004c"/><path d="M15.852,51.437a24.087,24.087,0,0,0,4.534-14.488V32.275a1.264,1.264,0,0,0-1.056-1.4,1.263,1.263,0,0,0-1.056,1.4v4.674a20.81,20.81,0,0,1-3.915,12.512,1.731,1.731,0,0,0-.026,1.976.886.886,0,0,0,1.493.035Z" fill="#0d004c"/><path d="M25.666,53.054c0,.877.473,1.589,1.057,1.589s1.056-.712,1.056-1.589V37.161c0-.878-.473-1.59-1.056-1.59s-1.057.712-1.057,1.59Z" fill="#0d004c"/><path d="M26.723,29.413a1.056,1.056,0,0,0-1.057,1.056v2.112a1.056,1.056,0,0,0,2.113,0V30.469A1.056,1.056,0,0,0,26.723,29.413Z" fill="#0d004c"/><path d="M58.67,34.931a3.618,3.618,0,0,0-2.937,1.562l-.087.113a1.736,1.736,0,0,0-.033,1.977.887.887,0,0,0,1.494.043l.024-.032.091-.119a1.749,1.749,0,0,1,1.4-.748c1.066.028,1.913,1.194,1.892,2.6a3.074,3.074,0,0,1-5.581,1.758A9.116,9.116,0,0,1,53.221,36.6v-6a1.1,1.1,0,1,0-2.113,0V36.6a12.415,12.415,0,0,0,2.334,7.464,4.747,4.747,0,0,0,8,0,6.642,6.642,0,0,0-.01-7.571A3.65,3.65,0,0,0,58.67,34.931Z" fill="#0d004c"/><path d="M44.677,30.877a1.264,1.264,0,0,0-1.057,1.4v4.674a24.093,24.093,0,0,0,4.534,14.488.886.886,0,0,0,1.494-.034,1.739,1.739,0,0,0,0-1.942,20.8,20.8,0,0,1-3.915-12.512V32.275a1.264,1.264,0,0,0-1.056-1.4Z" fill="#0d004c"/><path d="M36.228,53.054c0,.877.472,1.589,1.056,1.589s1.056-.712,1.056-1.589V37.161c0-.878-.473-1.59-1.056-1.59s-1.056.712-1.056,1.59Z" fill="#0d004c"/><path d="M37.284,33.637a1.056,1.056,0,0,0,1.056-1.056V30.469a1.056,1.056,0,0,0-2.112,0v2.112A1.056,1.056,0,0,0,37.284,33.637Z" fill="#0d004c"/></g></g></svg>