<svg xmlns="http://www.w3.org/2000/svg" xmlns:xlink="http://www.w3.org/1999/xlink" width="1920" height="595" viewBox="0 0 1920 595"><defs><clipPath id="a"><rect width="1920" height="595" transform="translate(0 0)" fill="#fff" stroke="#707070" stroke-width="1"/></clipPath><linearGradient id="b" x1="0.311" y1="0.075" x2="0.717" y2="0.989" gradientUnits="objectBoundingBox"><stop offset="0" stop-color="#24ae90"/><stop offset="1" stop-color="#1a1d60"/></linearGradient><clipPath id="c"><rect width="929" height="595" transform="translate(0 0)" fill="#fff" stroke="#707070" stroke-width="1"/></clipPath><linearGradient id="d" x1="0.398" y1="1.079" x2="0.564" y2="0.037" gradientUnits="objectBoundingBox"><stop offset="0" stop-color="#3c5cff" stop-opacity="0.902"/><stop offset="0.13" stop-color="#4068ff" stop-opacity="0.824"/><stop offset="0.394" stop-color="#4c89ff" stop-opacity="0.627"/><stop offset="0.765" stop-color="#5fbcff" stop-opacity="0.314"/><stop offset="1" stop-color="#6ce0ff" stop-opacity="0.102"/></linearGradient><linearGradient id="e" x1="0.427" y1="1.056" x2="0.592" y2="0.011" gradientUnits="objectBoundingBox"><stop offset="0" stop-color="#24ae90" stop-opacity="0.902"/><stop offset="0.381" stop-color="#24ae90" stop-opacity="0.627"/><stop offset="0.765" stop-color="#5fbcff" stop-opacity="0.314"/><stop offset="1" stop-color="#6ce0ff" stop-opacity="0.102"/></linearGradient></defs><g transform="translate(0 193)"><g transform="translate(0 -193)" clip-path="url(#a)"><rect width="2698.868" height="1188.017" transform="translate(-389.981 0.362)" fill="url(#b)"/></g><g transform="translate(0 -193)" clip-path="url(#c)"><path d="M978.77,610.563C946.618,484,778.678,480.669,747.423,373.642,690.8,179.754,492.808,131.518,256.8,205.016c-295.873,92.141-384.618,521.949-43.22,562.064C996.3,859.052,995.329,675.747,978.77,610.563Z" transform="translate(-53.912 -115.039)" opacity="0.35" fill="url(#d)"/><path d="M869.639,621.295C838.081,508.663,688.01,507.806,657.7,412.607,602.774,240.15,424.852,199.566,215.71,268.192c-262.2,86.032-331.82,471.041-26,502.56C890.87,843.013,885.889,679.3,869.639,621.295Z" transform="translate(-66.244 -22.687)" opacity="0.35" fill="url(#e)"/></g></g></svg>