<svg xmlns="http://www.w3.org/2000/svg" width="16.812" height="16.812" viewBox="0 0 16.812 16.812"><defs><style>.a{fill:#fff;}</style></defs><path class="a" d="M407.218,1723.917a9.541,9.541,0,0,1-3-.478,1.369,1.369,0,0,0-1.333.281l-1.89,1.427a10.444,10.444,0,0,1-4.7-4.7l1.385-1.841a1.36,1.36,0,0,0,.334-1.377,9.552,9.552,0,0,1-.479-3,1.35,1.35,0,0,0-1.349-1.349H393.1a1.35,1.35,0,0,0-1.349,1.349,15.481,15.481,0,0,0,15.463,15.463,1.351,1.351,0,0,0,1.349-1.349v-3.079A1.351,1.351,0,0,0,407.218,1723.917Z" transform="translate(-391.755 -1712.882)"/></svg>