<svg xmlns="http://www.w3.org/2000/svg" width="47.8" height="47.8" viewBox="0 0 47.8 47.8"><defs><style>.a{fill:#fff;}</style></defs><g transform="translate(-1171 -223.2)"><path class="a" d="M337.856,119.246a.7.7,0,0,0,.7-.7v-.99a.7.7,0,0,0-1.4,0v.99a.7.7,0,0,0,.7.7Zm0,0" transform="translate(853.033 113.671)"/><path class="a" d="M400.119,146.664l.7-.7a.7.7,0,0,0-.99-.99l-.7.7a.7.7,0,1,0,.99.99Zm0,0" transform="translate(798.954 89.232)"/><path class="a" d="M269.974,275.819a.7.7,0,0,0,.99,0l.7-.7a.7.7,0,0,0-.991-.99l-.7.7a.7.7,0,0,0,0,.991Zm0,0" transform="translate(912.032 -23.846)"/><path class="a" d="M243.545,213.556a.7.7,0,1,0,0-1.4h-.99a.7.7,0,0,0,0,1.4Zm0,0" transform="translate(936.471 30.233)"/><path class="a" d="M270.674,146.664a.7.7,0,0,0,.991-.99l-.7-.7a.7.7,0,0,0-.99.99Zm0,0" transform="translate(912.032 89.232)"/><g transform="translate(1171 223)"><g transform="translate(0 0)"><path class="a" d="M337.156,168.565a.7.7,0,0,0,1.233.455l2.53-2.962a.7.7,0,0,0-1.065-.91l-1.3,1.52v-4.729a.7.7,0,1,0-1.4,0v6.627Zm0,0" transform="translate(-317.967 -148.187)"/><path class="a" d="M230.172,91.093l-1.821-1.6a.438.438,0,0,1-.14-.234l-.625-2.737a.443.443,0,0,1,.024-.271l.948-2.23a1.841,1.841,0,0,0-.255-1.869l-1.824-2.287a1.839,1.839,0,0,0-1.766-.664l-2.007.36c.046-.557.072-1.116.072-1.673a19.807,19.807,0,0,0-5.457-13.684.7.7,0,0,0-1.016.964,18.41,18.41,0,0,1,5.073,12.721c0,.449-.018.9-.051,1.352l-1.8-.866a.436.436,0,0,1-.2-.188l-1.114-2.06A15.431,15.431,0,1,0,188.292,82.9a.7.7,0,1,0,1.324-.455,14.032,14.032,0,1,1,27.024-7.353c-.118,0,.355,0-3.005,0a1.839,1.839,0,0,0-1.621.966l-1.153,2.132a.441.441,0,0,1-.2.188l-2.529,1.218a.441.441,0,0,1-.27.037l-2.385-.428a1.841,1.841,0,0,0-1.766.665l-1.823,2.287a1.84,1.84,0,0,0-.255,1.869l.948,2.23a.436.436,0,0,1,.024.271l-.624,2.737a.439.439,0,0,1-.14.234l-1.822,1.6a1.868,1.868,0,0,0-.37.447,14.023,14.023,0,0,1-8.919-6.644.7.7,0,0,0-1.212.7,15.421,15.421,0,0,0,9.931,7.335l.641,2.808a1.84,1.84,0,0,0,.168.451,18.489,18.489,0,0,1,2.63-36.79,18.3,18.3,0,0,1,11.421,3.948.7.7,0,1,0,.866-1.1A19.689,19.689,0,0,0,202.889,58a19.89,19.89,0,1,0,0,39.779c.279,0,.566-.008.854-.02a.445.445,0,0,1,.212.145l1.75,2.194a.44.44,0,0,1,.1.255l.114,2.421a1.841,1.841,0,0,0,1.041,1.574l2.635,1.269a1.841,1.841,0,0,0,1.879-.167l1.963-1.42a.439.439,0,0,1,.259-.084H216.5a.44.44,0,0,1,.259.084l1.963,1.42a1.839,1.839,0,0,0,1.879.167l2.635-1.269a1.84,1.84,0,0,0,1.041-1.574l.113-2.421a.444.444,0,0,1,.1-.255l.229-.287a.7.7,0,1,0-1.095-.873l-.229.287a1.834,1.834,0,0,0-.4,1.062l-.113,2.421a.442.442,0,0,1-.25.377l-2.635,1.27a.441.441,0,0,1-.45-.04l-1.963-1.42a1.831,1.831,0,0,0-1.08-.35h-2.807a1.83,1.83,0,0,0-1.08.35l-1.963,1.42a.441.441,0,0,1-.451.04l-2.635-1.27a.441.441,0,0,1-.249-.377l-.114-2.42a1.83,1.83,0,0,0-.4-1.062l-1.75-2.194c-.589-.739-1.2-.612-3.282-1.276a.443.443,0,0,1-.313-.327l-.651-2.852a.442.442,0,0,1,.139-.431l1.822-1.6a1.83,1.83,0,0,0,.581-.975l.625-2.737a1.829,1.829,0,0,0-.1-1.131l-.948-2.231a.44.44,0,0,1,.061-.448l1.823-2.287a.443.443,0,0,1,.423-.16l2.386.428a1.828,1.828,0,0,0,1.125-.154l2.529-1.218a1.834,1.834,0,0,0,.821-.784l1.152-2.132a.442.442,0,0,1,.389-.231h2.925a.441.441,0,0,1,.389.231l1.153,2.132a1.83,1.83,0,0,0,.821.784c2.31,1.018,2.7,1.542,3.653,1.371l2.386-.428a.441.441,0,0,1,.423.16l1.824,2.287a.441.441,0,0,1,.061.448l-.948,2.23a1.834,1.834,0,0,0-.1,1.131l.625,2.737a1.83,1.83,0,0,0,.581.975l1.822,1.6a.443.443,0,0,1,.14.431l-.651,2.852a.443.443,0,0,1-.313.327l-2.335.649a1.845,1.845,0,0,0-.486.216.7.7,0,1,0,.745,1.186.444.444,0,0,1,.116-.053l2.335-.65a1.839,1.839,0,0,0,1.3-1.365l.651-2.852a1.838,1.838,0,0,0-.581-1.794Zm0,0" transform="translate(-183 -57.8)"/></g></g></g></svg>