<svg xmlns="http://www.w3.org/2000/svg" width="19.384" height="24.451" viewBox="0 0 19.384 24.451"><defs><style>.a{fill:#6381a7;}</style></defs><path class="a" d="M65.652,0H55.921a2.869,2.869,0,0,0-2.865,2.865v18.72a2.869,2.869,0,0,0,2.865,2.865H69.574a2.869,2.869,0,0,0,2.865-2.865V6.822Zm.532,3.243,3,3.019H67.139a.956.956,0,0,1-.955-.955V3.243Zm4.346,18.343a.956.956,0,0,1-.955.955H55.921a.956.956,0,0,1-.955-.955V2.865a.956.956,0,0,1,.955-.955h8.352v3.4a2.869,2.869,0,0,0,2.865,2.865h3.391V21.586Z" transform="translate(-53.056)"/></svg>