<svg xmlns="http://www.w3.org/2000/svg" xmlns:xlink="http://www.w3.org/1999/xlink" width="64" height="62" viewBox="0 0 64 62"><defs><clipPath id="a"><rect width="44.143" height="62" fill="none"/></clipPath><clipPath id="c"><rect width="64" height="62"/></clipPath></defs><g id="b" clip-path="url(#c)"><g transform="translate(0.478 -0.376)"><g transform="translate(9.522 0.376)"><path d="M24.953,36.361a2.734,2.734,0,0,1-1.671.775A1.572,1.572,0,0,1,22,36.692a.957.957,0,0,0-1.388,1.317,3.411,3.411,0,0,0,2.523,1.047c.093,0,.187,0,.281-.01a4.653,4.653,0,0,0,2.857-1.3.956.956,0,0,0-1.316-1.388Zm0,0" transform="translate(-9.389 0.063)" fill="#0d004c"/><g transform="translate(0 0)"><g clip-path="url(#a)"><path d="M40.724,36.692a1.577,1.577,0,0,1-1.286.444,2.734,2.734,0,0,1-1.671-.775.956.956,0,1,0-1.315,1.388,4.654,4.654,0,0,0,2.856,1.3c.094.006.188.01.282.01a3.415,3.415,0,0,0,2.523-1.047.957.957,0,0,0-1.389-1.317Zm0,0" transform="translate(-9.195 0.063)" fill="#0d004c"/><path d="M22.008,12.995a20.769,20.769,0,0,1-1.652-2.116,26.594,26.594,0,0,0-5.122,4.427C11.1,19.926,9.047,25.53,9.614,30.682a6.083,6.083,0,0,0,.723,2.836,2.866,2.866,0,0,0,.918-.463c.018-1.071.334-4.021,5.764-12.656,2-3.175,4.014-6.043,4.99-7.406Zm0,0" transform="translate(-9.522 -0.247)" fill="#4fb25d"/><path d="M47.848,15.623C43.32,10.516,36.857,7.216,31.382,7.216a19.432,19.432,0,0,0-8.537,2.175C26.7,15.012,37.984,22.272,38.424,22.5c3.631,1.9,6.888,4.971,9.427,7.384,1.21,1.149,2.254,2.14,3.161,2.846a4.094,4.094,0,0,0,1.514.888c.125-.142.525-.752.786-2.9.611-5.062-1.329-10.42-5.464-15.088Zm0,0" transform="translate(-9.358 -0.292)" fill="#4fb25d"/></g></g><path d="M30.619,20.619a72.319,72.319,0,0,1-6.525-5.443A101.576,101.576,0,0,0,15.468,29.25c3.882-3.642,9.023-8.234,15.151-8.631Zm0,0" transform="translate(-9.449 -0.194)" fill="#4fb25d"/><path d="M46.553,10.172c-.215-5.434-6.975-9.8-15.283-9.8C22.844.376,16.012,4.861,15.981,10.4c4.648-3.866,10.3-6.162,15.485-6.162,5,0,10.473,2.2,15.087,5.932Zm0,0" transform="translate(-9.442 -0.376)" fill="#4fb25d"/><path d="M37.582,49.028a7.669,7.669,0,0,1,11.674-6.545,26.737,26.737,0,0,0,.437-4.746,21.848,21.848,0,0,0-.146-2.569A42.73,42.73,0,0,1,45.86,31.9c-3.919-3.721-8.795-8.351-14.362-8.351-5.589,0-10.505,4.626-14.455,8.343-1.3,1.226-2.438,2.293-3.479,3.084a21.724,21.724,0,0,0-.171,2.763c0,11.55,8.127,24.2,18.15,24.2,4.21,0,8.085-2.231,11.163-5.675A7.685,7.685,0,0,1,37.582,49.028ZM39.04,31.249c3.123,0,5.656,1.655,5.656,4.779a5.656,5.656,0,0,1-11.311,0C33.385,32.9,35.916,31.249,39.04,31.249ZM19.561,46.164a.717.717,0,1,1,.718.718A.717.717,0,0,1,19.561,46.164Zm1.587,2.152a.717.717,0,1,1,.718-.718A.718.718,0,0,1,21.148,48.316Zm1.3-1.2a.717.717,0,1,1,.718-.718A.717.717,0,0,1,22.446,47.121Zm1.6-5.437a5.656,5.656,0,0,1-5.656-5.656c0-3.124,2.533-4.779,5.656-4.779S29.7,32.9,29.7,36.028A5.656,5.656,0,0,1,24.045,41.684Zm10.79,13.477A3.417,3.417,0,0,1,32.4,56.394c-.093.007-.187.01-.281.011a4.655,4.655,0,0,1-2.946-1.078.957.957,0,0,1,1.208-1.484,2.73,2.73,0,0,0,1.725.649,1.579,1.579,0,0,0,1.248-.54.957.957,0,0,1,1.484,1.209Z" transform="translate(-9.474 -0.091)" fill="#4fb25d"/></g><circle cx="7.036" cy="7.036" r="7.036" transform="translate(38.268 42.276)" fill="#0d004c"/></g></g></svg>