<svg xmlns="http://www.w3.org/2000/svg" width="41.193" height="55" viewBox="0 0 41.193 55"><path d="M304.119,235.472a1.611,1.611,0,0,0-2.279,0l-6.9,6.9a1.611,1.611,0,1,0,2.279,2.279l4.153-4.153v11.643a1.611,1.611,0,0,0,3.223,0V240.5l4.153,4.153a1.611,1.611,0,0,0,2.279-2.279Zm0,0" transform="translate(-282.384 -209.111)"/><path d="M309.884,170.734H296.076a1.611,1.611,0,0,0,0,3.223h13.807a1.611,1.611,0,0,0,0-3.223Zm0,0" transform="translate(-282.384 -151.749)"/><path d="M218.129-6H193.967a1.611,1.611,0,0,0-1.139.472L182.472,4.827A1.611,1.611,0,0,0,182,5.967v37.97A5.069,5.069,0,0,0,187.063,49h31.066a5.061,5.061,0,0,0,5.063-5.063V-.937A5.061,5.061,0,0,0,218.129-6ZM194.081-2.225V4.241a1.842,1.842,0,0,1-1.84,1.84h-6.465ZM219.97,43.937a1.841,1.841,0,0,1-1.84,1.84H187.063a1.843,1.843,0,0,1-1.84-1.84V9.3h7.018A5.069,5.069,0,0,0,197.3,4.241V-2.777h20.826a1.841,1.841,0,0,1,1.84,1.84Zm0,0" transform="translate(-182 6)"/></svg>