<svg xmlns="http://www.w3.org/2000/svg" xmlns:xlink="http://www.w3.org/1999/xlink" width="64" height="62" viewBox="0 0 64 62"><defs><clipPath id="b"><rect width="64" height="62"/></clipPath></defs><g id="a" clip-path="url(#b)"><g transform="translate(-1.643 0.008)"><path d="M33.7,47.489A11.277,11.277,0,0,1,22,47.5v7a1.094,1.094,0,0,0,1.08,1.091h9.56a1.078,1.078,0,0,0,1.07-1.08c-.018-.266-.011.656-.011-7.026Zm0,0" fill="#4fb25d"/><path d="M63.6,48.1c0,1.181-5.238,2.138-11.7,2.138S40.2,49.28,40.2,48.1s5.238-2.139,11.7-2.139,11.7.957,11.7,2.139Zm0,0" fill="#0d004c"/><path d="M42.754,27.172c-.128-.054-.46-.011-.952.278a44.007,44.007,0,0,1-.652,7.336c1.123-.664,2.192-2.053,2.192-4.909,0-2.373-.567-2.694-.588-2.7Zm0,0" fill="#4fb25d"/><path d="M4.643,48.3c1.465,1.647,4.219,4.063,15.211,4.865V45.81A19.877,19.877,0,0,1,15.08,37.3c-1.711-.459-4.887-2.031-4.887-7.421,0-2.5.577-4.01,1.764-4.609a2.6,2.6,0,0,1,1.893-.138c.053-5.743,1.529-9.689,4.545-12.041a1.068,1.068,0,0,1,1.742.481c.717,1.754,2.663,4.587,7.7,4.587,7.677,0,9.463.14,13.548,4.256a1.088,1.088,0,0,1,.364.717c.043.63.064,1.3.075,2a2.6,2.6,0,0,1,1.892.138c1.187.6,1.765,2.107,1.765,4.609,0,5.411-3.2,6.972-4.908,7.432a20.142,20.142,0,0,1-4.743,8.48v7.389c1.476-.107,2.871-.257,4.144-.428l-.524-2.619A2.509,2.509,0,0,1,37.995,48.1c0-2.577,5.39-3.668,9.8-4.074-.8-2.887-.3-6.214.075-9.229.321-2.887.151-5.667.834-8.362a15.4,15.4,0,0,0,.482-3.625A11.08,11.08,0,0,0,46.091,22a9.516,9.516,0,0,1-5.647-2.748l-6.865-6.854a3.208,3.208,0,0,1,2.1-5.475,1.668,1.668,0,0,1,.021-.235c-3.773-1.03-9.955-.348-15.1,2.459-.337.178-.394.107-1.614.107C15.7,9.314,7.905,10.555,6.942,20.585,5.888,31.277,11.739,44.9,4.643,48.3Zm0,0" fill="#4fb25d"/><path d="M54.036,59.861H43.342v1.07A1.069,1.069,0,0,0,44.412,62h14.97a1.07,1.07,0,0,0,1.069-1.069c0-3.02-.26-.944,1.508-9.806a41.676,41.676,0,0,1-20.125,0l.46,2.32c0,.024.011.005.011.033l.845,4.244H54.036a1.07,1.07,0,0,1,0,2.139Zm0,0" fill="#0d004c"/><path d="M39.685,25.4c0-.589-.011-1.166-.043-1.711-3.3-3.272-4.406-3.39-11.8-3.39-5.272,0-7.86-2.662-9.047-4.673-1.882,2.054-2.8,5.272-2.8,9.774,0,5.849.384,10.287,2.3,14.382,2.225,4.78,5.443,7.208,9.55,7.208,4.074,0,7.282-2.428,9.527-7.208,1.936-4.106,2.321-8.544,2.321-14.382Zm0,0" fill="#4fb25d"/><path d="M12.92,27.172c-.022.011-.588.332-.588,2.7,0,2.856,1.058,4.235,2.181,4.9a43.866,43.866,0,0,1-.642-7.325c-.491-.289-.834-.334-.951-.278Zm0,0" fill="#4fb25d"/><path d="M63,23.657l-5.116-5.112a11.748,11.748,0,0,1-3.208-7.007C54.369,8.96,53,7.441,50.983,5.61c-.071-.107.149.14-5.309-5.318A1.069,1.069,0,0,0,44.162,1.8l4.6,4.591L47.248,7.909,42.656,3.317a1.069,1.069,0,0,0-1.511,1.512l4.591,4.592-1.512,1.512L39.631,6.342A1.069,1.069,0,0,0,38.12,7.853l4.6,4.592L41.2,13.958,36.6,9.366a1.069,1.069,0,1,0-1.512,1.511c4.285,4.287,6.683,6.678,6.863,6.858a7.436,7.436,0,0,0,4.384,2.139,11.739,11.739,0,0,1,7.007,3.208l5.239,5.239a3.209,3.209,0,1,0,4.409-4.664Zm0,0" fill="#0d004c"/></g></g></svg>