<svg xmlns="http://www.w3.org/2000/svg" width="85.522" height="70.25" viewBox="0 0 85.522 70.25"><defs><style>.a{fill:#fff;}</style></defs><g transform="translate(-732 -786)"><path class="a" d="M808.359,810.435H780.87V807.38h27.489ZM732,854.723a1.529,1.529,0,0,0,1.527,1.527h82.467a1.529,1.529,0,0,0,1.527-1.527V786H732Zm32.07-29.016H745.745a1.527,1.527,0,1,1,0-3.054H764.07a1.527,1.527,0,1,1,0,3.054Zm0-6.109H745.745a1.527,1.527,0,1,1,0-3.054H764.07a1.527,1.527,0,1,1,0,3.054Zm0-6.109H745.745a1.527,1.527,0,1,1,0-3.054H764.07a1.527,1.527,0,1,1,0,3.054Zm6.109-6.109h-9.163a1.527,1.527,0,1,1,0-3.054h9.163a1.527,1.527,0,1,1,0,3.054Zm27.489,42.761H791.56a4.582,4.582,0,0,1,0-9.163h6.109a4.582,4.582,0,0,1,0,9.163Zm-19.853-56.505a1.528,1.528,0,0,1,1.527-1.527h30.543a1.528,1.528,0,0,1,1.527,1.527v6.109a1.528,1.528,0,0,1-1.527,1.527H779.342a1.528,1.528,0,0,1-1.527-1.527Zm0,12.217a1.528,1.528,0,0,1,1.527-1.527h30.543a1.528,1.528,0,0,1,1.527,1.527v6.109a1.528,1.528,0,0,1-1.527,1.527H779.342a1.528,1.528,0,0,1-1.527-1.527Zm0,12.217a1.528,1.528,0,0,1,1.527-1.527h30.543a1.528,1.528,0,0,1,1.527,1.527V836.4a1.528,1.528,0,0,1-1.527,1.527H779.342a1.528,1.528,0,0,1-1.527-1.527Zm-6.109-18.326a1.528,1.528,0,0,1-1.527,1.527H754.908a1.527,1.527,0,1,1,0-3.054h15.272a1.528,1.528,0,0,1,1.527,1.527Zm-32.071-7.636h15.272a1.527,1.527,0,1,1,0,3.054H739.636a1.527,1.527,0,0,1,0-3.054Zm10.69,7.636a1.528,1.528,0,0,1-1.527,1.527h-3.054a1.527,1.527,0,1,1,0-3.054H748.8a1.528,1.528,0,0,1,1.527,1.527Zm-10.69,4.582h15.272a1.527,1.527,0,1,1,0,3.054H739.636a1.527,1.527,0,0,1,0-3.054Zm0,6.109a1.527,1.527,0,1,1-1.527,1.527,1.527,1.527,0,0,1,1.527-1.527Zm0,6.109a1.527,1.527,0,1,1-1.527,1.527,1.527,1.527,0,0,1,1.527-1.527Zm0,6.109a1.527,1.527,0,1,1-1.527,1.527,1.527,1.527,0,0,1,1.527-1.527Zm68.723,12.217H780.87V819.6h27.489Zm0-36.652H780.87v-3.055h27.489ZM799.2,845.56a1.529,1.529,0,0,1-1.527,1.527H791.56a1.527,1.527,0,1,1,0-3.054h6.109a1.529,1.529,0,0,1,1.527,1.527Zm0,0"/></g></svg>