<svg xmlns="http://www.w3.org/2000/svg" width="64" height="64" viewBox="0 0 64 64"><defs><style>.a{fill:#fff;}</style></defs><g transform="translate(-644 -644)"><path class="a" d="M644,1013.549v1.223a5.633,5.633,0,0,0,5.632,5.621h4.355V1001.02A12.889,12.889,0,0,0,644,1013.549Zm0,0" transform="translate(0 -312.393)"/><path class="a" d="M805.551,998.391V1010.6h23.494V998.391h-3.158v.672a8.64,8.64,0,0,1-17.28,0v-.672Zm0,0" transform="translate(-141.357 -310.092)"/><path class="a" d="M787.6,1012.021a2.33,2.33,0,0,1-2.328,2.328H758.932a2.33,2.33,0,0,1-2.328-2.328v-13.63H753.9v19.7h36.526v-19.7H787.6Zm0,0" transform="translate(-96.161 -310.092)"/><path class="a" d="M1076.1,1001.02v19.372h4.355a5.633,5.633,0,0,0,5.632-5.621v-1.223a12.889,12.889,0,0,0-9.987-12.529Zm0,0" transform="translate(-378.089 -312.393)"/><path class="a" d="M781.655,661.114H779.78v-1.64a15.506,15.506,0,0,0-10.515-14.65v6.518a1.875,1.875,0,0,1-3.75,0V644.05c-.413-.034-.83-.05-1.25-.05s-.837.016-1.25.05v7.291a1.875,1.875,0,0,1-3.75,0v-6.518a15.506,15.506,0,0,0-10.515,14.65v1.64h-1.875a1.875,1.875,0,0,0,0,3.75h34.78a1.875,1.875,0,0,0,0-3.75Zm0,0" transform="translate(-88.375)"/><path class="a" d="M813.53,840.906H785v4.787a14.255,14.255,0,0,0,9.375,13.366v2.2a4.89,4.89,0,0,0,9.78,0v-2.2a14.255,14.255,0,0,0,9.375-13.366Zm0,0" transform="translate(-123.375 -172.293)"/></g></svg>