<svg xmlns="http://www.w3.org/2000/svg" width="19.433" height="17.667" viewBox="0 0 19.433 17.667"><defs><style>.lang-icon{fill:#6381a7;}</style></defs><path class="lang-icon" d="M31.818,54.216,29.574,52l.026-.027A15.475,15.475,0,0,0,32.878,46.2h2.588V44.434H29.283V42.667H27.516v1.767H21.333v1.758H31.2a13.95,13.95,0,0,1-2.8,4.735,13.93,13.93,0,0,1-2.04-2.959H24.592a15.514,15.514,0,0,0,2.632,4.028l-4.492,4.439,1.25,1.25L28.4,53.267l2.747,2.747.671-1.8Zm4.973-4.483H35.025l-3.975,10.6h1.767l.994-2.65h4.2L39,60.333h1.767Zm-2.319,6.183,1.435-3.829,1.435,3.829Z" transform="translate(-21.333 -42.667)"/></svg>