<svg xmlns="http://www.w3.org/2000/svg" xmlns:xlink="http://www.w3.org/1999/xlink" width="64" height="62" viewBox="0 0 64 62"><defs><clipPath id="a"><rect width="72.143" height="69.888" transform="translate(0 -7.888)" fill="none"/></clipPath><clipPath id="c"><rect width="64" height="62"/></clipPath></defs><g id="b" clip-path="url(#c)"><g transform="translate(0 0.888)"><g clip-path="url(#a)"><path d="M45.168,20.123a11.3,11.3,0,0,1,7.653-2.938,17.488,17.488,0,0,1,6.246,1.848L72.144,27.1V24.777a1.072,1.072,0,0,0-.226-.655L61.6,10.794a8.963,8.963,0,0,0-7.094-3.437c-5.632,0-9.415,3.511-9.415,8.736v2.184c0,.015,0,.031,0,.046Zm0,0" fill="#4fb25d"/><path d="M55.234,37.608c-.849-1.033-1.618-2.012-2.273-2.912a70.068,70.068,0,0,1-6.608,8.829c-.056.055-.114.11-.172.163l.036.82v3l-3.226,8.383L39.783,59a1.072,1.072,0,0,0-.322.906,1.094,1.094,0,0,0,.54.8A9.21,9.21,0,0,0,44.535,62,6.679,6.679,0,0,0,49.3,60.062a22.068,22.068,0,0,0,2.65-3.4,18.869,18.869,0,0,1,2.133-2.779A10.131,10.131,0,0,1,56,52.448a12.324,12.324,0,0,0,2.289-1.73,3.188,3.188,0,0,0,.994-2.343c-.006-2.305-2.26-4.8-4.046-6.527Zm0,0" fill="#4fb25d"/><path d="M71.622,29.368l-13.779-8.5a16.169,16.169,0,0,0-5.022-1.5,9.02,9.02,0,0,0-6.293,2.513c-1.106,1.065-2.505,2.408-4.088,3.923.368.472.656.841.772.953l3.8,3.683a1.066,1.066,0,0,1,0,1.544L36.652,42.023a1.154,1.154,0,0,1-1.6,0l-3.93-3.808c-.071-.068-.415-.442-.845-.922-4.212,3.92-8.179,7.524-10.726,9.639-1.967,1.634-8.365,4.28-10.829,5.226L.968,53.232A1.1,1.1,0,0,0,0,54.3a4.4,4.4,0,0,0,2.755,4.065l1.425.592a12.721,12.721,0,0,0,9.549.075,7.558,7.558,0,0,1,3.5.324,11.947,11.947,0,0,0,3.738.727,4.727,4.727,0,0,0,2.078-.421c2.159-1.046,2.686-2.9,3.3-5.055.19-.671.387-1.365.65-2.128.44-1.278,4.477-3.159,7.721-4.67,3.816-1.776,7.761-3.613,10.043-5.824,1.8-1.748,5.452-7.152,7.465-10.217a.868.868,0,0,1,1.456.026C56.507,36.324,64.224,44.5,70.2,50.557a1.184,1.184,0,0,0,1.942-.455V30.289a1.085,1.085,0,0,0-.521-.921Zm0,0" fill="#4fb25d"/></g><path d="M35.685,40.16a1.138,1.138,0,0,1-.8-.32l-3.932-3.809a1.067,1.067,0,0,1,.016-1.558,2.35,2.35,0,0,0,.415-2.969l-3.048-4.983a1.064,1.064,0,0,1-.01-1.1,1.132,1.132,0,0,1,.979-.551h5.636a1.136,1.136,0,0,1,.944.5l1.851,2.745A9.174,9.174,0,0,1,36.482,39.84a1.14,1.14,0,0,1-.8.32Zm0,0" fill="#4fb25d"/><path d="M37.419,29.069H7.623a.695.695,0,1,0,0,1.389H19.274v1.484a1.39,1.39,0,0,0,1.39,1.39H37.419a1.39,1.39,0,0,0,1.39-1.39V30.458a1.389,1.389,0,0,0-1.39-1.389Zm0,0" fill="#0d004c"/></g></g></svg>