<svg xmlns="http://www.w3.org/2000/svg" xmlns:xlink="http://www.w3.org/1999/xlink" width="16" height="16" viewBox="0 0 16 16"><defs><style>.a{fill:none;}.b{clip-path:url(#a);}.c{fill:#878787;fill-rule:evenodd;}</style><clipPath id="a"><rect class="a" width="16" height="16"/></clipPath></defs><g class="b"><rect class="a" width="16" height="16" transform="translate(0 0)"/><path class="c" d="M5.879,8.453A2.489,2.489,0,0,0,8.373,5.96,2.565,2.565,0,0,0,5.879,3.378,2.489,2.489,0,0,0,3.386,5.871,2.628,2.628,0,0,0,5.879,8.453ZM1.695,1.686a5.918,5.918,0,0,1,8.37,8.37L5.879,14.241,1.695,10.056A6.08,6.08,0,0,1,1.695,1.686Z" transform="translate(0.975 0.05)"/></g></svg>