<svg xmlns="http://www.w3.org/2000/svg" xmlns:xlink="http://www.w3.org/1999/xlink" width="64" height="62" viewBox="0 0 64 62"><defs><clipPath id="b"><rect width="64" height="62"/></clipPath></defs><g id="a" clip-path="url(#b)"><text transform="translate(-118 -119)" fill="#707070" font-size="20" font-family="SegoeUI, Segoe UI"><tspan x="0" y="22">Pest Control</tspan></text><g transform="translate(-0.18 0.071)"><path d="M7.473,31.545A15.369,15.369,0,0,0,6.55,28.58c-.434-1.286-.92-2.554-1.383-3.829-.1-.279.067-.334.29-.339a13.647,13.647,0,0,0,7.5.936,3.943,3.943,0,0,1,.575-.018c.933-.129,1.878-.095,2.813-.2A17.225,17.225,0,0,1,24.094,26a2.214,2.214,0,0,1,1.082,1.993l.444,1.653a19.117,19.117,0,0,0,1.734-1.266,4.9,4.9,0,0,1,2.869-1.053c.947-.124,1.9-.238,2.952-.37a15.613,15.613,0,0,0-2.884,4.715c.108.412-.129.778-.155,1.172a4.237,4.237,0,0,0,.069,1.438,2.637,2.637,0,0,0,3.063,1.8,13.242,13.242,0,0,0,4.5-1.916c.656-.391.753-.395,1.348.093a4.083,4.083,0,0,0,2.149.774.433.433,0,0,1,.171.366,4.232,4.232,0,0,0,4.149,4.213,7.17,7.17,0,0,1,2.316.019,1.636,1.636,0,0,0,.679.015,14.151,14.151,0,0,0,9.377-3.226,37.535,37.535,0,0,1,4.314-2.584c.471-.281.937-.572,1.4-.858a.14.14,0,0,1,.209.067,2.834,2.834,0,0,1,.08,1.519,17.613,17.613,0,0,0-.1,2.809c-.018,1.774.026,3.549-.017,5.322-.026,1.028.228,2.033.16,3.061a13.955,13.955,0,0,1-.24,1.812l-.74.037a4.758,4.758,0,0,1-2.689.223c-.146-.017-.285-.084-.431-.011l-6.884.169c-1.177-.005-2.345.172-3.521.179a1.148,1.148,0,0,1-.843-.182c-2.766-.055-5.524-.259-8.284-.424a9.93,9.93,0,0,1-1.872-.051,1.137,1.137,0,0,1-.745-.287c-1.194-.208-2.392-.4-3.581-.631a3.75,3.75,0,0,0-2.252.154c-1.718.727-3.4,1.533-5.075,2.353a25.233,25.233,0,0,1-4.171,1.87.214.214,0,0,1-.182-.046c-2.388.874-4.757,1.8-7.21,2.489a35.118,35.118,0,0,1-5.229,1.12,3.38,3.38,0,0,1-2.692.1c-.348-.087-.7-.157-1.043-.265A2.373,2.373,0,0,1,4.543,52a17.412,17.412,0,0,1,.518-3.9,13.394,13.394,0,0,1,1.017-3.578,2.926,2.926,0,0,1,.265-.407l1.842-4.387c.578.457.517,1.17.836,1.7.392.52.581,1.188,1.15,1.578a3.513,3.513,0,0,0,4.822-.262c.237-.2.507-.557.807-.383.322.187.078.582.029.885a4.755,4.755,0,0,0-.181.968,22.424,22.424,0,0,0,3.573-1.492A18.43,18.43,0,0,0,26.095,37.3a5.385,5.385,0,0,1-1.5.184c-2.144.13-4.29.208-6.431.39a1.411,1.411,0,0,0-.919.517c-1.033,1.079-2.177,2.035-3.3,3.011a1.881,1.881,0,0,1-2.488.419A2.121,2.121,0,0,1,10.6,40c-.049-.694-.6-1.153-.831-1.762A2.646,2.646,0,0,0,7.809,36.4c-1.062-.24-.9-1.116-.844-1.9-.186-.359-.012-.705.058-1.045A9.4,9.4,0,0,1,7.473,31.545Z" fill="#4fb25d"/><path d="M48.4,16.16l6.662.032c.275,0,.549,0,.849,0,.024.285-.207.374-.342.506-2.789,2.739-5.555,5.5-8.4,8.186a3.69,3.69,0,0,0-1.319,2.681.366.366,0,0,1,.091.274,3.494,3.494,0,0,1-1.186,2.255c-.976.913-1.843,1.94-2.9,2.767a1.287,1.287,0,0,1-1.475.221c-.792-.622-.91-1.148-.37-1.976A12.694,12.694,0,0,1,41.5,29.152a27.589,27.589,0,0,1-4.842,3.662,20.708,20.708,0,0,1-2.818,1.371c-.06.023-.119.047-.18.066-1.343.429-2.2-.054-1.772-1.533a12.415,12.415,0,0,1,4.952-6.306,18.786,18.786,0,0,1,2.81-1.631c1.248-.318,1.8-1.345,2.38-2.341,1.217-1.858,2.452-3.7,3.684-5.55A2.02,2.02,0,0,1,48.4,16.16Z" fill="#0d004c"/><path d="M47.376,37.72c-.615-.049-1.23-.112-1.847-.144a2.17,2.17,0,0,1-1.372-.6c-.864-.787-.941-1.521-.133-2.345A23.557,23.557,0,0,1,49.6,30.49a4.926,4.926,0,0,1,3.617-.312,2.617,2.617,0,0,0,2.934-1.039,6.956,6.956,0,0,1,.487-.5c1.675-1.724,3.477-3.317,5.177-5.014.458-.511,1.027-.9,1.521-1.371.15-.144.336-.4.568-.068a1.581,1.581,0,0,1,.091.82c-.282,2.314-.057,4.637-.135,6.954-.007.227.082.469-.08.679-2.248,1.3-4.569,2.482-6.717,3.927a16.61,16.61,0,0,1-4.247,2.4,22.867,22.867,0,0,1-2.866.622A3.39,3.39,0,0,1,47.376,37.72Z" fill="#0d004c"/><path d="M22.244,19.223c.783.2,1.573.365,2.346.593a12.1,12.1,0,0,1,3.889,2.134c.412.074.488.389.458.72a3.16,3.16,0,0,1-.694,1.938,5.509,5.509,0,0,1-1.5,1.673c-.365-.161-.441-.555-.666-.829a2.8,2.8,0,0,0-.689-.653,11.6,11.6,0,0,0-5.2-1.282,9.283,9.283,0,0,1-1.333-.062,5.413,5.413,0,0,0-1.822.068q-.729.012-1.459,0a45.706,45.706,0,0,1-5.778.257,7.957,7.957,0,0,1-2.8-.5,3.569,3.569,0,0,1-1.568-1.136c-.067-.1-.008-.251-.112-.345a4.163,4.163,0,0,1,.108-3.859,13.474,13.474,0,0,1,1.99-2.8c.231-.265.385-.2.61-.022A12.6,12.6,0,0,0,10.558,16.8a14.924,14.924,0,0,1,1.935.675,36.658,36.658,0,0,0,5.719,1.052c.526.077,1.056.139,1.587.19.557.124,1.135.085,1.69.221A1.365,1.365,0,0,1,22.244,19.223Z" fill="#4fb25d"/><path d="M26.6,15.005a3.781,3.781,0,0,1,1.554,3.622c-.054.457-.145.543-.568.3a10.547,10.547,0,0,0-3.805-1.369,10.487,10.487,0,0,1-2.088-.264q-3.135-.361-6.255-.835A13.238,13.238,0,0,1,14,16.176c-.689-.258-1.485-.274-2.024-.88A19.908,19.908,0,0,1,9.288,13.58c-.449-.313-.362-.559-.133-.923A6.759,6.759,0,0,1,13.3,9.767c.654-.18,1.344-.225,2-.389a1.479,1.479,0,0,1,1.778.891c.406.1.612.447.889.7a2.94,2.94,0,0,0,.682.47,9.655,9.655,0,0,0,2.714,1.086,21.774,21.774,0,0,1,3.468,1.278,1.812,1.812,0,0,1,.164.085C25.546,14.244,26.228,14.4,26.6,15.005Z" fill="#4fb25d"/><path d="M18.545,8.965c-.392-.64.336-.417.49-.636a1.4,1.4,0,0,1,.291-.141,3.464,3.464,0,0,1,2.534-.011,4.478,4.478,0,0,1,4.273,3.23,8.493,8.493,0,0,1,.191,1l-.065.073c-.464.054-.8-.261-1.179-.43a28.353,28.353,0,0,0-3.865-1.331,7.855,7.855,0,0,1-1.255-.469C19.445,9.869,18.784,9.65,18.545,8.965Z" fill="#4fb25d"/><path d="M.976,37.933c-1.19-2.273-1.14-2.562.793-4.332a34.968,34.968,0,0,1,3.117-2.426c.3-.22.4-.142.5.187a3.037,3.037,0,0,1-.141,1.5,3.156,3.156,0,0,0-.19.991A11.155,11.155,0,0,1,5.07,36.29a2.462,2.462,0,0,0,1.194,1.585c.311.2.388.345.226.7-.474,1.045-.9,2.112-1.363,3.206a25.272,25.272,0,0,1-2.918-2.4A2.937,2.937,0,0,1,.978,37.928Z" fill="#4fb25d"/></g></g></svg>