<svg xmlns="http://www.w3.org/2000/svg" width="62" height="57.936" viewBox="0 0 62 57.936"><defs><style>.a{fill:#4eb35c;}.b{fill:#080e3a;}</style></defs><g transform="translate(-0.024 -4.07)"><path class="a" d="M8.318,292.544a3.633,3.633,0,0,0-4.864-1.634l-2.42,1.2a1.818,1.818,0,0,0-.818,2.441l10.9,21.8a1.819,1.819,0,0,0,2.432.816l2.388-1.183a3.633,3.633,0,0,0,1.639-4.877Z" transform="translate(0 -255.347)"/><path class="a" d="M138.756,237.837a3.622,3.622,0,0,0-4.8.472l-9.931,12.207a4.391,4.391,0,0,1-2.689,1.163h-8.465a1.817,1.817,0,0,1,0-3.633h7.266a3.633,3.633,0,0,0,0-7.266h-9.519c-.905,0-1.357-.574-2.071-1.2a12.64,12.64,0,0,0-11.277-2.761,13.253,13.253,0,0,0-5.577,2.785l-.054-.044-2.627,2.312,10.326,20.705h20.8a10.944,10.944,0,0,0,8.72-4.36l10.657-15.259A3.661,3.661,0,0,0,138.756,237.837Z" transform="translate(-78.214 -207.84)"/><g transform="translate(-678.976 -699.93)"><path class="b" d="M715.5,704A12.5,12.5,0,1,0,728,716.5,12.514,12.514,0,0,0,715.5,704Zm0,22.485a9.985,9.985,0,1,1,9.985-9.985,10,10,0,0,1-9.985,9.985Zm0,0"/><path class="b" d="M874.1,781.051l-2.608-1.313a2.022,2.022,0,0,0-.729-1.171v-5.333a1.258,1.258,0,1,0-2.515,0v5.332a2.02,2.02,0,0,0,2.107,3.417l2.615,1.316a1.245,1.245,0,0,0,.564.134,1.258,1.258,0,0,0,.566-2.381Zm0,0" transform="translate(-153.998 -63.647)"/><path class="b" d="M883.1,1007.5a1.086,1.086,0,1,0,1.086,1.085,1.085,1.085,0,0,0-1.086-1.085Zm0,0" transform="translate(-167.615 -284.167)"/><path class="b" d="M758.926,883.32a1.086,1.086,0,1,0,1.086,1.086,1.085,1.085,0,0,0-1.086-1.086Zm0,0" transform="translate(-51.347 -167.899)"/><path class="b" d="M1007.262,883.347a1.086,1.086,0,1,0,1.085,1.086,1.085,1.085,0,0,0-1.085-1.086Zm0,0" transform="translate(-283.867 -167.925)"/></g></g></svg>