<svg xmlns="http://www.w3.org/2000/svg" xmlns:xlink="http://www.w3.org/1999/xlink" width="64" height="62" viewBox="0 0 64 62"><defs><clipPath id="a"><rect width="63.799" height="61.895" transform="translate(0 0.105)" fill="none"/></clipPath><clipPath id="c"><rect width="64" height="62"/></clipPath></defs><g id="b" clip-path="url(#c)"><g transform="translate(1 0.895)"><g clip-path="url(#a)"><path d="M13.167,24.92A3.082,3.082,0,0,1,11.023,23.5L9.345,20.874A58.236,58.236,0,0,0,3,12.663L.9,10.406A3.449,3.449,0,0,1,0,7.895,3.405,3.405,0,0,1,1.145,5.5l5.1-4.442A3,3,0,0,1,8.677.336a3.119,3.119,0,0,1,2.144,1.422L12.5,4.381a58.236,58.236,0,0,0,6.348,8.211l2.095,2.258a3.44,3.44,0,0,1,.9,2.51A3.4,3.4,0,0,1,20.7,19.755L15.6,24.2a2.976,2.976,0,0,1-2.436.721Zm5.8,5.738-2.892-3.74.881-.768,2.891,3.74Zm2.641-2.3-2.891-3.74,1.761-1.535,2.891,3.74Zm4.4-3.837-.881.768-2.89-3.741.879-.767Zm0,0" fill="#0d004c"/></g><path d="M56.353,44.209a1.265,1.265,0,0,0,0,1.711,2.313,2.313,0,0,1,0,3.128,1.263,1.263,0,0,0,0,1.716,1.094,1.094,0,0,0,1.616-.005,4.844,4.844,0,0,0,0-6.55,1.095,1.095,0,0,0-1.612,0Zm0,0"/><path d="M16.212,42.316a2.634,2.634,0,0,0-3.175-.547l-.505.269.253-.537a3.055,3.055,0,0,0-.516-3.371l-.071-.075a2.637,2.637,0,0,0-3.889,0l-.071.075A3.055,3.055,0,0,0,7.722,41.5l.253.537-.505-.269a2.636,2.636,0,0,0-3.176.547l-.071.076a3.05,3.05,0,0,0,0,4.13l.071.076a2.634,2.634,0,0,0,3.176.546l.505-.267-.253.536a3.055,3.055,0,0,0,.516,3.371l.071.075a2.637,2.637,0,0,0,3.889,0l.071-.075a3.055,3.055,0,0,0,.516-3.371l-.253-.536.505.267a2.632,2.632,0,0,0,3.175-.546l.072-.076a3.05,3.05,0,0,0,0-4.13Zm-5.959,3.351A1.142,1.142,0,0,1,9.2,44.92,1.265,1.265,0,0,1,9.448,43.6a1.1,1.1,0,0,1,1.242-.262,1.215,1.215,0,0,1,.7,1.118,1.179,1.179,0,0,1-1.14,1.21Zm0,0" fill="#4fb25d"/><path d="M31.279,32.063a2.8,2.8,0,0,0,2.482,2.173l.564.038-.473.329a3.007,3.007,0,0,0-1.157,3.186l.026.1a2.738,2.738,0,0,0,3.358,2.083l.1-.026a2.884,2.884,0,0,0,2.047-2.636l.036-.6.309.5a2.677,2.677,0,0,0,3,1.229l.1-.028a2.779,2.779,0,0,0,1.677-1.351,3.08,3.08,0,0,0,.285-2.215l-.025-.1a2.8,2.8,0,0,0-2.482-2.173l-.564-.039.474-.328a3.009,3.009,0,0,0,1.156-3.187l-.025-.1a2.912,2.912,0,0,0-1.273-1.781,2.617,2.617,0,0,0-2.086-.3l-.1.028A2.88,2.88,0,0,0,36.661,29.5l-.037.6-.31-.5a2.676,2.676,0,0,0-3-1.229l-.1.027a2.78,2.78,0,0,0-1.677,1.352,3.078,3.078,0,0,0-.285,2.214Zm5.179.733a1.147,1.147,0,0,1,.694-.56,1.1,1.1,0,0,1,.292-.039,1.154,1.154,0,0,1,1.1.9,1.242,1.242,0,0,1-.535,1.36,1.092,1.092,0,0,1-1.375-.2,1.269,1.269,0,0,1-.175-1.463Zm0,0" fill="#4fb25d"/><path d="M62.174,43.613a63.13,63.13,0,0,1-.653-9.061V.1H45.571v31.63a20.1,20.1,0,0,1-.249,3.138c.036.107.069.215.1.326l.025.1a4.266,4.266,0,0,1-1.56,4.455A18.818,18.818,0,0,1,38.9,46.474L36.83,48.232a22.794,22.794,0,0,1-7.171,4.142L22.9,54.767a3.736,3.736,0,0,0-2.346,4.116A3.564,3.564,0,0,0,24,62H42.8a25.391,25.391,0,0,0,5.27-.554,13.873,13.873,0,0,1,6.422.163,11.685,11.685,0,0,0,3,.391A6.524,6.524,0,0,0,63.8,55.3v-.462Zm0,0" fill="#4fb25d"/><path d="M25.4,31.5a1.263,1.263,0,0,0,0,1.711l2.278,2.419a1.092,1.092,0,0,0,1.611,0,1.263,1.263,0,0,0,0-1.711L27.009,31.5a1.091,1.091,0,0,0-1.611,0Zm0,0" fill="#0d004c"/><path d="M22.276,34.908a1.185,1.185,0,0,0-.571.7,1.277,1.277,0,0,0,.061.924l1.14,2.419a1.157,1.157,0,0,0,.658.608,1.08,1.08,0,0,0,.872-.065,1.193,1.193,0,0,0,.571-.7,1.275,1.275,0,0,0-.063-.925l-1.139-2.419a1.109,1.109,0,0,0-1.529-.541Zm0,0" fill="#0d004c"/></g></g></svg>