<svg xmlns="http://www.w3.org/2000/svg" xmlns:xlink="http://www.w3.org/1999/xlink" width="64" height="62" viewBox="0 0 64 62"><defs><clipPath id="b"><rect width="64" height="62"/></clipPath></defs><g id="a" clip-path="url(#b)"><text transform="translate(-118 -119)" fill="#707070" font-size="20" font-family="SegoeUI, Segoe UI"><tspan x="0" y="22">Pest Control</tspan></text><g transform="translate(1.225 0.278)"><path d="M32.961,15.168A7.591,7.591,0,0,0,31,13.574a11.49,11.49,0,0,1-5.824,5.606v.741a13.459,13.459,0,0,0,7.784-4.753Zm0,0" fill="#0d004c"/><path d="M21.741,9.752l2.362.472V6.4l-2.362.471a1.076,1.076,0,0,0-.86,1.054V8.7a1.074,1.074,0,0,0,.86,1.053Zm0,0" fill="#0d004c"/><path d="M36.988,22.271a3.221,3.221,0,0,0-3.221,3.222v1.073H44.5V25.493a3.221,3.221,0,0,0-3.221-3.222Zm0,0" fill="#4fb25d"/><path d="M30.771,11.1h.036c.012,0,.023.016.036.022a9.691,9.691,0,0,1,4.326,3.368.42.42,0,0,1,.036.05,9.587,9.587,0,0,1,1.783,5.58h4.3V19.05c0-2.586,2.351-5.369,7.516-5.369a13.906,13.906,0,0,0,3.221-.214c-.053-2.83-1.142-7.3-7.516-7.3H26.251v4.3h1.073a9.6,9.6,0,0,1,3.447.644Zm0,0" fill="#0d004c"/><path d="M41.755,45.71a1.075,1.075,0,0,1-.472-.89V43.746a2.148,2.148,0,0,0-4.3,0V44.82a1.073,1.073,0,0,1-.473.89c-1.237.835-1.675,2.935-1.675,4.479a4.044,4.044,0,0,0,4.3,4.3,4.042,4.042,0,0,0,4.294-4.3c0-1.544-.437-3.644-1.675-4.479Zm0,0" fill="#4fb25d"/><path d="M53.094,58.779V41.224a7.468,7.468,0,0,0-3.532-6.373l-2.534-1.584A5.339,5.339,0,0,1,44.5,28.714H33.767a5.337,5.337,0,0,1-2.524,4.553l-2.534,1.584a7.468,7.468,0,0,0-3.532,6.373V58.779A3.221,3.221,0,0,0,28.4,62H49.873a3.221,3.221,0,0,0,3.221-3.221Zm-2.179-13.7-1.074,4.295a1.073,1.073,0,0,1-.782.78l-3.526.882a6.741,6.741,0,0,1-.438,1.8l1.9.631a1.077,1.077,0,0,1,.679.679l1.073,3.222a1.075,1.075,0,1,1-2.04.678l-.9-2.711L43.9,54.7a6.852,6.852,0,0,1-9.538,0l-1.9.634-.905,2.711a1.075,1.075,0,1,1-2.04-.678l1.074-3.222a1.073,1.073,0,0,1,.678-.679l1.9-.631a6.741,6.741,0,0,1-.438-1.8L29.2,50.156a1.07,1.07,0,0,1-.781-.78l-1.074-4.295a1.074,1.074,0,0,1,2.083-.522l.917,3.67,2.429.608a9.163,9.163,0,0,1,.751-2.726l-1.6-1.606a1.069,1.069,0,0,1-.3-.759V39.451a1.074,1.074,0,1,1,2.148,0V43.3L34.8,44.338c.014-.013.023-.029.037-.041v-.551a4.3,4.3,0,0,1,8.59,0V44.3c.014.012.024.028.038.041L44.5,43.3V39.451a1.074,1.074,0,1,1,2.148,0v4.295a1.074,1.074,0,0,1-.315.759l-1.605,1.6a9.165,9.165,0,0,1,.752,2.726l2.429-.608.916-3.67a1.074,1.074,0,0,1,2.083.522Zm0,0" fill="#4fb25d"/><path d="M15.513,8.312a1.074,1.074,0,1,1-1.074-1.074,1.074,1.074,0,0,1,1.074,1.074Zm0,0" fill="#0d004c"/><path d="M16.587,11.534a1.074,1.074,0,1,1-1.074-1.074,1.074,1.074,0,0,1,1.074,1.074Zm0,0" fill="#0d004c"/><path d="M13.365,13.681a1.073,1.073,0,1,1-1.073-1.073,1.073,1.073,0,0,1,1.073,1.073Zm0,0" fill="#0d004c"/><path d="M10.144,15.828A1.074,1.074,0,1,1,9.07,14.755a1.074,1.074,0,0,1,1.074,1.073Zm0,0" fill="#0d004c"/><path d="M16.587,5.091a1.074,1.074,0,1,1-1.074-1.073,1.074,1.074,0,0,1,1.074,1.073Zm0,0" fill="#0d004c"/><path d="M13.365,2.944A1.073,1.073,0,1,1,12.292,1.87a1.073,1.073,0,0,1,1.073,1.074Zm0,0" fill="#0d004c"/><path d="M10.144.8A1.074,1.074,0,1,1,9.07-.278,1.074,1.074,0,0,1,10.144.8Zm0,0" fill="#0d004c"/><path d="M11.218,8.312a1.074,1.074,0,1,1-1.074-1.074,1.074,1.074,0,0,1,1.074,1.074Zm0,0" fill="#0d004c"/><path d="M6.923,8.312A1.074,1.074,0,1,1,5.849,7.238,1.074,1.074,0,0,1,6.923,8.312Zm0,0" fill="#0d004c"/></g></g></svg>