<svg xmlns="http://www.w3.org/2000/svg" width="59.825" height="76.821" viewBox="0 0 59.825 76.821"><defs><style>.a{fill:#50a445;}.b{fill:#0c1138;}</style></defs><g transform="translate(-750 -708)"><path class="a" d="M769.173,747.261v-30.8h26.909v11.763a13.174,13.174,0,0,1,4.5-.021V716.459h3.957a5.537,5.537,0,0,0,5.1-3.36l2.185-5.1H753.433l2.185,5.1a5.537,5.537,0,0,0,5.1,3.361h3.956v30.8a13.168,13.168,0,0,1,4.5,0Zm0,0" transform="translate(-2.746)"/><path class="b" d="M750,985.378v2.246h28.351v-2.246a14.186,14.186,0,0,0-4.422-10.284H754.422A14.184,14.184,0,0,0,750,985.378Zm0,0" transform="translate(0 -213.661)"/><path class="b" d="M787.785,1060.238a6.622,6.622,0,0,0,13.232,0Zm0,0" transform="translate(-30.226 -281.771)"/><path class="b" d="M787.8,925.031a8.971,8.971,0,0,0-8.268,5.513h16.536a8.971,8.971,0,0,0-8.268-5.513Zm0,0" transform="translate(-23.623 -173.613)"/><path class="b" d="M945.113,965.016a6.622,6.622,0,0,0,13.232,0Zm0,0" transform="translate(-156.08 -205.599)"/><path class="b" d="M907.328,890.155V892.4h28.351v-2.246a14.186,14.186,0,0,0-4.422-10.284H911.749a14.188,14.188,0,0,0-4.421,10.284Zm0,0" transform="translate(-125.854 -137.487)"/><path class="b" d="M945.127,829.809a8.97,8.97,0,0,0-8.268,5.512h16.536a8.972,8.972,0,0,0-8.268-5.512Zm0,0" transform="translate(-149.477 -97.441)"/></g></svg>