<svg xmlns="http://www.w3.org/2000/svg" width="15.916" height="15.6" viewBox="0 0 15.916 15.6"><defs><style>.a{fill:none;}.b{fill:#878787;}</style></defs><rect class="a" width="15.484" height="15.484"/><path class="b" d="M9.237,11.143l1.705-1.532a.529.529,0,0,1,.426-.139l.284.139,3.979,1.811c.284.139.284.279.284.557a3.5,3.5,0,0,1-1.137,2.507A4.116,4.116,0,0,1,11.795,15.6a8.8,8.8,0,0,1-3.979-.975,18.629,18.629,0,0,1-3.979-2.786A23.709,23.709,0,0,1,1.705,8.775,19.069,19.069,0,0,1,.284,5.711,8.409,8.409,0,0,1,0,3.064,3.63,3.63,0,0,1,.995.975,4.372,4.372,0,0,1,3.695,0a.743.743,0,0,1,.568.279l2.132,3.9a.484.484,0,0,0,.142.279.505.505,0,0,1-.142.418L4.547,6.546a.612.612,0,0,0,0,.7A13.327,13.327,0,0,0,6.253,9.471a14.3,14.3,0,0,0,2.274,1.811C8.811,11.421,9.095,11.421,9.237,11.143Z" transform="translate(0 0)"/></svg>