<svg xmlns="http://www.w3.org/2000/svg" xmlns:xlink="http://www.w3.org/1999/xlink" width="64" height="62" viewBox="0 0 64 62"><defs><clipPath id="b"><rect width="64" height="62"/></clipPath></defs><g id="a" clip-path="url(#b)"><g transform="translate(-1.143 0.429)"><path d="M15.1,15.786a1.043,1.043,0,0,0,.753-.312,1.063,1.063,0,0,0,.334-.775,3.2,3.2,0,0,1,.97-2.312,3.328,3.328,0,0,1,4.6.022A3.174,3.174,0,0,1,22.7,14.7v6.52a1.087,1.087,0,0,0,1.087,1.087,1.039,1.039,0,0,0,.753-.312,1.061,1.061,0,0,0,.334-.775V14.7a3.26,3.26,0,0,1,6.52,0V33.173a1.087,1.087,0,0,0,1.087,1.087,1.039,1.039,0,0,0,.753-.312,1.06,1.06,0,0,0,.333-.775V10.624A12.791,12.791,0,0,1,35.493,3.69a6.894,6.894,0,0,1,.789-1.05A7.22,7.22,0,0,0,37.642.571H17.27a3.254,3.254,0,0,0-3.26,3.261V14.7A1.089,1.089,0,0,0,15.1,15.786Z" fill="#0d004c"/><path d="M28.138,44.041c-10.087,0-20.263-1.459-24.767-4.279a24.989,24.989,0,0,0,49.53.027c-4.043,2.524-12.507,3.806-20.052,4.143C31.376,44.005,29.834,44.041,28.138,44.041Z" fill="#4fb25d"/><path d="M35.745,31.287v1.886a3.26,3.26,0,1,1-6.521,0V31.006C28.864,31,28.5,31,28.138,31c-16.411,0-25,3.537-25,5.434s8.584,5.433,25,5.433c1.659,0,3.167-.035,4.608-.107,13.129-.586,20.387-3.521,20.387-5.326C53.133,34.8,47.1,32.165,35.745,31.287Z" fill="#4fb25d"/><path d="M60.74.571H39.924A8.533,8.533,0,0,1,37.892,4.1a4.733,4.733,0,0,0-.556.743,9.64,9.64,0,0,0-1.031,2.249H60.74a3.261,3.261,0,0,0,0-6.521Z" fill="#0d004c"/></g></g></svg>