<svg xmlns="http://www.w3.org/2000/svg" xmlns:xlink="http://www.w3.org/1999/xlink" width="64" height="71" viewBox="0 0 64 71"><defs><clipPath id="a"><rect width="49.964" height="71.591" transform="translate(0 0.201)" fill="none"/></clipPath><clipPath id="c"><rect width="64" height="71"/></clipPath></defs><g id="b" clip-path="url(#c)"><g transform="translate(0 -1.201)"><path d="M50.234,34.856a2.967,2.967,0,0,0,1.137-.269L54.326,40.2l-.256.391S46.3,49.875,50.351,53.779c.476.08,5.091-10.1,5.091-10.1l.353-.695.237.45s4.793,10.1,5.267,10.012c3.981-3.971-3.947-13.118-3.947-13.118l-.123-.184,2.736-5.411a3.278,3.278,0,0,0,.631.051c1.948-.061,3.473-2.035,3.4-4.4s-1.716-4.248-3.664-4.187-3.479,2.033-3.407,4.4a4.65,4.65,0,0,0,1.492,3.362L55.769,38l-3.058-4.5a4.805,4.805,0,0,0,.931-3.047c-.072-2.366-1.719-4.245-3.669-4.187s-3.476,2.038-3.4,4.4,1.716,4.241,3.666,4.184Zm7.83-4.3c-.053-1.742.979-3.193,2.3-3.228s2.441,1.344,2.5,3.084-.982,3.19-2.307,3.231S58.118,32.3,58.064,30.56Zm-2.535,9.5a.8.8,0,1,1-.778.824.8.8,0,0,1,.778-.824ZM50.007,27.405c1.324-.041,2.444,1.342,2.5,3.084s-.982,3.19-2.3,3.229-2.445-1.341-2.5-3.083.982-3.19,2.3-3.23Zm0,0" fill="#0d004c"/><g clip-path="url(#a)"><path d="M33.222,51.226l-7.508,5.813a1.2,1.2,0,0,1-1.462,0L16.737,51.22a.95.95,0,0,1-.091-1.425,4.92,4.92,0,0,0,.559-.655,1.179,1.179,0,0,1,1.374-.408,18.359,18.359,0,0,0,12.822,0,1.177,1.177,0,0,1,1.364.425,5.217,5.217,0,0,0,.547.635.959.959,0,0,1-.09,1.439Zm4.339.034a1.2,1.2,0,0,0-.8.248l-11.044,8.55a1.193,1.193,0,0,1-1.461,0L13.21,51.508a1.2,1.2,0,0,0-.805-.248A12.3,12.3,0,0,0,.821,63.55V70.6a1.194,1.194,0,0,0,1.193,1.193H47.952A1.194,1.194,0,0,0,49.145,70.6V63.55A12.3,12.3,0,0,0,37.561,51.26Zm7.11-28.488V16.309A16.126,16.126,0,0,0,28.623.2c-.032,0-7.187,0-7.219,0A16.127,16.127,0,0,0,5.3,16.309v6.463a14.1,14.1,0,0,1-2.375,7.845A16.971,16.971,0,0,0,3.9,50.765a1.183,1.183,0,0,0,1.547.248,14.6,14.6,0,0,1,7.687-2.164c1.97,0,2.207-1.667,1.3-2.305a18.336,18.336,0,0,1-7.8-15V23.17a3.582,3.582,0,0,1,4.051-3.549,27.331,27.331,0,0,0,20.319-5.408,3.582,3.582,0,0,1,5.757,2.836,3.1,3.1,0,0,0,1.1,2.307,2.281,2.281,0,0,0,1.438.262,3.58,3.58,0,0,1,4.025,3.552v8.37a18.334,18.334,0,0,1-7.8,15c-.9.638-.669,2.305,1.3,2.305a14.611,14.611,0,0,1,7.7,2.172,1.193,1.193,0,0,0,1.54-.264c4.321-5.267,5.273-9.048,2.286-14.352a19.489,19.489,0,0,1-1.787-4.5C45.77,28.942,44.671,24.552,44.671,22.772ZM39.6,21.985a4.69,4.69,0,0,1-2.966-.583c-2.243-1.351-2.254-4.31-2.254-4.34a1.2,1.2,0,0,0-1.92-.955,29.718,29.718,0,0,1-22.086,5.88,1.192,1.192,0,0,0-1.349,1.182V31.54a15.959,15.959,0,0,0,31.917,0V23.169A1.194,1.194,0,0,0,39.6,21.985Zm0,0" fill="#4fb25d"/></g></g></g></svg>