<svg xmlns="http://www.w3.org/2000/svg" width="20.917" height="18.505" viewBox="0 0 20.917 18.505"><defs><style>.a{fill:#0d004c;}</style></defs><g transform="translate(-17.44)"><g transform="translate(21.165)"><path class="a" d="M136.078,8.483a4.217,4.217,0,0,1-4.029-4.373,4.03,4.03,0,1,1,8.058,0A4.217,4.217,0,0,1,136.078,8.483Zm0-7.269a2.762,2.762,0,0,0-2.814,2.9,2.833,2.833,0,1,0,5.629,0A2.793,2.793,0,0,0,136.078,1.215Z" transform="translate(-132.049)"/></g><g transform="translate(26.656 6.805)"><g transform="translate(0)"><path class="a" d="M343.549,349.335h-.687a1.009,1.009,0,0,1-1.007-1.008v-.232a4.431,4.431,0,0,1-.686-.285l-.165.165a1.008,1.008,0,0,1-1.425,0l-.485-.485a1.007,1.007,0,0,1,0-1.425l.165-.164a4.415,4.415,0,0,1-.285-.686h-.232a1.009,1.009,0,0,1-1.007-1.007v-.687a1.009,1.009,0,0,1,1.007-1.007h.232a4.417,4.417,0,0,1,.285-.686l-.165-.165a1.007,1.007,0,0,1,0-1.425l.486-.485a1.007,1.007,0,0,1,1.425,0l.165.165a4.415,4.415,0,0,1,.686-.285V339.4a1.009,1.009,0,0,1,1.007-1.007h.687a1.009,1.009,0,0,1,1.007,1.007v.232a4.414,4.414,0,0,1,.686.285l.165-.165a1.007,1.007,0,0,1,1.425,0l.485.485a1.007,1.007,0,0,1,0,1.425l-.165.165a4.4,4.4,0,0,1,.285.686h.232a1.009,1.009,0,0,1,1.007,1.007v.687a1.009,1.009,0,0,1-1.007,1.007h-.232a4.4,4.4,0,0,1-.285.686l.165.165a1.007,1.007,0,0,1,0,1.425l-.485.485a1.007,1.007,0,0,1-1.425,0l-.165-.164a4.438,4.438,0,0,1-.686.285v.232a1.009,1.009,0,0,1-1.007,1.007Zm-2.273-2.2a3.788,3.788,0,0,0,.98.407.321.321,0,0,1,.241.31v.473a.367.367,0,0,0,.366.366h.687a.367.367,0,0,0,.366-.366v-.473a.321.321,0,0,1,.24-.31,3.79,3.79,0,0,0,.98-.407.32.32,0,0,1,.39.049l.335.335a.366.366,0,0,0,.518,0l.486-.486a.366.366,0,0,0,0-.518l-.335-.335a.321.321,0,0,1-.049-.39,3.776,3.776,0,0,0,.407-.979.321.321,0,0,1,.31-.241h.473a.367.367,0,0,0,.366-.366v-.687a.367.367,0,0,0-.366-.366H347.2a.321.321,0,0,1-.31-.24,3.773,3.773,0,0,0-.407-.98.321.321,0,0,1,.049-.39l.335-.335a.366.366,0,0,0,0-.518l-.486-.486a.366.366,0,0,0-.518,0l-.336.335a.321.321,0,0,1-.39.049,3.78,3.78,0,0,0-.98-.407.32.32,0,0,1-.24-.31V339.4a.367.367,0,0,0-.366-.366h-.687a.367.367,0,0,0-.366.366v.473a.321.321,0,0,1-.241.31,3.786,3.786,0,0,0-.98.407.321.321,0,0,1-.39-.049l-.335-.335a.366.366,0,0,0-.518,0l-.486.486a.366.366,0,0,0,0,.518l.336.335a.321.321,0,0,1,.049.39,3.778,3.778,0,0,0-.406.98.321.321,0,0,1-.311.24h-.473a.367.367,0,0,0-.366.366v.687a.366.366,0,0,0,.366.366h.473a.321.321,0,0,1,.311.241,3.779,3.779,0,0,0,.406.979.321.321,0,0,1-.049.39l-.335.335a.366.366,0,0,0,0,.518l.486.486a.366.366,0,0,0,.518,0l.335-.335a.322.322,0,0,1,.39-.049Zm0,0" transform="translate(-337.356 -338.013)"/><path class="a" d="M337.928,344.092h-.687a1.387,1.387,0,0,1-1.385-1.35q-.117-.045-.231-.1a1.373,1.373,0,0,1-.953.381h0a1.378,1.378,0,0,1-.982-.406l-.485-.485a1.386,1.386,0,0,1-.025-1.935q-.051-.114-.1-.231a1.387,1.387,0,0,1-1.35-1.385V337.9a1.387,1.387,0,0,1,1.35-1.385q.045-.116.1-.231a1.386,1.386,0,0,1,.025-1.935l.485-.485a1.385,1.385,0,0,1,1.934-.025q.114-.051.231-.1a1.387,1.387,0,0,1,1.385-1.35h.687a1.387,1.387,0,0,1,1.385,1.35q.116.045.231.1a1.374,1.374,0,0,1,.953-.381h0a1.378,1.378,0,0,1,.982.406l.485.485a1.386,1.386,0,0,1,.025,1.934q.051.114.1.231a1.387,1.387,0,0,1,1.35,1.385v.687a1.388,1.388,0,0,1-1.35,1.385q-.045.117-.1.231a1.386,1.386,0,0,1-.025,1.935l-.485.485a1.376,1.376,0,0,1-.981.406h0a1.374,1.374,0,0,1-.953-.381q-.114.051-.231.1A1.387,1.387,0,0,1,337.928,344.092Zm-.675-1.4h.663v-.461a.7.7,0,0,1,.524-.677,3.4,3.4,0,0,0,.882-.366.7.7,0,0,1,.85.107l.327.327.469-.469-.327-.327a.7.7,0,0,1-.107-.85,3.4,3.4,0,0,0,.366-.882.7.7,0,0,1,.677-.524h.461v-.663h-.461a.7.7,0,0,1-.677-.524,3.408,3.408,0,0,0-.366-.882.7.7,0,0,1,.108-.85l.327-.327-.469-.469-.327.327a.7.7,0,0,1-.85.107,3.405,3.405,0,0,0-.882-.366.7.7,0,0,1-.524-.677v-.461h-.663v.461a.7.7,0,0,1-.524.677,3.407,3.407,0,0,0-.882.366.7.7,0,0,1-.85-.107l-.327-.327-.469.469.327.327a.7.7,0,0,1,.107.85,3.4,3.4,0,0,0-.366.882.7.7,0,0,1-.677.524h-.461v.663h.461a.7.7,0,0,1,.677.524,3.4,3.4,0,0,0,.366.882.7.7,0,0,1-.107.85l-.327.327.469.469L335,341.3a.7.7,0,0,1,.85-.107,3.4,3.4,0,0,0,.882.366.7.7,0,0,1,.524.677Zm-2.574-1.061Zm-.486-.486" transform="translate(-331.734 -332.392)"/></g><g transform="translate(3.091 3.091)"><path class="a" d="M389.146,392.184a2.381,2.381,0,1,1,2.381-2.381,2.384,2.384,0,0,1-2.381,2.381Zm0-4.121a1.74,1.74,0,1,0,1.74,1.74,1.742,1.742,0,0,0-1.74-1.74Zm0,0" transform="translate(-386.387 -387.044)"/><path class="a" d="M383.524,386.941a2.759,2.759,0,1,1,2.759-2.759A2.762,2.762,0,0,1,383.524,386.941Zm0-4.121a1.362,1.362,0,1,0,1.362,1.362A1.363,1.363,0,0,0,383.524,382.82Z" transform="translate(-380.765 -381.422)"/></g></g><g transform="translate(17.44 9.374)"><path class="a" d="M27.957,294.443h-9.28c.239-3.212,2.429-4.839,6.518-4.839a9.34,9.34,0,0,1,3.68.633,4.142,4.142,0,0,1,1.082-.812,9.8,9.8,0,0,0-4.762-1.036c-5,0-7.755,2.366-7.755,6.661a.607.607,0,0,0,.607.607H28.626A4.121,4.121,0,0,1,27.957,294.443Z" transform="translate(-17.44 -288.389)"/></g></g></svg>