<svg xmlns="http://www.w3.org/2000/svg" width="16.5" height="14.889" viewBox="0 0 16.5 14.889"><defs><style>.a{fill:#0d004c;}</style></defs><g transform="translate(-183 -77)"><path class="a" d="M198.533,77H183.967a.968.968,0,0,0-.967.967v9.6a.968.968,0,0,0,.967.967H188.7v2.385h-2.61a.483.483,0,0,0,0,.967h10.313a.483.483,0,0,0,0-.967H193.8V88.537h4.737a.968.968,0,0,0,.967-.967v-9.6a.968.968,0,0,0-.967-.967Zm-5.7,13.922h-3.158V88.537h3.158Zm5.7-3.352H183.967v-9.6h14.566c0,9.812,0,9.6,0,9.6Zm0,0"/></g></svg>