<svg xmlns="http://www.w3.org/2000/svg" width="16.399" height="14.649" viewBox="0 0 16.399 14.649"><defs><style>.a{fill:#0d004c;}</style></defs><path class="a" d="M30.36,58.123a4.092,4.092,0,0,0-5.092-6.388,4.094,4.094,0,0,0-5.1,6.388,5.816,5.816,0,0,0-3.1,5.168v1.757a.586.586,0,0,0,.586.586H32.879a.586.586,0,0,0,.586-.586V63.291A5.816,5.816,0,0,0,30.36,58.123Zm-2.753-5.959a2.924,2.924,0,0,1,1.2,5.591c-.045.02-.09.039-.136.059a2.868,2.868,0,0,1-.446.139c-.029.006-.059.01-.088.016a2.929,2.929,0,0,1-.515.052c-.078,0-.156-.006-.234-.013A.445.445,0,0,1,27.3,58a2.96,2.96,0,0,1-.958-.282c-.011-.005-.024,0-.035-.009-.059-.028-.117-.053-.169-.084,0-.006.008-.012.012-.018a4.109,4.109,0,0,0,.627-1.143l.018-.049a4.136,4.136,0,0,0,.155-.6c.005-.03.009-.059.014-.091a3.739,3.739,0,0,0,0-1.258c0-.03-.009-.059-.014-.091a4.136,4.136,0,0,0-.155-.6l-.018-.049a4.109,4.109,0,0,0-.627-1.143c0-.006-.008-.012-.012-.018A2.91,2.91,0,0,1,27.608,52.163Zm-7.614,2.928a2.921,2.921,0,0,1,4.942-2.115c.034.033.067.066.1.1a3.008,3.008,0,0,1,.278.337c.026.036.049.075.073.112a2.885,2.885,0,0,1,.215.4c.015.033.026.067.039.1a2.86,2.86,0,0,1,.145.469c0,.018.005.035.009.053a2.757,2.757,0,0,1,0,1.1c0,.018,0,.036-.009.053a2.86,2.86,0,0,1-.145.469c-.013.033-.024.067-.039.1a2.881,2.881,0,0,1-.215.395c-.024.038-.047.076-.073.112a3.009,3.009,0,0,1-.278.337c-.033.034-.066.067-.1.1a2.923,2.923,0,0,1-.809.546c-.047.022-.1.042-.144.059a2.944,2.944,0,0,1-.435.135c-.037.008-.075.013-.112.019a2.9,2.9,0,0,1-.482.049H22.89a2.9,2.9,0,0,1-.482-.049c-.037-.006-.076-.011-.112-.019a2.944,2.944,0,0,1-.435-.135l-.144-.059A2.928,2.928,0,0,1,19.994,55.092Zm-1.757,8.2a4.656,4.656,0,0,1,3.115-4.414,4.087,4.087,0,0,0,3.141,0,4.7,4.7,0,0,1,.57.252c.122.063.234.134.351.206.076.047.153.094.227.146.113.08.22.167.324.257.067.059.134.117.2.176.1.091.187.188.275.287.063.071.124.144.182.219.077.1.15.2.218.3.059.088.111.179.162.271s.112.2.162.306.093.22.135.331.076.194.107.293c.041.136.07.276.1.417.018.083.04.165.053.249a4.844,4.844,0,0,1,.053.7v1.171H18.237Zm14.056,1.171H28.779V63.291c0-.183-.011-.365-.027-.545,0-.053-.013-.1-.019-.158-.016-.129-.034-.258-.059-.385q-.016-.081-.033-.163-.042-.2-.1-.388c-.012-.042-.023-.085-.036-.127a5.8,5.8,0,0,0-.706-1.48l-.023-.033q-.151-.224-.323-.434l0-.005a5.309,5.309,0,0,0-.378-.42H27.1a4.144,4.144,0,0,0,.5.035h.032a4.141,4.141,0,0,0,.462-.03c.048-.006.1-.015.143-.022q.187-.029.369-.074l.1-.027a3.989,3.989,0,0,0,.469-.159,4.656,4.656,0,0,1,3.117,4.415Z" transform="translate(-17.066 -50.985)"/></svg>