<svg xmlns="http://www.w3.org/2000/svg" width="92" height="92" viewBox="0 0 92 92"><defs><style>.a{fill:#1c787a;}.b{fill:#fff;}</style></defs><g transform="translate(-915 -203)"><circle class="a" cx="46" cy="46" r="46" transform="translate(915 203)"/><g transform="translate(930.484 212.691)"><path class="b" d="M363.171,94.1H367.1a1.965,1.965,0,1,0,0-3.929h-3.929a1.965,1.965,0,1,0,0,3.929Z" transform="translate(-317.985 -78.383)"/><path class="b" d="M213.079,6.772a1.965,1.965,0,0,0,3.515-1.757l-1.965-3.929a1.965,1.965,0,0,0-3.515,1.757Z" transform="translate(-187.332 0)"/><path class="b" d="M317.2,7.65a1.966,1.966,0,0,0,2.636-.879L321.8,2.843a1.965,1.965,0,0,0-3.515-1.757L316.32,5.014A1.965,1.965,0,0,0,317.2,7.65Z" transform="translate(-278.786 0)"/><path class="b" d="M152.758,94.1h3.929a1.965,1.965,0,1,0,0-3.929h-3.929a1.965,1.965,0,0,0,0,3.929Z" transform="translate(-135.076 -78.383)"/><path class="b" d="M40.379,241.468H32.521a1.965,1.965,0,0,0-1.965,1.965v31.434a1.965,1.965,0,0,0,1.965,1.965h7.858a1.965,1.965,0,0,0,1.965-1.965V243.433A1.964,1.964,0,0,0,40.379,241.468Z" transform="translate(-30.556 -209.904)"/><path class="b" d="M193.976,116.026a6.179,6.179,0,0,0-6.261-5.208H172.4c1.3-2.331,2-8.923,1.969-11.616a8.181,8.181,0,0,0-8.2-8.03h-1.621a1.964,1.964,0,0,0-1.965,1.965c0,4.543-1.769,12.743-5.105,16.079-2.246,2.246-4.165,3.059-6.682,4.317v29.479c3.854,1.285,8.747,3.169,16.205,3.169h12.852c4.234,0,7.532-3.922,5.891-8.066a5.9,5.9,0,0,0,3.929-7.858,5.9,5.9,0,0,0,2.839-9.616A5.882,5.882,0,0,0,193.976,116.026Z" transform="translate(-135.077 -79.254)"/></g></g></svg>